/* XPM */
static char *d1a886454d6c40d3c76a2f16bbfc876f58GOJ6mTj0HsUTdH[] = {
/* columns rows colors chars-per-pixel */
"48 48 72 1 ",
"  c #371A08",
". c #540F0E",
"X c #5A3816",
"o c #712A0C",
"O c #5E2F2B",
"+ c #78501F",
"@ c #484B48",
"# c #4F524F",
"$ c #535653",
"% c #55575C",
"& c #585B58",
"* c #5C605C",
"= c #626363",
"- c #626662",
"; c #656965",
": c #68696C",
"> c #6B6C6C",
", c #6F6F72",
"< c #6C6F74",
"1 c #707171",
"2 c #717275",
"3 c #767777",
"4 c #77777B",
"5 c #75777D",
"6 c #7B7B7A",
"7 c #79797C",
"8 c #7B7C7C",
"9 c #8F3D10",
"0 c #A65113",
"q c #BA6416",
"w c #C97318",
"e c #99B217",
"r c #D38C1E",
"t c #D1B424",
"y c #80807C",
"u c #DFC543",
"i c #E0D06E",
"p c #7E7F82",
"a c #7D808B",
"s c #838485",
"d c #868685",
"f c #858688",
"g c #878888",
"h c #88898D",
"j c #8B8C8F",
"k c #8B8C90",
"l c #8F8F91",
"z c #8F9094",
"x c #939392",
"c c #959698",
"v c #98999C",
"b c #A3A3A5",
"n c #A4A5A6",
"m c #A8A6A0",
"M c #A8A8A7",
"N c #B0ADA7",
"B c #B1B1B4",
"V c #B3B4B6",
"C c #B2B8B9",
"Z c #E4DDA0",
"A c #C1C2C7",
"S c #CBCBCE",
"D c #D3D0C8",
"F c #D7DBDC",
"G c #EDE7D2",
"H c #DEDEE1",
"J c #D9E6E8",
"K c #EBEDE0",
"L c #F4F3EA",
"P c #E4F2F4",
"I c #F2FAFB",
"U c white",
/* pixels */
";;;;;;;;;;;;;;;;;;;<;;;;;;;;;;;;;;;;;;;;;;;;<<<;",
"AVVVVVMMMMMvVVMVVMVvvVV5AMMvVMV;AVVAAAAVMVVVvMA;",
"AvgvzzzzzvzzzzvzzzvzvvM<AzzzvvV;HvvvvzvzzzzvzvV;",
"HzgagvavvvzzzggzzzvzvvM<AzzzzzV;HzvzzzzvvvzzzvM;",
"HgzvaggzgzggvvgzvgzvzvM;DvzgvgV;HvzvzzvvzvzzvvV;",
"HzggvggzzzvvzzzzvvvvgzM;HvvzgvM;Hvzzvzgzzvvvvvv;",
"HzzgMzggvvvvvzvvvzvvzgM;HvvzzvV;Hvzzvzzvvzgzvvv;",
"HHHHHHHAAHAVAHHAAAAVAAA<HHqqwqN;HvzvvgvwrwpzgvM;",
";;;;;;;;;;;;;;;;;;;;<<;;;qwtrw0$HzzzgawZttwpzvv;",
"AVvVvVV;AVVAAAAVMVVV9009Aqrttr0@Hzavz9rGGtr,jvV;",
"AMvvvzV;Hvvvvzvzzzz9rwooooortqo@B3s89rqtGZ9,fvM;",
"AMzvzzVwwwfzzzzvvoqq9owtw9.ooos@C:>39tt999:2kzV;",
"VvvvvvwtttwpzzvfoqtUt9ttqo.o.99..,==ortr9:2hvzM;",
"VvzgvvwLttw:v000qZUtw9q9ooqtoqwq...:=oq9:>gzvvM;",
"AMvzvvqtLt9:0rtt9wtw999.qrZ99trr..w.,,=,7szzzvV;",
"AMvzzzcqq9:0rtZtq9oo9Utwo99ww0t0..o0.bbBSJHHHHH;",
"AvzzzzV$b::0wZiw9oo9UUUtoowtt0o.0e9o.@@@#*-<;;;;",
"AvzvvvM;H9wr9oq90oo9tUUt9orGwo.99we o 6ssdnvvVV;",
"AMvvvvM;9w09o.9qtr909tt90to9oowwq9wo . :::7hvvM;",
"VzvvzzM;qwtUt9qrrq9q0990rU9..9trwoo e0. o:,2vvM;",
"AMvvzvVFwtUUUq.qq9qtUw9wUwo9q9rtw   qeo.q :,kvM;",
"AMvvvzVwwttUt9..9qtUUUqo9o9Utw.o o   qq o ,,8zM;",
"AMgvvvwttqttw99q9ortUto. oUUUt  oo.   .9 :,,pgM;",
"AvgvzwLrtqqt99ttoo9rwqo XotUtto.9w0.  q.0olsvAA<",
"Aggzz9trooo0qiG999o99. 90oqwt99owee0 0rq.o@@#;;;",
"Avzgzo999wZt9q99wttr9o 9ooo99+t00weqoree.s,s7VV;",
"Avgzg9rt0ZZZr99wtUUto9wo .99Ltt.900..oe0.o,,7kV;",
"AMzgz0rtwtZwoo9wtUUw9ttwoo.0tt..9.  o.. ooo,4zV;",
"Hvzvz40rtqqoo0q9ttr99uZq9...0..0qo. ooq oqo,jvV;",
"HVzzgzl0q0qqotUw9oooqZt9rttq.90rrqoo 0 oqeo1jvv;",
"HVgagzV#BwtZqLiUwo. .q99tLZt.9rttqow  o0eo,pvvV;",
"HHHAHAA;B9ZZqqttqw0o...9tZZto9rtqoww   oo67hzzV;",
"5;;;;;;;%99rrqqqrtZto...9tt9qo..o0e o O@l7hzzzV;",
"AVVAAAAVx.99o99qwZZZ9..o999rrw0. oooo 0OvvzvvvM;",
"Hvvvvzvzsqtwq9qtqtZt90o0qwottt9ooo o 0tovMvvvvM;",
"HzvzzzzvvtLtwqZUtq99qt9qtrwow0o9qtr 0t0onzvvzzM;",
"Hvzvzzvvz0tLt0wZq9qqZZq9wqo.9oqotr9:...*AMvvzvV;",
"Hvzzvzgzzf000,oo9q0tZq..9o.qttqooo,,77jwwwpvvzV;",
"Hvzzwwwpvz32,,,o9rq00..@b9o0rqoo,23zvvwtttwpvvV;",
"HvzwtLtw1vvzgfd@l990:,l#bqKtto,23vvzgvwGttw,zzV;",
"HzzwLLUw,vvvzvv&v,:7fvV;BqtGro,vvvvvzvqtZt9:zgV;",
"HzaqtUt9,zzvvvV;AvvzzzV;H2qqo,2zvzzvvvlqq9:>zzM;",
"Hgz>qq9:2gzvvvM;www4vvM;Hg2==2gzzgzvvvM#l,>zgzV;",
"Izgg2,=>zzzzzzVwtUtwpvM;IzggzvggzzzzzzV;AMzgzzM;",
"IvggzzzggzzzvzMwUGUw:vM;IvggzzzggzzzvzM;Hvzvzzv;",
"IagzgagzzggzvvMqtUt9,zV;IagzgagzzggzvvM;HVzzgzV;",
"IvgvvvgvvzzzzvV%qq9=7zV;IvgvvvgvvzzzzvV;HVgagzV;",
"IHHHPHHHHPHHHHH;BbbmDAAyIHHHPHHHHPHHHHH;HHHAHAA;"
};
