/* XPM */
static char *_c2c2598addd47ddeb0c7f17aa2dbc01R9wXmEld3Vxdgfu4[] = {
/* columns rows colors chars-per-pixel */
"48 48 42 1 ",
"  c #20160F",
". c #5F1D0D",
"X c #46290E",
"o c #484B48",
"O c #4E5054",
"+ c #626363",
"@ c #656965",
"# c #68696C",
"$ c #6F6F72",
"% c #6C6F74",
"& c #767777",
"* c #75777D",
"= c #7B7B7A",
"- c #79797C",
"; c #853A0C",
": c #A14B0F",
"> c #B75F14",
", c #C97318",
"< c #D38C1E",
"1 c #DBA42E",
"2 c #80807C",
"3 c #DFC543",
"4 c #E5D76D",
"5 c #7D7E81",
"6 c #7D808B",
"7 c #838485",
"8 c #858688",
"9 c #878888",
"0 c #8D8E92",
"q c #8F9094",
"w c #939392",
"e c #98999C",
"r c #A3A3A5",
"t c #A8A8A7",
"y c #A8B2B4",
"u c #B3B4B6",
"i c #C1C2C7",
"p c #D3D0C8",
"a c #EDE7D2",
"s c #DEDEE1",
"d c #E4F2F4",
"f c #F2FAFB",
/* pixels */
"@@@@@@@@@@@@@@@@@@@%@@@@@@@@@@@@@@@@@@@@@@@@%%%@",
"iuuuuuttttt         euu*itte         iiutuuueti@",
"ie9eqqqqqeX:111<1<<; et%iqqX:111<1<<; eqqqqeqeu@",
"sq969e6eeX<1<<<<,,,<: t%iqX<1<<<<,,,<: eeeqqqet@",
"s9qe699qX;3<<<<<<<<<,. @pX;3<<<<<<<<<,. #-5qeeu@",
"sq99e99q.:3<<<<<<<<<<. @s.:3<<<<<<<<<<. #$$8eee@",
"sqq9tq9X;,3<<<<<<<<<<.. X;,3<<<<<<<<<<.. #+#eee@",
"sssssss.:<3<131,333<1;. .:<3<131,333<1.. $$#9et@",
"@@@@@@@;,<3<.;;,.;;<1;. ;,<3<.;;,.;;<1;. $$$qee@",
"iueueuu;<<3<11111<<<1;. ;<<3<11111<<<1;. ##$eeu@",
"iteeequ;<<4<.31;13.<1;; ;<<4<.31;13.<1;. +#$eet@",
"itqeqqu;<<41.;3;3.;<3;; ;<<41.;3;3.;<3;; ###qqu@",
"ueeeeeu;<<41.1;1;1;13;; ;<<41.1;1;1;13;; ###eqt@",
"ueq9eee:<<41.44333;13;>.:<<41.44333;13;; ++#eet@",
"iteqeeu:<141..;;;;;13;>.:<141..;;;;;13;; ###qeu@",
"iteqqqu:<14<333443313;,.:<14<333443313;; yrrsss@",
"ieqqqqu:<14<1;1;1;113;,.:<14<1;1;1;113;; ooO@@@@",
"ieqeeet><34<111111113;<.><34<111111113;; =7$euu@",
"iteeeet:<34<111111113;<.:<34<111111113;; #$#eet@",
"uqeeqqt><34<111111113;<.><34<111111113;; #$#eet@",
"iteeqeu>134<111111113;<.>134<111111113;; +#$qet@",
"iteeequ>134<111111113;<.>134<111111113;; $$$9qt@",
"it9eeeu>1341311111113;,.>1341311111113;; #$$q9t@",
"ie9eqqu>13a1431114433;<.>13a1431114433;; 007iii%",
"i99qq9u>33a3;;3;1;;;4;>.>33a3;;3;1;;;4;; ooo@@@@",
"ieq9qqt:34a4333311134;>.:34a4333311134;; 7$7euu@",
"ie9q9qu:34a4443333343;:.:34a4443333343;; =$$equ@",
"itq9qqt:443aaaa4a443,.;.:443aaaa4a443,.; =#$qqu@",
"seqeqqe:a4>;;;;:>::;;.; :a4>;;;;:>::;;.; $$$eeu@",
"suqq9qu:a1;;;;>,,,,:;.. :a1;;;;>,,,,:;.. $#+eee@",
"su969qu;a>;;;>,<<,>;;.. ;a>;;;>,<<,>;;.. =$#eeu@",
"sssisii;3;;;>,<<,>:;;;. ;3;;;>,<<,>:;;;. =$#qqu@",
"*@@@@@@;1;;>,<<,>:;;;;. ;1;;>,<<,>:;;;;. $##qqu@",
"iuuiiii;;;>,,,>:;;;;;;; ;;;>,,,>:;;;;;;; $#$eet@",
"seeeeqe.;:><1111111<>:; .;:><1111111<>:; =$$eet@",
"sqeqqqq:                X                #$$qqt@",
"seqeqqe:>>3aaaa44443;   XXX.aaaa44443,.; =$$qeu@",
"seqqeq9:1,>;;;;:>::;;X  XXX.;;;;:>::;;.; =$$equ@",
"seqqeqq:1,;;;;>,,,,:;.  XXX;;;;>,,,,:;.. =+$eeu@",
"seqee9e;1>;;;>,<<,>;;;  XX.;;;>,<<,>;;.. $+$qqu@",
"sqqq96e;1;;;>,<<,>:;;;X XX;;;>,<<,>:;;;. ++#q9u@",
"sq6eqeq;,;;>,<<,>:;;;;. X.;;>,<<,>:;;;;. $#&qqt@",
"s9q99q9;;;>,,,>:;;;;;;; X;;>,,,>:;;;;;;; $&q9qu@",
"fq99qe9.;:><1111111<>:;  ;:><1111111<>:; wq9qqt@",
"fe99qqq9               @f               ieqeqqe@",
"f69q969qq99qeet@suqqequ@f69q969qq99qeet@suqq9qu@",
"fe9eee9eeqqqqeu%suq9equ@fe9eee9eeqqqqeu@su969qu@",
"fsssdssssdsssss@sssppii2fsssdssssdsssss@sssisii@"
};
