/* XPM */
static char *_e2bcce5d70143d9dc40582595729daeb8xiYMuspfu8RwRk[] = {
/* columns rows colors chars-per-pixel */
"48 48 76 1 ",
"  c #5F1D0D",
". c #78501F",
"X c #484B48",
"o c #4F524F",
"O c #535653",
"+ c #585B58",
"@ c #7A4541",
"# c #7C4944",
"$ c #5C5E63",
"% c #626363",
"& c #656965",
"* c #68696C",
"= c #6B6C6C",
"- c #6F6F72",
"; c #6C6F74",
": c #6D7079",
"> c #707171",
", c #717275",
"< c #77777B",
"1 c #75777D",
"2 c #7B7B7A",
"3 c #79797C",
"4 c #853A0C",
"5 c #A14B0F",
"6 c #B75F14",
"7 c #AA5732",
"8 c #916731",
"9 c #C97318",
"0 c #997542",
"q c #B06348",
"w c #B1664C",
"e c #B46B52",
"r c #8E6664",
"t c #B97562",
"y c #D38C1E",
"u c #DBA42E",
"i c #A0814E",
"p c #A98B48",
"a c #B0935D",
"s c #80807C",
"d c #CDAA4E",
"f c #C0806F",
"g c #D1BA68",
"h c #DFC543",
"j c #E5D76D",
"k c #7D7E81",
"l c #7D808B",
"z c #838485",
"x c #868685",
"c c #858688",
"v c #878888",
"b c #8C8C8B",
"n c #8D8E92",
"m c #8F9094",
"M c #939392",
"N c #959698",
"B c #98999C",
"V c #A0A09F",
"C c #A3A3A5",
"Z c #A8A8A7",
"A c #B1B1B4",
"S c #B3B4B6",
"D c #B2B8B9",
"F c #B9B9BC",
"G c #EBDD8D",
"H c #F2EBB4",
"J c #BECACC",
"K c #C1C2C7",
"L c #D3D0C8",
"P c #D5DCDC",
"I c #EDE7D2",
"U c #DEDEE1",
"Y c #F4F3EA",
"T c #E4F2F4",
"R c #F2FAFB",
"E c white",
/* pixels */
"&&&&&&&&&&&&&&&&&&&;&&&&&&&&&&&&&&&&&&&&&&&&;;;&",
"KSSSSSZZZZZBSSZSSZSBBSS1KZZBSZS&KSSKKKKSZSSSBZK&",
"KBvBmmmmmBmmmmBmmmBmBBZ;KmmmBBS&UBBBBmBmmmmBmBS&",
"UmvlvBlBBBmmmvvmmmBmBBZ;KmmmmmS&UmBmmmmBBBmmmBZ&",
"UvmBlvvmvmvvBBvmBvmBmBZ&LBmvBvS&UBmBmmBBmBmmBBS&",
"UmvvBvvmmmBBmmmmBBBBvmZ&UBBmvBZ&UBmmBmvmmBBBBBB&",
"UmmvZmvvBBBBBmBBBmBBmvZ&UBBmmBS&UBmmBmmBBmvmBBB&",
"UUUUUUUKKUKSKUUKKKKSKKK;UUKKUUL&UBmBBvBmvBBmvBZ&",
"&&&&&&&&&&&&&&&&&&&&;;&&&&&&&&&&UmmmvlBBBBBBmBB&",
"KSBSBSS&KSSKKKKSZSS99999444BSZS&UmlBmBmmBmmBBBS&",
"KZBBBmS&UBBBBmBmm99uuh9yjjy4BBS&UvmvvmvmmvmBBBZ&",
"KZmBmmS&UmBmmmmB6hhHhhYYyjj655S&RmvvmBvvmmmmmmS&",
"SBBBBBS&UBmBmmB9hjEhHIYYyy6h6u5&RBvvmmmvvmmmBmZ&",
"SBmvBBB&UBmmBm6uujIuhEI9yyh9h954RlvmvlvmmvvmBBZ&",
"KZBmBBS&UBmmB9hIguuyIEIYEyhuhh464BvBBBvBBmmmmBS&",
"KZBmmmS&UBm5whI6jYIEEEIIYIy69566y4UUTUUUUTUUUUU&",
"KBmmmmS&Um6uIHjuYjhIEYIuhuyGhu6u6644&&&&&&&;&&&&",
"KBmBBBZ&U@HIIhjjujEEYIyuHhuyhh66yu654SZSSZSBBSS&",
"KZBBBBZ&rjIhhhuhuuIEEuGGyu9hy9y6h99y64BmmmBmBBZ&",
"SmBBmmZ9udg9uEIyjHjuIGHGu9uGGyyyyuh9u544mmBmBBZ&",
"KZBBmB9h9jYuhYEdIHIIEEduGHhyyyhy9u6h66654vmBmBZ&",
"KZBBBm69jjdhhuHIHIHIEEEjHHhujdyh9996666654BBvmZ&",
"KZvBB9hGHGhhdIIIIHIYHGGGhHIhGyuyy9996y6644.BmvZ&",
"KBvB9hh6HGhGHHIHHHYYHGGjhHjhu8hhy9y99hy46644CKK;",
"Kvv6dhuyhhjHIHGGGGHGEHHGhhuuhuyhhuhh966666644O&&",
"KBk9hGHG9jHGHIHGGGHGjjHhHjIuhhyyyuuhh966yy644nN&",
"KB6hyyGGuhHGHGGGjHHHHhhhGju9uyhhyyuuh9665yy644n&",
"KM9uyyyuhhGjIHHGGHHIHHYHGjjjyhh9yuy59h96666664zO",
"U6hyuGHGGHGGHIGHHjHHIIIGHjhjuyyuuhhu6666666644zo",
"F9h9huHGIHHHHGjGIGHHHHHHHuu9yyhy66yhy6y98d6665-O",
"A9u9uhyjjHHIjHGGHGHHHIIGjhuhhy69Ih6655upa6664-n+",
"C69u6hyuYIIHdHIjgjHGHIEjhuyyy60u9Yh 455dpya64*N&",
"$59959uhhujjjIEjHgjHGHEhuhhy6uH9996u 454u4i64*n&",
"Cz59u9uuhhhhIjGGHHgGHguhjhyy9uuuu6u664445666442&",
"U35uGjyuhHjhjGjGGHIHHGuuhhh6hhuGYhhh65 44466.42&",
"Uk35uy9jjjhGHuGGGIIuHHHGgyy9hhGGuhh6u96 44444*x&",
"UBk355566hhjHHyjGduuhHu59y6uuGuuuuuu6uh6445-*3S&",
"UBmk3*%5hd6ajjyGuGjuuhhyy4uhuuuuuh66u6555 --3mS&",
"UBmmBm,-0iuu6uu6u6juy69u95huYYujjuuu6hy6H64-kBS&",
"UBmBBvBk>3-*uu6j62gjy#hh465uuujjjjh66u66564-kmS&",
"UmmmvlBBBBBc<3-Xn-*6--545h556uhuuh6u66u6u55*mvS&",
"UmlBmBmmBmmBBBS&KBc<,*zy5huG66uuuuuuhuuu644=mmZ&",
"UvmvvmvmmvmBBBZ&KZmmBBb4f6uhhuuh6h6u6hu65-=kvmS&",
"RmvvmBvvmmmmmmS&SZvBBBVODqhhhuuuuuu6u555txmvmmZ&",
"RBvvmmmvvmmmBmZ&USmmmBZ&P-6uhdhhuy666hh7AkmBmmB&",
"RlvmvlvmmvvmBBZ&USmmBmS&R:=*6jjqq==,3weoFSmmvmS&",
"RBvBBBvBBmmmmBS;USmvBmS&RBv3-6633<mm<3nOUSvlvmS&",
"RUUUTUUUUTUUUUU&UUULLKKsRUUUJAAFUTUUUUU&UUUKUKK&"
};
