/* XPM */
static char *result[] = {
/* columns rows colors chars-per-pixel */
"48 48 29 1 ",
"  c #3D0101",
". c #30200E",
"X c #6B0808",
"o c #482714",
"O c #5F361E",
"+ c #693D0A",
"@ c #7A4A2B",
"# c #00007B",
"$ c #656965",
"% c #6C6F74",
"& c #75777D",
"* c #A30E0E",
"= c #D32C1F",
"- c #9F5F24",
"; c #9B6443",
": c #F05449",
"> c #C78961",
", c #E5A261",
"< c #7D808B",
"1 c #878888",
"2 c #8F9094",
"3 c #98999C",
"4 c #A8A8A7",
"5 c #B3B4B6",
"6 c #FFD781",
"7 c #C1C2C7",
"8 c #DEDEE1",
"9 c #E4F2F4",
"0 c #F2FAFB",
/* pixels */
"$$$$$$$$$$$$$$$$$$$%$$$$$$$$$$$$$$$$$$$$$$$$%%%$",
"75555544444355455453355&7443545$755777754555347$",
"73132222232222322232334%7222335$833332322223235$",
"821<13<33322211222ooooooooooo25$823222233322234$",
"8123<11212113312ooOOOOo.oOOoooo$832322332322335$",
"82113112223322ooOO@@@OOoOOOOOoooo32232122333333$",
"8221421133333oOO@@@@@@@@@@@@@@Oooo2232233212333$",
"888888877875o;O@@@@@@@@@@@@@@@@Oooo331321332134$",
"$$$$$$$$$$$o;@@@@@@@@@@@@@@@@@@@ooO.1<333333233$",
"7535355$75oOO;;@@@@@@@@@@@@@@@@@oo@o.3223223335$",
"7433325$83.Oo;>;;;@@@@@@@@@@@@@@oO@o.2122123334$",
"7423225$82.o@@;>>;;;;;;;;@@@@@@@O@ooo.112222225$",
"5333335$8.oo@@@@@;>>>>>>>>>;;;;@@OOoo.211222324$",
"5321333$8.oo@@@@@@@@@@@@@@@@@@@@OoOoo.122112334$",
"7432335$8.oO@@@@@@@@@@@@@@@@@@@@@o@Oo.133222235$",
"7432225$8.oO@@@@@@@@@@@@@@@@@@@@@o@Oo.888988888$",
"7322225$8.o@@@@@@@@@@@@@@@@@@@@@@o@@o.$$$$$%$$$$",
"7323334$8.o@@O@@@@@@@@@@@@@@@@@@@O@@o.455453355$",
"7433334$8.o@@O@@@@@@@@@@@@@@@@@@@@@@o.322232334$",
"5233224$0.O@@O@@@@@@@@@@@@@O@@@@@@@@o.122232334$",
"7433235$0.O@@O@@@@@@@@@@@@@O@@@@@O@@o.123123234$",
"7433325$..O@OOO@@@@O@@@@@@@O@@@@@O@@o.223333124$",
"7413335$..OOOoO@@@@O@@@@@@OO@@@@OOO@o.333233214$",
"7313225$.oOOOoO@@@OO@@@@@@OOO@@@OoOOoo.77775777%",
"7112215$.oOOOoOO@@OOO@@@@OOOOO@OOoOOoo.$$$$$$$$$",
"7321224$.oOOooOO@OOOOOOOOOOOOOOOOoOOoo.$7535355$",
"7312125$.ooOooOOOOOOOOOOOOOOOOOOOooOoo.$7433325$",
"7421224.oooooooOOOOoOOOOOOOoOOOOOooOoo.$7423225$",
"8323223.oooooooOOOooOOOOOOOoOOOOoooOoo.$5333335$",
"852212.oooooooooOoooOOOOOOOooOOooooooo.$5321333$",
"851<12.oOoooooooOooooOOOOOoooOoooooooo.$7432335$",
"888787.oOoooooooooooooOOoooooooooooooo.$7432225$",
"&$$$$$.oOooooooooooooooooooooooooooooo.$7322225$",
"7557777.OOoooOoooooooooooooooooooooooo.$7323334$",
"8333323.oOoooOoooooooooooooooooooooooo.$7433334$",
"8232222.oOoo.Ooooooooooooooooooooooooo.$5233224$",
"83232233.oo..Oooo.ooOoooooooooooo.ooo.5$7433235$",
"832232122....oOoo.ooOoooooooooooo.ooo.3$7433325$",
"83223223321  ..oo..oOOoooo..ooo..oo..+3$7413335$",
"83233132133 X X..X..oOoo...ooo..... #34$7313225$",
"82221<3333 X*XXX*XXX.....XX...*XXXX #33$7112215$",
"82<3232232 *=XX*=*XX*****XXXX**X*XXX 35$7321224$",
"8121121221X==X*==*X******=*X**=**X*X 34$7312125$",
"021123112X*=**=:****=*===:=***:***=X 25$7421224$",
"031122211X=*XX:=*X**:===::=*X*:=X*=* 24$8323223$",
"0<121<122X=X    XX*=:::::*XXX*:= X=* 34$8522125$",
"0313331332X 235%   =::       X**  *X235$851<125$",
"088898888988888$888   6,-8889   89  888$8887877$"
};
