/* XPM */
static char *result[] = {
/* columns rows colors chars-per-pixel */
"48 48 32 1 ",
"  c #3D0101",
". c #30200E",
"X c #6B0808",
"o c #482714",
"O c #4D2E17",
"+ c #5F361E",
"@ c #693D0A",
"# c #7B4A29",
"$ c #7A4A2B",
"% c #00007B",
"& c #656965",
"* c #6C6F74",
"= c #75777D",
"- c #A30E0E",
"; c #D32C1F",
": c #9F5F24",
"> c #AF763B",
", c #9B6443",
"< c #F05449",
"1 c #C78961",
"2 c #E5A261",
"3 c #111188",
"4 c #7D808B",
"5 c #878888",
"6 c #8F9094",
"7 c #98999C",
"8 c #A8A8A7",
"9 c #B3B4B6",
"0 c #C1C2C7",
"q c #DEDEE1",
"w c #E4F2F4",
"e c #F2FAFB",
/* pixels */
"&&&&&&&&&&&&&&&&&&&*&&&&&&&&&&&&&&&&&&&&&&&&***&",
"09999988888799899897799=0887989&099000098999780&",
"075766666766667666ooooooooooo79&q77776766667679&",
"q654574777666556oo++++o.o++oooo&q67666677766678&",
"q5674556565577oo++$$$++o+++++oooo76766776766779&",
"q655755666776o++$$$$$$$$$$$$$$+ooo6676566777777&",
"q66586557777o,+$$$$$$$$$$$$$$$$+ooo676677656777&",
"qqqqqqq00q0o,$$$$$$$$$$$$$$$$$$$oo+.75765776578&",
"&&&&&&&&&&o++,,$$$$$$$$$$$$$$$$$oo$o.4777777677&",
"0979799&09.+o,1,,,$$$$$$$$$$$$$$o+$o.7667667779&",
"0877769&q7.o$$,11,,,,,,,,$$$$$$$+$ooo.566567778&",
"0867669&q.oo$$$$$,111111111,,,,$$++oo.556666669&",
"9777779&q.oo$$$$$$$$$$$$$$$$$$$$+o+oo.655666768&",
"9765777&q.o+$$$$$$$$$$$$$$$$$$$$$o$+o.566556778&",
"0876779&q.o+$$$$$$$$$$$$$$$$$$$$$o$+o.577666679&",
"0876669&q.o$$$$$$$$$$$$$$$$$$$$$$o$$o.qqqwqqqqq&",
"0766669&q.o$$+$$$$$$$$$$$$$$$$$$$+$$o.&&&&&*&&&&",
"0767778&q.o$$+$$$$$$$$$$$$$$$$$$$$$$o.899897799&",
"0877778&q.+$$+$$$$$$$$$$$$$+$$$$$$$$o.766676778&",
"9677668&e.+$$+$$$$$$$$$$$$$+$$$$$+$$o.566676778&",
"0877679&e.+$+++$$$$+$$$$$$$+$$$$$+$$o.567567678&",
"0877769&e.+++o+$$$$+$$$$$$++$$$$+++$o.667777568&",
"0857779&.o+++o+$$$++$$$$$$+++$$$+o++oo.77677658&",
"0757669&.o+++o++$$+++$$$$+++++$++o++oo.00009000*",
"0556659&.o++oo++$++++++++++++++++o++oo.&&&&&&&&&",
"0765668&.o++oo+++++++++++++++++++oo+oo.&0979799&",
"0756569&.oo+oo+++++o+++++++o+++++oo+oo.&0877769&",
"0865668&.oooooo+++oo+++++++o++++oooooo.&0867669&",
"q767667.oooooooo++oo+++++++oo++oooooooo.9777779&",
"q966569.oooooooo+oooo+++++oooo+oooooooo.9765777&",
"q954569.oooooooooooooo+++oooooooooooooo.0876779&",
"qqq0q00.o+ooooooooooooooooooooooooooooo.0876669&",
"=&&&&&&..+oooooooooooooooooooooooooooo..0766669&",
"0990000..+oooooooooooooooooooooooooooo..0767778&",
"q7777676.++ooo+ooooooooooooooooooo.ooo.&0877778&",
"q6766667.o+ooo+ooooooooooooooooooo.ooo.&9677668&",
"q76766776.ooo.+oooooooooooooooooo..oo.9&0877679&",
"q76676566:..o..+oo.oo+oooooo.ooo.....:7&0877769&",
"q7667667:2: ..X.oo..o+ooooo..oo.X.. :2:&0857779&",
"q7677576@:2 XXXX...X.o+ooo.X...XXXX 2:@&0757669&",
"q66654777%3XX-XX;-XXX.....XXX-;X-XXX3%7&0556659&",
"q64767667% X--X-;-X--;---;--X-;--X-X %9&0765668&",
"q565565665 -;---<---;;-;;<;---<---;- 78&0756569&",
"e655675566 -;--<;X--;<;;;<;--X;<--;- 69&0865668&",
"e755666556X;;-X;-XX-<<;;<<;-XX-;X-;;X68&q767667&",
"e456545665X;X X-X   <<<<<<;    -X X;X78&q966569&",
"e757775776 X 7   9O2       2O75  6 X 79&q954569&",
"eqqqwqqqqwq qqq&qqO#>>#O#>>#Oqqqqwq qqq&qqq0q00&"
};
