/* XPM */
static char *result[] = {
/* columns rows colors chars-per-pixel */
"48 48 30 1 ",
"  c #3D0101",
". c #30200E",
"X c #6B0808",
"o c #482714",
"O c #4D2E17",
"+ c #5F361E",
"@ c #693D0A",
"# c #7A4A2B",
"$ c #00007B",
"% c #656965",
"& c #6C6F74",
"* c #75777D",
"= c #A30E0E",
"- c #D32C1F",
"; c #9F5F24",
": c #9B6443",
"> c #F05449",
", c #C78961",
"< c #E5A261",
"1 c #7D808B",
"2 c #878888",
"3 c #8F9094",
"4 c #98999C",
"5 c #A8A8A7",
"6 c #B3B4B6",
"7 c #FFD781",
"8 c #C1C2C7",
"9 c #DEDEE1",
"0 c #E4F2F4",
"q c #F2FAFB",
/* pixels */
"%%%%%%%%%%%%%%%%%%%&%%%%%%%%%%%%%%%%%%%%%%%%&&&%",
"86666655555466566564466*8554656%866888865666458%",
"84243333343333433343445&8333446%944443433334346%",
"932124144433322333ooooooooooo36%934333344433345%",
"9234122323224423oo++++o.o++oooo%943433443433446%",
"93224223334433oo++###++o+++++oooo43343233444444%",
"9332532244444o++##############+ooo3343344323444%",
"999999988986o:+################+ooo442432443245%",
"%%%%%%%%%%%o:###################oo+.21444444344%",
"8646466%86o++::#################oo#o.4334334446%",
"8544436%94.+o:,:::##############o+#o.3233234445%",
"8534336%93.o##:,,::::::::#######+#ooo.223333336%",
"6444446%9.oo#####:,,,,,,,,,::::##++oo.322333435%",
"6432444%9.oo####################+o+oo.233223445%",
"8543446%9.o+#####################o#+o.244333346%",
"8543336%9.o+#####################o#+o.999099999%",
"8433336%9.o######################o##o.%%%%%&%%%%",
"8434445%9.o##+###################+##o.566564466%",
"8544445%9.o##+######################o.433343445%",
"6344335%q.+##+#############+########o.233343445%",
"8544346%q.+##+#############+#####+##o.234234345%",
"8544436%q.+#+++####+#######+#####+##o..34444235%",
"8524446%q.+++o+####+######++####+++#oo.44344325%",
"8424336%q.+++o+###++######+++###+o++oo.88886888&",
"8223326%.o+++o++##+++####+++++#++o++oo.%%%%%%%%%",
"8432335%.o++oo++#++++++++++++++++o++oo.%8646466%",
"8423236%.o++oo+++++++++++++++++++oo+oo.%8544436%",
"8532335%.oo+oo+++++o+++++++o++++ooooooo.8534336%",
"9434334%.oo+ooo+++oo+++++++o++++ooooooo.6444446%",
"9633236%.ooooooo++oo+++++++oo++ooooooooo.432444%",
"9621236%.oooooooo+ooo+++++oooo+ooooooooo.543446%",
"9998988%.oooooooooooooo++ooooooooooooooo.543336%",
"*%%%%%%%.oooooooooooooooooooooooooooooo..433336%",
"86688886.ooooooooooooooooooooooooo.oooo.8434445%",
"94444343.ooooooooooooooooooooooooo.ooo..8544445%",
"93433334.o+ooooooooooooooooooooooo..oo..6344335%",
"94343344.o++ooooooooooooooooo.oooo..oo.%8544346%",
"943343233.o++oo.ooooooooooooo.ooo.....4%8544436%",
"943343344@...o..+oo.o+oooooo..oo..  444%8524446%",
"9434424324$ X....+o...++oo..X...XXX  45%8424336%",
"9333214444$ XXXX=...XX.....XXX=XXXX  44%8223326%",
"93143433433 X=XX-=XXXX===XXXX==XX=XX 46%8432335%",
"92322323323 X==X-==X=-===--=X=-=X=-=X 5%8423236%",
"q322342233X==-==>-===--=->--==->-==-= 6%8532335%",
"q422333223X=--=X>-X=-->-->>-=X=->=X-- 5%9434334%",
"q123212332 =-=XX>=XX->>>>>>>=XX=   X-X5%9633236%",
"q424442443 =-  X-=XX>>          4333X 6%9621236%",
"q9990999909 X99       ;<77<O09999099999%9998988%"
};
