/* XPM */
static char *xpm_[] = {
/* columns rows colors chars-per-pixel */
"48 48 219 2 ",
"   c #1F0C02",
".  c #370F0F",
"X  c #2A1A0F",
"o  c #39170C",
"O  c #261912",
"+  c #2B1C10",
"@  c #331F14",
"#  c #362111",
"$  c #3D2513",
"%  c #3C281A",
"&  c #271823",
"*  c #2B2829",
"=  c #3A2D2D",
"-  c #3C3739",
";  c #480907",
":  c #491409",
">  c #440A19",
",  c #6C0F07",
"<  c #7B0909",
"1  c #48260B",
"2  c #5E3407",
"3  c #412614",
"4  c #452915",
"5  c #4B2B16",
"6  c #422B1B",
"7  c #4C2C19",
"8  c #502912",
"9  c #542E16",
"0  c #522E1A",
"q  c #5A3215",
"w  c #55301B",
"e  c #5B321D",
"r  c #683808",
"t  c #6D2E13",
"y  c #60351F",
"u  c #683A1C",
"i  c #421D20",
"p  c #432C24",
"a  c #462F2E",
"s  c #493427",
"d  c #573826",
"f  c #453835",
"g  c #513C3F",
"h  c #6A2D28",
"j  c #633621",
"k  c #643A22",
"l  c #6C3C25",
"z  c #603D2C",
"x  c #713F25",
"c  c #6B441F",
"v  c #4E4037",
"b  c #51433C",
"n  c #5D4438",
"m  c #6A442A",
"M  c #754327",
"N  c #754329",
"B  c #79462B",
"V  c #7D4A2D",
"C  c #7F522F",
"Z  c #644637",
"A  c #7C4E37",
"S  c #7F5233",
"D  c #171A50",
"F  c #1E2247",
"G  c #332D4B",
"H  c #101B66",
"J  c #12266C",
"K  c #323270",
"L  c #513E4D",
"P  c #403A65",
"I  c #3E4370",
"U  c #4B4A47",
"Y  c #524749",
"T  c #56514A",
"R  c #4A4954",
"E  c #535253",
"W  c #595757",
"Q  c #5A5656",
"!  c #5C5D59",
"~  c #674845",
"^  c #685248",
"/  c #7C5A48",
"(  c #665959",
")  c #765C53",
"_  c #61635F",
"`  c #776257",
"'  c #42446B",
"]  c #534467",
"[  c #626562",
"{  c #6B6765",
"}  c #656965",
"|  c #746B69",
" . c #6C6F74",
".. c #68697B",
"X. c #7E6A71",
"o. c #777579",
"O. c #94120E",
"+. c #AC1613",
"@. c #9A2D17",
"#. c #A0331F",
"$. c #A12320",
"%. c #D0342C",
"&. c #824804",
"*. c #8B500D",
"=. c #8B5419",
"-. c #A1641A",
";. c #884C27",
":. c #824D2F",
">. c #875628",
",. c #834F31",
"<. c #855231",
"1. c #8A5533",
"2. c #8D5936",
"3. c #86583B",
"4. c #905C37",
"5. c #9D5A35",
"6. c #935E39",
"7. c #9D652A",
"8. c #96613B",
"9. c #9A653D",
"0. c #9D683F",
"q. c #B1722A",
"w. c #A8633C",
"e. c #8A5A43",
"r. c #976947",
"t. c #98735A",
"y. c #A66747",
"u. c #A36D43",
"i. c #A97247",
"p. c #B4764C",
"a. c #B47B4D",
"s. c #BA7A56",
"d. c #846E65",
"f. c #906F65",
"g. c #97786B",
"h. c #81797A",
"j. c #A87762",
"k. c #AE716E",
"l. c #C3764D",
"z. c #C37B57",
"x. c #BE8353",
"c. c #9F8472",
"v. c #A28067",
"b. c #B88669",
"n. c #A68678",
"m. c #BE8D70",
"M. c #CB904E",
"N. c #C8875A",
"B. c #D1885D",
"V. c #C68766",
"C. c #D68662",
"Z. c #D79668",
"A. c #C99778",
"S. c #DA9B76",
"D. c #E49779",
"F. c #D7A07E",
"G. c #E8A27D",
"H. c #192D81",
"J. c #1B319E",
"K. c #2337B4",
"L. c #394FAD",
"P. c #7D7D89",
"I. c #4247A9",
"U. c #7068BE",
"Y. c #3852D5",
"T. c #6A72DC",
"R. c #415AF7",
"E. c #8C7D8C",
"W. c #8B7CAB",
"Q. c #7D808B",
"!. c #878486",
"~. c #878888",
"^. c #8A8A8C",
"/. c #918A89",
"(. c #8E8E92",
"). c #838398",
"_. c #998994",
"`. c #8F9094",
"'. c #939294",
"]. c #969699",
"[. c #98999C",
"{. c #AF8E8A",
"}. c #8A89A3",
"|. c #A39BA5",
" X c #A7A5A6",
".X c #A8A8A7",
"XX c #AFAFB2",
"oX c #B3B4B6",
"OX c #B9B4BA",
"+X c #D3A183",
"@X c #D1A68C",
"#X c #EDA482",
"$X c #E9AA85",
"%X c #EFB18C",
"&X c #F0B18F",
"*X c #F6B995",
"=X c #F9BF9C",
"-X c #F9C19D",
";X c #C6C3BC",
":X c #EEC9AF",
">X c #FBC5A1",
",X c #FAC8A9",
"<X c #FACAAB",
"1X c #FCD6BE",
"2X c #8F99CC",
"3X c #BEBFC4",
"4X c #BFC0C5",
"5X c #C1C2C7",
"6X c #CACACD",
"7X c #D3D0C8",
"8X c #D6D5D9",
"9X c #EAD5C9",
"0X c #F9D8C3",
"qX c #FCDDC9",
"wX c #DEDEE1",
"eX c #EAE0E4",
"rX c #ECE9F4",
"tX c #E4F2F4",
"yX c #F2FAFB",
/* pixels */
"} } } } } } } } } } } } } } } } } } }  .} } } [ [ [ [ [ [ [ [ } [ [ } [ [ } } } } } } }  . . .} ",
"5XoXoXoXoXoX.X.X.X.X.X[.oXoX.XoXoX.XoX[.[.oXoXo.4X.X.X[.oX.XoX} 5XoXoX4X4X4X5XoX.XoXoXoX[..X5X} ",
"5X[.~.[.`.`.`.`.`.[.`.`.`.`.[.`.`.`.[.`.[.[..X .5X`.`.`.[.[.oX} wX[.[.[.[.`.[.`.`.`.`.[.`.[.oX} ",
"wX`.~.Q.~.[.Q.[.[.[.`.`.`.~.~.`.`.`.[.`.[.[..X .5X`.`.`.`.`.oX} wX`.[.`.`.`.`.[.[.[.`.`.'.[..X} ",
"wX~.`.[.Q.~.~.`.~.`.~.~.[.[.~.`.[.~.`.[.`.[..X} 7X[.`.~.[.~.oX} wX[.`.[.`.`.[.[.`.[.`.`.[.[.oX} ",
"wX`.~.~.[.~.~.`.`.`.[.[.`.`.`.`.[.[.[.[.~.`..X} wX[.[.`.~.[..X} wX[.`.`.[.`.~.`.`.[.[.[.[.[.[.} ",
"wX`.`.~..X`.~.~.[.[.[.[.[.`.[.[.[.(.[.[.`.!..X{ wX[.[.`.`.[.oX} wX[.`.`.[.`.`.[.[.`.~.`.[.[.[.} ",
"wXwXwXwXwXwXwX5X5XwX5XoX5XwXwX5X5X X`.!.'.'.'.Q  X X].4XwXwX7X} wX[.`.[.[.~.[.`.~.[.[.`.~.[..X} ",
"} } } } } } } } } } } } { [ _ b g s 0 w e 0 e w w 5 7 v b _ } } wX'.`.`.~.Q.[.[.[.[.[.[.`.[.[.} ",
"5XoX[.oX[.oXoX} 5XoXoX4XXX!.n k u j j l N N l x M M k 9 w d { _ 8X`.Q.[.`.[.`.`.[.`.`.[.[.[.oX} ",
"5X.X[.[.[.`.oX} wX[.[.o.d 0 l M B :.B :.B N x :.<.V :.,.B e 9 g 8X~.`.~.~.`.~.`.`.~.`.[.[.[..X} ",
"5X.X`.[.`.`.oX} wX'.h.Z y l B 1.<.:.1.,.B ,.:.2.4.4.,.4.8.B e 4 ~.^.~.~.`.[.~.~.`.`.`.`.`.`.oX} ",
"oX[.[.[.[.[.oX} wX^.z j j :.r.1.4.8.1.B 1.:.4.8.,.9.9.,.8.9.M 9 4 ! ~.~.`.`.`.~.~.`.`.`.[.`..X} ",
"oX[.`.~.[.[.[.} 8X| k y x 6.<.2.w.x.1.8.6.:.9.a.0.,.i.0.<.i.8.k 5 f o.`.~.Q.~.`.`.~.~.`.[.[..X} ",
"5X.X[.`.[.[.oX} 8XZ k y 1.1.1.u.a.x.V a.a.V 0.M.N.8.6.N.6.4.i.l e $ [ [.[.[.~.[.[.`.`.`.`.[.oX} ",
"5X.X[.`.`.`.oX} /.l y x <.N 0.4.a.w.m a.M.m i.Z.Z.x.<.a.a.<.8.M k 7 f 5XtXwXwXwXwXtXwXwXwXwXwX} ",
"4X[.`.`.`.`.oX[ ) x d x N k 2.,.r.4.l 8.a.m 2.x.x.x.V 1.i.2.<.B k w # ! } } } } } } }  .} } } } ",
"5X[.`.[.[.[. XT e x e x l 0 V x 2.V 9 :.w.l x 4.i.i.M l 9.V B N u w 3 Q XXoX.XoXoX.XoX[.[.oXoX} ",
"5X.X[.[.[.[..XT 0 j 0 x 0 0 x 0 V l 5 l <.e y :.2.9.N y V l j l e w 4 f ^.`.[.`.`.`.[.`.[.[..X} ",
"oX`.[.[.`.`..XU 4 0 0 l 3 $ j 6 l e # e x 0 7 M :.<.m w k j j j e 1 4 - ^.~.~.`.`.`.[.`.[.[..X} ",
"5X.X[.[.`.[.oXU 3 7 3 e 7 d 7 $ e w # 7 u 7 4 m x B m w w e 9 d 7 9 4 = '.[.~.`.[.~.`.[.`.[..X} ",
"5X.X[.[.[.`.oXU $ $ @ 4 m e.3 1.0 w ,.$ w 7 + w l l u 5 3 4 3 5 7 0 4 f (.`.`.`.[.[.[.[.~.`..X} ",
"5X.X~.[.[.[.oX! { 3 $ $ d y.d y.$ d b.w 3 4 3 4 0 l y $ # e q @ 7 k 5 % o.`.[.[.[.`.[.[.`.~..X} ",
"5X[.~.[.(.'.oX} ].3 3 % b.#X@Xm.$ 7 p.w.d o 3.m.w d 7 X ` @XV.y 0 M 7 4  .wXwX5X5X5X5XoX5X5X5X .",
"5X~.~.`.`.~.oX} [ f % 6 $X%X>X=Xj.z.D.Z.i./ s.#XV.7 $ @ 3.z.z.l.u <.w 4 - } } } } } } } } } } } ",
"5X[.`.~.`.`..X} 5X.X{ 3 e.#X=X=X=X#XG.,X0X0X1X>XA.k e 0 q z.C.l.c 4.k 4 } .XoX} 5XoX[.oX[.oXoX} ",
"5X[.~.`.~.`.oX} 5X[.d.y.m +X1X0X,X*X#X&XV.u.r.V.V.x B d u l.#Xl.M u.M 5 Q [.oX} 5X.X[.[.[.`.oX} ",
"5X.X`.~.`.`..X} wX_.f.z.*X9X0XqX0X,Xz.;.3   >.S.A.e N 4 S #XD.t e u.V 4 T '.oX} 5X.X`.[.`.`.oX} ",
"wX[.`.[.`.`.[.} wX!.g.B.<X:X<X0XqX0X+Xf./ ` v.+XA.M k w t.*Xp.1 w i.B 4 Q ~.oX} oX[.[.[.[.[.oX} ",
"wXoX`.`.~.`.oX} wX`.| 5.*X-X=X,X,X,X,X,X-XqXqXqX+XC <.k V 5.$ O 7 u.B 4 Y [..X} oX[.`.~.[.[.[.} ",
"wXoX~.Q.~.`.oX} wX`.| u V.%X=X%XG.$X-X=X-X-X-X-XA.k m 7 o X X X 4 9.d 4 Q [.oX} 5X.X[.`.[.[.oX} ",
"wXwXwX5XwX5X5X} wXwX X$ 8 w.G.#XZ.C.S.-X-X-X-X-XF.M -.2 @ X + @ 4 :.y 4 o.wX7X} 5X.X[.`.`.`.oX[ ",
"o.} } } } } } }  . .W $ + 1 M z.$X%X#X=X=X=X=X*XV.q =.q @ X + # 3 l 9 4 v ..} } 3X[.`.`.`.`.oX} ",
"5XoXoX5X5X5X5XoX.XoXXX{ f b o 8 t ;.y.s.z.z.N.w.;.B :.0 X + 4 # 3 y 9 4 Q .X5X} 4X[.`.[.[.[..X} ",
"wX[.[.[.[.`.[.`.`.`.`.o.Q o.1 : < O.$.#.@.< , #.t d 9.k . . 3 @ @ 9 0 p o.[.oX} 4X.X[.[.[.[..X} ",
"wX`.[.`.`.`.`.[.[.[.`.`.o.| / ; , O.+.$.$.+.%.%.+.t <.3 > ; . + + 5 e f ^.[..X} oX`.[.[.`.`..X} ",
"wX[.`.[.`.`.[.[.`.[.`.`.!.k =.: i , O.O.%.%.+.< < O.; K R.K.H & $ 7 7 E ].[.oX} 5X.X[.[.`.[.oX} ",
"wX[.`.`.[.`.~.`.`.[.[.[.'.) 2 6 E.{.k.k.k.{.k.h , . P R.T.W.Z 1 $ e % ~.[.[.[.} 5X.X[.[.[.`.oX} ",
"wX[.`.`.[.`.`.[.[.`.~.'.[.'.^ G |.rX9X:XrXrX2XK f d / n.s.-.r 1 7 6 ( ^.[.[.[.} 5X.X~.[.[.[.oX} ",
"wX[.`.[.[.~.[.`.~.[.[.`.!.[.'.A ^ ).n.r.|.}.J.J F d =.q.7.Z.2.p % { [.(.!.[..X} 4X[.~.[.`.`.oX} ",
"wX`.`.`.~.Q.[.[.[.[.[.[.`./.Y G a f Z d b Y f G L p & z G.+XY K.K '.[.[.`.[.[.} 5X^.~.`.`.~.oX} ",
"wX`.Q.[.`.[.(.`.[.`.`.[.^.r.u F * m r.,.m N z d d - F @ ( X.d e.t.d.(.[.[.[.oX} 4X[.`.~.`.`..X} ",
"wX~.`.~.~.`.~.`.`.~.`.^.^ =.r m !.OXn.f = Z ` ) h.B a D * 5 &.-.-.q.d.].[.[..X} 5X[.^.`.~.`.oX} ",
"yX`.~.~.`.[.~.~.`.`.c.S ~ b >.Z b.A.] J J.d.9XeXj.L H.K % 1 r =.M.q.*.` `.`.oX} 5X.X`.~.`.`..X} ",
"yX[.~.~.`.`.`.~.~.~.' K =.r j.k.Y K Y.J Y.Y.E.x.I.J.J k.A + r *.>.] 7.q.X.`..X} wX[.`.[.`.`.[.} ",
"yXQ.~.`.~.Q.~.`.(.P.K H D $ s n.{.' J J L.Y.I.T.T.E.#Xk.- % 8 d J >.M.*.* .. X[ wXoX`.'.~.`.oX} ",
"yX[.~.[.[.[.~.[.[.'.!..... .E * - * * U P...o.f.c.g.t.f = Z % G K.p r G J.D [.} wXoX^.P.~.'.oX} ",
"yXwXwXwXtXwXwXwXwXtXwXwXwXwX6X! 3X3X3X;X7X3XoXU E E E W Q ^ ~.].R Q.'.R I ].wX} wXwXwX4XwX5X4X} "
};
