/* XPM */
static char *xpm_[] = {
/* columns rows colors chars-per-pixel */
"48 48 199 2 ",
"   c #291A12",
".  c #341F10",
"X  c #35200F",
"o  c #362112",
"O  c #3C2413",
"+  c #3D2818",
"@  c #0F0E36",
"#  c #331433",
"$  c #3A312C",
"%  c #4D0404",
"&  c #580708",
"*  c #58190C",
"=  c #4C1911",
"-  c #630506",
";  c #690A0A",
":  c #750B0A",
">  c #6E100E",
",  c #621811",
"<  c #5F350B",
"1  c #422615",
"2  c #482616",
"3  c #452915",
"4  c #4A2B16",
"5  c #4C2C19",
"6  c #572C16",
"7  c #522E1A",
"8  c #583214",
"9  c #56301C",
"0  c #5C331D",
"q  c #6B2E10",
"w  c #6C3312",
"e  c #61351E",
"r  c #421227",
"t  c #452923",
"y  c #522D20",
"u  c #483123",
"i  c #583927",
"p  c #453B35",
"a  c #543A3A",
"s  c #623621",
"d  c #653922",
"f  c #6B3D24",
"g  c #713F27",
"h  c #7C3A24",
"j  c #7A470E",
"k  c #50433C",
"l  c #6B4427",
"z  c #724127",
"x  c #7D4423",
"c  c #754329",
"v  c #79462A",
"b  c #7C4A2D",
"n  c #6E4C38",
"m  c #755038",
"M  c #0B1346",
"N  c #0C1C5B",
"B  c #101A56",
"V  c #182255",
"C  c #383256",
"Z  c #0E1865",
"A  c #101A64",
"S  c #251E61",
"D  c #18266C",
"F  c #142777",
"G  c #272B6E",
"H  c #4C3A4A",
"J  c #584B49",
"K  c #58514D",
"L  c #4B4651",
"P  c #5B5856",
"I  c #72554E",
"U  c #655757",
"Y  c #756256",
"T  c #776356",
"R  c #515364",
"E  c #4C527C",
"W  c #675C72",
"Q  c #626562",
"!  c #6B6564",
"~  c #656965",
"^  c #6D6A6C",
"/  c #766567",
"(  c #716C6D",
")  c #6C6F74",
"_  c #747273",
"`  c #79767A",
"'  c #850B0B",
"]  c #8D0B0B",
"[  c #9D0E0D",
"{  c #95120F",
"}  c #981410",
"|  c #A30E0E",
" . c #AB1813",
".. c #B71C16",
"X. c #BB2118",
"o. c #832725",
"O. c #873A3B",
"+. c #C32219",
"@. c #CB281D",
"#. c #D32B1E",
"$. c #965608",
"%. c #8D5012",
"&. c #854129",
"*. c #824D2E",
"=. c #8F542B",
"-. c #824F31",
";. c #855131",
":. c #895433",
">. c #8D5A36",
",. c #89533C",
"<. c #9F5532",
"1. c #915D37",
"2. c #935E39",
"3. c #A85E37",
"4. c #9A643D",
"5. c #9A653E",
"6. c #B4732B",
"7. c #875D46",
"8. c #996649",
"9. c #936950",
"0. c #936953",
"q. c #A36C42",
"w. c #A36B4F",
"e. c #A97347",
"r. c #B9774B",
"t. c #AF7657",
"y. c #AD7A5D",
"u. c #B87C55",
"i. c #997A6E",
"p. c #83797C",
"a. c #A67C63",
"s. c #C17950",
"d. c #C77F60",
"f. c #C08137",
"g. c #BC8252",
"h. c #B18A6D",
"j. c #D08F48",
"k. c #C08654",
"l. c #C78759",
"z. c #D88A66",
"x. c #D79766",
"c. c #CE9070",
"v. c #E99A79",
"b. c #DDAA72",
"n. c #152C86",
"m. c #162E94",
"M. c #163098",
"N. c #27318B",
"B. c #1934B1",
"V. c #3245AF",
"C. c #5C61A1",
"Z. c #1E3ACB",
"A. c #223FE6",
"S. c #304CD2",
"D. c #3451EE",
"F. c #4960E0",
"G. c #817B92",
"H. c #7F8083",
"J. c #7D808B",
"K. c #838484",
"L. c #87878A",
"P. c #878888",
"I. c #8A898B",
"U. c #928A8A",
"Y. c #8D8E91",
"T. c #8F9094",
"R. c #95969A",
"E. c #98999C",
"W. c #B79794",
"Q. c #8888AA",
"!. c #A5A5A5",
"~. c #A8A8A7",
"^. c #B0ADB0",
"/. c #B3B4B6",
"(. c #B6B6BA",
"). c #CC9D88",
"_. c #D9B095",
"`. c #E8A784",
"'. c #F0AF8E",
"]. c #F6BA97",
"[. c #C8B2AA",
"{. c #F0BFA2",
"}. c #F8C19B",
"|. c #FAC6A7",
" X c #F5CBAF",
".X c #E9CDB9",
"XX c #FBD4BB",
"oX c #BFBFC2",
"OX c #BFC0C5",
"+X c #C1C2C7",
"@X c #D3D0C8",
"#X c #CFCFD2",
"$X c #D0D3D6",
"%X c #FCDDC8",
"&X c #DEDEE1",
"*X c #E5EDEF",
"=X c #EEEAF4",
"-X c #E6F3F5",
";X c #F2FAFB",
/* pixels */
"~ ~ ~ ~ ~ ~ ~ ~ ~ ~ ~ ~ ~ ~ ~ ~ ~ ~ ~ ) ~ ~ ~ Q Q Q Q Q Q Q Q ~ Q Q ~ Q Q Q ~ ~ ~ ~ ~ ~ ) ) ) ~ ",
"+X/././././.~.~.~.~.~.E././.~././.~./.E.E././.` OX~.~.E./.~./.~ OX/./.OXOXOXOX/.~./././.E.~.OX~ ",
"+XE.P.E.T.T.T.T.T.E.T.T.T.T.E.T.T.T.E.T.E.E.~.) OXT.T.T.E.E./.~ &XE.E.E.E.T.E.T.T.T.R.R.T.E./.~ ",
"&XT.P.J.P.E.J.E.E.E.T.T.T.P.P.T.T.T.E.T.E.E.~.) +XT.T.T.T.T./.~ &XT.E.T.R.T.T.E.E.E.T.T.T.E.~.~ ",
"&XP.T.E.J.P.P.T.P.T.P.P.E.E.P.T.E.P.T.E.T.E.~.~ @XE.T.P.E.P./.~ &XE.T.E.T.T.E.E.T.E.T.T.E.E./.~ ",
"&XT.P.P.E.P.P.T.T.T.E.E.T.T.T.T.E.E.E.E.P.T.~.~ &XE.E.T.P.E.~.~ &XE.T.T.E.T.P.T.T.E.E.E.E.E.E.~ ",
"&XT.T.P.~.T.P.P.E.E.E.E.E.T.E.E.E.T.E.E.T.P.~.~ &XE.E.T.T.E./.~ &XE.T.T.E.T.T.E.E.T.P.T.E.E.E.~ ",
"&X&X&X&X&X&X&X+X+X&X+X/.+X&X&X+X+X+X+X/.+X+X+X) &X&X+XOX&X&X@X~ &XE.T.E.E.P.E.T.P.E.E.T.P.E.~.~ ",
"~ ~ ~ ~ ~ ~ ~ ~ ~ ~ ~ ~ ~ ~ ~ ~ ~ ~ ~ ~ ) ) ~ ~ ~ ~ ~ ~ ~ ~ ~ ~ &XT.T.T.P.J.E.E.E.E.E.E.T.E.E.~ ",
"+X/.E./.E././.~ +X/./.+X+X+X+X/.~./././.E.~.+X~ +X~.~.E./.~./.~ &XT.J.E.T.E.T.T.E.T.T.E.E.E./.~ ",
"+X~.E.E.E.T./.~ &XE.E.E.E.T.E.T.T.T.T.E.T.E./.~ +XT.T.T.E.E./.~ &XP.T.P.P.T.P.T.T.P.T.E.E.E.~.~ ",
"+X~.T.E.T.T./.~ &XT.E.T.T.T.T.E.E.E.T.T.T.E.~.~ +XT.T.T.T.T./.~ ;XT.P.P.T.E.P.P.T.T.T.T.T.T./.~ ",
"/.E.E.E.E.E./.~ &XE.T.E.T.T.E.E.T.E.T.T.E.E./.~ @XE.T.P.E.P./.~ ;XE.J.P.U.E.T.P.P.T.T.T.E.T.~.~ ",
"/.E.T.P.E.E.E.~ &XE.T.T.E.T.P.T.T.E.E.E.E.E.E.~ &XE.E.T.P.E.~.~ ;XJ.J.R.U.C.P.T.T.P.P.T.E.E.~.~ ",
"+X~.E.T.E.E./.~ &XE.T.T.E.T.T.E.E.T.P.T.E.E.E.~ &XE.E.T.T.E./.~ ;XE.h.E.E.E.P.E.E.T.T.T.T.E./.~ ",
"+X~.E.T.T.T./.~ &XE.T.E.E.P.E.T.P.E.E.T.P.E.~.~ &X&XOX+X&X&X@X~ -X&X&X&X-X&X&X&X&X-X&X&X&X&X&X~ ",
"+XE.T.T.T.T./.~ &XU.T.T.P.K.E.E.E.E.E.E.T.E.E.~ ~ ~ ~ ~ ~ ~ ~ ~ ~ ~ ~ ~ ~ ~ ~ ~ ~ ~ ~ ) ~ ~ ~ ~ ",
"+XE.T.E.E.E.~.~ &XE.C.E.T.E.T.T.E.T.T.E.E.E./.~ +X/././././.~.~.~.~.~.E././.~././.~./.E.E././.~ ",
"+X~.E.E.E.E.~.~ &Xh.T.P.P.T.P.T.T.P.T.E.E.E.~.~ +XE.I.E.T.T.T.T.T.E.T.T.T.T.E.T.T.T.E.T.E.E.~.~ ",
"/.T.E.E.T.T.~.~ ;XT.P.P._ _ ! ^ ( ( ( ( / ` /.~ &XT.P.J.P.E.J.E.E.E.T.T.T.P.P.T.T.T.E.T.E.E.~.~ ",
"+X~.E.E.T.E./.~ -Xh.L K y 9 8 y 0 9 9 7 4 i ! k @XK.T.E.J.P.P.T.P.T.P.P.E.E.P.T.E.P.T.E.T.E.~.~ ",
"+X~.E.E.E.T.^.P T.k i 0 e d z c z f c c g i 7 9 J ! K.P.E.P.P.T.T.T.E.E.T.T.T.T.E.E.E.E.P.T.~.~ ",
"+X~.I.E.E.R.p.7 0 l v b b v *.v f z ;.;.v -.;.g e 6 Q K.~.T.P.P.E.E.E.E.E.T.E.E.E.T.E.E.T.P.~.~ ",
"+XE.P.E.Y.^ d 0 z b :.;.;.:.*.b ;.;.2.1.1.-.2.>.g 9 u R.&X&X&X+X+X&X+X/.+X&X&X+X+X+X+X/.+X+X+X) ",
"+XP.h.J.) d i l ;.4.;.>.4.;.b ;.;.4.4.*.4.2.;.q.2.f 7 O K ~ ~ ~ ~ ~ ~ ~ ~ ~ ~ ~ ~ ~ ~ ~ ~ ~ ~ ~ ",
"+XE.T.C.~ d 0 x 4.b 4.e.e.;.4.>.*.4.e.4.:.e.4.:.e.:.0 3 K ~./.~ +X~.~.E./.~./.~ +X/.E./.E././.~ ",
"+XE.P.h.e e l >.;.4.q.g.e.;.g.q.x g.l.k.:.q.k.:.4.4.s 7 X H.~.~ +XT.T.T.E.E./.~ +X~.E.E.E.T./.~ ",
"+X~.I.k l 0 b b v 4.4.g.>.b l.g.e g.x.x.e.:.k.q.>.1.c 0 3 L !.~ +XT.T.T.T.T./.~ +X~.T.E.T.T./.~ ",
"&XR.` d e e c z f 2.;.q.b z 8.e.z 4.g.k.r.v 4.e.;.;.c i 7 p !.Q @XE.T.P.E.L./.~ /.E.E.E.E.E./.~ ",
"&X/.U e z 0 c e 0 b z 4.l e >.4.e v 4.e.q.f f 4.c v z s 7 + _ Q &XE.E.T.L.E.~.~ /.E.T.L.E.E.E.! ",
"&X/.K e 0 9 z 4 9 f 0 ;.0 7 v *.6 l ;.2.4.d d *.e g d 0 4 3 Q ~ &XE.E.T.T.E./.~ +X~.E.T.E.E./.! ",
"&X&XH.7 9 0 f X 3 0 4 f 4 O e z 4 0 v b ;.s 9 f e e s 8 3 3 ( ( &X&X+X+X&X&X@X~ +X~.E.T.T.Y./.! ",
"` ~ p 3 3 3 7 e 7 3 O f 1 O 7 d 1 5 v f ;.s 5 0 0 9 0 5 7 5 p Q ~ ~ ~ ~ ) ) ~ ~ +XE.T.T.T.T./.~ ",
"OX/.~ 3 . O 3 7.l d v 7 f l O 0 1 o 0 d z 0 1 3 O 4 4 5 7 9 1 I.~./././.E.~.+X~ +XE.T.E.E.E.~.~ ",
"&XE.` $ 1 O o 0.i.n 7.O b t.1 3 o 4 3 8 f 0 o O 8 7 X 0 s e y K I.T.T.E.T.E.(.~ OX~.E.E.E.E.~.~ ",
"&XT.T.k 3 O k c.].b.0.. m `.h.3 X y.a.7 e 3   i._.t.4 d -.s 0 7 J ^ Y.T.T.E.~.~ /.T.E.E.T.T.~.~ ",
"&XE.T.P.k O n `.].].`.0.l.s.r.8.7.l.}.0.3 O O w.s.l.<.c q.>.v d 5 + W C.W.E.(.~ +X~.E.E.T.E./.~ ",
"&XE.T.T.J.k i z.].|.].].v.'. X%X%XXX|.y.0 0 2 &.z.z.3.0 x &.h q , * = y ~ h.E.~ +X~.E.E.E.T./.~ ",
"&XE.T.T.E.T e b ].XXXX|.v.d._.@X.X X'.y.c v 5 *.z.v.<.> - - ] } ..X. .{ , n I.~ +X~.P.E.E.E./.~ ",
"&XE.T.E.E.9.z.}.%X%X%X%Xu.f     7 x s.8.0 z 1 w.z.O.- - - : { {  .#.#.#.+. .O.U +XE.P.E.T.T./.~ ",
"&XY.Y.I.` ,.v.XX XXX(.C.h.6.3.7.T h.c.8.l i s O., - ; ] ..X.#.#.#.#.#.#.#.#...o.^.P.L.Y.T.I./.~ ",
"&XY.G.R.( h s.|.].).C.D.C.6.j.].%X%XXXg.;.* , : ; ] ] | X.@.@.@.#.#.#.#.#.+... .I U.Y.P.T.T.~.~ ",
"&XK.C.R G G m x.W.V.S.D.C.f.b.6.`.|.].Y # # G V.N.r & & ; : : ' | ..+.@.#.+.| | ] O.p.U.I.T./.~ ",
"*XE n.Z.B.m.D i C B.N.F.F.n 6.j =.w.W D k U Q.F.D.B.S # % % % & - - : ] ..+.+.| | | O.! L.Y.~.~ ",
"H.M.Z.D.M.F n.V M N B.D.V.V.s $.$.< 7 2.j k.6.h.a.,.a L 7 7 k W.8.C r & - : | [ [ ' ' : K I.E.~ ",
"Q.F m.m.F M.n.N M @ A n.D.D.a $.$.H l ;.I {.k.$.6.=.G.P u l Y =X@XI n.F r ; & & - - - ; 2 P /.~ ",
"*XR N N B N M R _ ( R M m.N.+ < j i I ` ( l.t.=.%.h.h.l l m Y [.p.S.D.S.R 7.1 = = q w 9 u _ /.~ ",
"-X#XoXoX#X+X(.$X&X-X#X/.L @   p Y.o t L J w 2 * n T n i u 9 i l @ A A Z @ i $ u 5 8 < G.+XOX+X~ "
};
