/* XPM */
static char *xpm_[] = {
/* columns rows colors chars-per-pixel */
"48 48 223 2 ",
"   c #1B1410",
".  c #370F0F",
"X  c #25190F",
"o  c #2C1B0E",
"O  c #39180C",
"+  c #261912",
"@  c #2B1C10",
"#  c #331F13",
"$  c #362111",
"%  c #3D2513",
"&  c #3C281A",
"*  c #271823",
"=  c #2B2829",
"-  c #3A2D2D",
";  c #3C3739",
":  c #480907",
">  c #491409",
",  c #440A19",
"<  c #6C0F07",
"1  c #7B0909",
"2  c #48270A",
"3  c #5E3407",
"4  c #422614",
"5  c #452915",
"6  c #4B2B16",
"7  c #442B1B",
"8  c #4C2C19",
"9  c #502912",
"0  c #562F16",
"q  c #522E1A",
"w  c #5A3215",
"e  c #55301B",
"r  c #5B321D",
"t  c #683808",
"y  c #6D2E13",
"u  c #60351F",
"i  c #683A1C",
"p  c #421D20",
"a  c #432C24",
"s  c #462F2E",
"d  c #493427",
"f  c #563726",
"g  c #453835",
"h  c #513C3F",
"j  c #6A2D28",
"k  c #633621",
"l  c #643A22",
"z  c #6C3D25",
"x  c #603E2D",
"c  c #713F25",
"v  c #6B441F",
"b  c #4E4037",
"n  c #51433C",
"m  c #5D4438",
"M  c #6B442A",
"N  c #754327",
"B  c #754329",
"V  c #79462B",
"C  c #7D4A2D",
"Z  c #7F522F",
"A  c #644536",
"S  c #7C4E37",
"D  c #7F5233",
"F  c #171A50",
"G  c #1E2247",
"H  c #332D4B",
"J  c #101B66",
"K  c #12266C",
"L  c #323270",
"P  c #513E4D",
"I  c #403A65",
"U  c #4B4A47",
"Y  c #524749",
"T  c #56514A",
"R  c #4A4954",
"E  c #535253",
"W  c #595757",
"Q  c #5A5656",
"!  c #5C5D59",
"~  c #674845",
"^  c #685248",
"/  c #7C5946",
"(  c #665959",
")  c #765C53",
"_  c #61635F",
"`  c #766257",
"'  c #42446B",
"]  c #534467",
"[  c #626562",
"{  c #6B6765",
"}  c #656965",
"|  c #766B68",
" . c #6C6F74",
".. c #68697B",
"X. c #7E6A71",
"o. c #777579",
"O. c #94120E",
"+. c #AC1613",
"@. c #A0331F",
"#. c #A12320",
"$. c #D0342C",
"%. c #824804",
"&. c #8B500D",
"*. c #8B5419",
"=. c #A1641A",
"-. c #894C25",
";. c #824D2F",
":. c #9A552D",
">. c #834F31",
",. c #855231",
"<. c #8A5533",
"1. c #8D5936",
"2. c #86573B",
"3. c #905C37",
"4. c #9D5A35",
"5. c #935E39",
"6. c #9D652A",
"7. c #96613B",
"8. c #9A653D",
"9. c #9D683F",
"0. c #B1722A",
"q. c #AA633B",
"w. c #8C5E42",
"e. c #92694D",
"r. c #997259",
"t. c #A36D43",
"y. c #A76D4A",
"u. c #B36F4E",
"i. c #A97246",
"p. c #B8764F",
"a. c #B47B4D",
"s. c #BA7A56",
"d. c #866E65",
"f. c #906F65",
"g. c #97786B",
"h. c #81797A",
"j. c #A87762",
"k. c #AE716E",
"l. c #C3764D",
"z. c #C47C57",
"x. c #CC5C7C",
"c. c #C9737D",
"v. c #AF815E",
"b. c #BD8355",
"n. c #9F8472",
"m. c #B78568",
"M. c #B18A6F",
"N. c #A68678",
"B. c #CB904E",
"V. c #C68959",
"C. c #D1895D",
"Z. c #C38A69",
"A. c #D68964",
"S. c #D59865",
"D. c #C89676",
"F. c #D39474",
"G. c #E49879",
"H. c #D7A07E",
"J. c #E3A07A",
"K. c #192D81",
"L. c #1B319E",
"P. c #2337B4",
"I. c #394FAD",
"U. c #7D7D89",
"Y. c #4247A9",
"T. c #7068BE",
"R. c #1F3BC7",
"E. c #3852D5",
"W. c #6A72DC",
"Q. c #415AF7",
"!. c #8C7D8C",
"~. c #8B7CAB",
"^. c #7D808B",
"/. c #878486",
"(. c #878888",
"). c #8A8A8C",
"_. c #918A89",
"`. c #8E8E92",
"'. c #838398",
"]. c #998994",
"[. c #8F9094",
"{. c #939294",
"}. c #969699",
"|. c #98999C",
" X c #AF8E8A",
".X c #A39BA5",
"XX c #A7A5A6",
"oX c #A8A8A7",
"OX c #AFAFB2",
"+X c #B3B4B6",
"@X c #B9B4BA",
"#X c #CB9E82",
"$X c #E39486",
"%X c #D4A78B",
"&X c #E9A684",
"*X c #F3AD8B",
"=X c #EDA992",
"-X c #EDB493",
";X c #F3B593",
":X c #F7BC98",
">X c #FABF9C",
",X c #F9C19D",
"<X c #C6C3BC",
"1X c #FBC5A2",
"2X c #F9C8AB",
"3X c #FACAAA",
"4X c #EDCBB5",
"5X c #FBD5BC",
"6X c #8F99CC",
"7X c #BEBFC4",
"8X c #BFC0C5",
"9X c #C1C2C7",
"0X c #CACACD",
"qX c #D3D0C8",
"wX c #D6D5D9",
"eX c #EAD5C9",
"rX c #FADAC4",
"tX c #FCDDC9",
"yX c #DEDEE1",
"uX c #EAE0E4",
"iX c #ECE9F4",
"pX c #E4F2F4",
"aX c #F2FAFB",
/* pixels */
"} } } } } } } } } } } } } } } } } } }  .} } } [ [ [ [ [ [ [ [ [ } [ } } [ [ } } } } } }  . . .} ",
"9X+X+X+X+X+XoXoXoXoXoX|.+X+XoX+X+XoX+X|.|.+X+Xo.9XoXoX|.+XoX+X} 9X+XOX8X8X8X9X+XoX+X+X+X|.oX8X} ",
"9X|.(.|.[.[.[.[.[.|.[.[.[.[.|.[.[.[.|.[.|.|.oX .9X[.[.[.|.|.+X} yX|.|.|.|.[.|.[.[.[.[.|.[.|.+X} ",
"yX[.(.^.(.|.^.|.|.|.[.[.[.(.(.[.[.[.|.[.|.|.oX .9X[.[.[.[.[.+X} yX[.|.[.[.[.[.|.|.|.[.[.[.|.oX} ",
"yX(.[.|.^.(.(.[.(.[.(.(.|.|.(.{.|.(.{.|.[.|.oX} qX|.[.(.|.(.+X} yX|.[.|.[.[.|.|.[.|.[.[.|.|.+X} ",
"yX[.(.(.|.(.(.[.[.[.|.|.[.[.[.{.|.|.|.|.(.[.oX} yX|.|.[.(.|.oX} yX|.[.[.|.[.(.[.[.|.|.|.|.|.|.} ",
"yX[.[.(.oX[.(.(.|.|.|.|.|.[.|.|.|.`.|.|.[./.oX} yX|.|.[.[.|.+X} yX|.[.[.|.[.[.|.|.[.(.[.|.|.|.} ",
"yXyXyXyXyXyXyX9X9XyX9X+X9XyXwX9X9XXX`./.{.{.{.Q XXXX}.8XyXyXqX} yX|.[.|.|.(.|.[.).|.|.[.(.|.oX} ",
"} } } } } } } } } } } } { } _ Y h d e 0 e e e q e 6 8 b n _ } } yX[.[.[.).^.|.|.|.|.|.|.[.|.|.} ",
"9X+X|.+X|.+X+X} 9X+X+X8XOX/.m k i k k z B N z N N N k e e f { _ wX[.^.|.[.|.[.[.|.[.[.|.|.|.+X} ",
"9XoX|.|.|.[.+X} yX|.|.o.f e l B V ;.B ;.;.c N C ,.;.;.;.V r 0 h wX(.[.(.(.[.(.[.[.).[.|.|.|.oX} ",
"9XoX[.|.[.[.+X} yX{.h.A k l C <.,.;.<.>.C ;.>.1.3.3.;.3.7.V w 5 ).).(.(.[.|.(.(.[.[.[.[.[.[.+X} ",
"+X|.|.|.|.|.+X} yX).x z u ;.9.<.1.8.1.V ,.;.3.7.;.8.9.;.8.9.B e 5 ! (.(.[.[.[.(.(.[.[.[.|.[.oX} ",
"+X|.[.(.|.|.|.} wX| k u c 3.,.1.t.p.1.5.7.;.8.a.9.,.i.9.>.t.7.l 6 g o.[.(.^.(.[.[.(.(.[.|.|.oX} ",
"9XoX|.[.|.|.+X} wXm z u <.,.<.t.a.b.;.a.b.B t.B.V.5.5.V.5.3.t.z e % _ |.|.|.(.|.|.[.[.[.[.|.+X} ",
"9XoX|.[.[.[.+X} _.z u c ,.B t.1.a.q.z a.C.z t.S.S.b.,.a.a.,.8.B l 6 b 9XpXyXyXyXyXpXyXyXyXyXyX} ",
"8X|.[.[.[.[.+X! ) z f c B k 1.>.t.1.l 7.a.M <.b.b.b.Z <.i.<.<.V k r $ ! } } } } } } }  .} } } } ",
"8X|.[.|.|.|.oXT r c r c z q C c <.C e >.q.z N 5.i.i.B i 8.C V B k e 4 Q OX+XoX+X+XoX+X|.|.+X+X} ",
"9XoX|.|.|.|.oXT r k q c q q c e C l 6 z ,.r f C <.9.B u ;.z k l r e 5 d ).[.|.[.[.[.|.[.|.|.oX} ",
"+X}.|.|.`.{.oXU 7 q 0 z 4 % u 6 z r $ r N q q B C ,.M e k l k l w 5 5 ; ).).(.[.[.[.|.[.|.|.oX} ",
"8XoX|.|.[.|.+XT 4 8 % e q f 6 # l 8 $ 9 k 8 4 B c C N q q f 0 r q q 5 - }.|.(.[.|.(.[.|.[.|.oX} ",
"8XoX|.|.|.[.+XU % 4 # 8 x w.5 <.8 w ,.$ e q @ e z l k 8 4 5 4 8 8 q 5 g ).[.[.`.|.|.|.|.).[.oX} ",
"8XoX).|.|.|.+X! { 4 O % M m.A j.& f Z.0 5 5 4 6 q l i % # e 0 O 8 k 5 a o.[.|.|.|.[.|.|.[.).oX} ",
"8X|.(.|.`.{.+X} }.4 4 & Z.*X%XM.& 8 p.:.5 o 2.Z.f k 6 o ) %XD.r q N 6 5  .yXyX9X8X9X9X+X8X8X8X .",
"8X).(.[.[.(.+X} } g 5 7 &X*X1X>Xj.s.G.A.t./ b.;XM.q % O 2.z.z.l.i -.w 4 g } } } } } } } } } } } ",
"8X|.[.(.[.[.oX} 9XoX{ + u.*X>X,X1X*X&X2XrXtX5X,XH.k u q w z.A.l.v 8.i 5 } oX+X} 8X+X|.+X|.+X+X} ",
"8X|.(.[.(.[.+X} 9X|.d.r k %XrX5X2X-XA.#X4X4X4X;XD.B C f N l.&Xu.M e.N 6 ! |.+X} 8XoX|.|.|.`.+X{ ",
"0XoX[.(.[.[.oX} wX{.f.z.-XrXtXtXtXZ.C $   7 v q.s.f N 5 >.J.G.y r t.C 5 E `.+X} 9XoX[.|.[.[.+X} ",
"yX|.[.|.[.[.|.} yX(.g.z.2X4X2XrXtX5X-Xm.e.` n.D.m.B l e r.;Xp.2 e i.V 5 W ).+X} +X|.|.|.|.|.+X} ",
"yX+X[.[.(.[.+X} yX{.| 4.:X>X,X2X2X2X3X2X,XtXrXtX#XC ,.l C 4.4 X 8 t.V 7 T |.oX} +X|.[.).|.|.|.{ ",
"yX+X(.^.(.}.+X} yX`. .y z.;X,X;X$X=X:X,X,X,X,X,XH.r M e $ o X o 6 8.r 4 E |.+X} 8XoX|.[.|.|.+X[ ",
"yXyXyX8XyX8X8X} yXyXXX4 9 q.&X=Xc.x.G.,X,X,X,X,XJ.N =.3 o X o $ 5 C r 4 U.yXqX} 9XoX|.[.[.[.+X[ ",
"o.} } } } } } }  . .W $ @ 2 V V.F.$X=X:X>X>X>X:Xz.i *.0 $ X $ $ % N e % U  ._ } 8X|.[.[.[.[.+X} ",
"8X+X+X8X8X8X8X+XOX+XOX} g n O 2 y -.q.z.z.z.V.i.,.V C q X X 5 $ % u 8 5 Q XX8X} 8X|.[.|.|.|.oX} ",
"yX|.|.|.|.[.|.[.[.[.[.o.! o.2 : 1 O.#.@.#.1 < @.y c 8.l . : 4 o $ 0 e a o.|.+X} 9XoX|.|.|.|.oX} ",
"yX[.|.[.[.[.[.|.|.|.[.[.o.| / : < O.+.#.O.+.$.$.+.0 ,.4 , , . + o 6 r g ).|.oX} +X[.|.|.[.[.oX} ",
"yX|.[.|.[.[.|.|.[.|.[.[./.l -.> p < O.O.$.$.+.O.1 O., L Q.P.J # % 6 8 E }.|.+X} 9XoX|.|.[.|.+X} ",
"yX|.[.[.|.[.(.[.[.|.|.|.{.) 3 6 U. Xk.k.!.c.k.c < . I Q.W.~.A 2 % w % (.|.|.|.} 9XoX|.|.|.[.+X} ",
"yX|.[.[.|.[.[.|.|.[.(.[.|.[.^ H .XiXeX2XiXiX6XK.g f / M.s.=.t 2 8 5 ( `.|.|.|.} 9XoX(.|.|.|.+X} ",
"yX|.[.|.|.).|.[.(.|.|.[.(.|.{.S ^ '.N.e..X].K.K G f *.0.4.S.<.a &  .}.[.(.|.XX} 9X|.(.|.[.[.+X} ",
"yX[.[.[.(.^.|.|.|.|.|.|.[._.Y H s g S f n n g H ; a * j J.%X~ P.L {.|.|.`.|.|.} 9X(.(.[.[.(.+X} ",
"yX[.^.|.[.|.[.[.|.[.[.|.).e.t G = M w.2.M M x f f ; G $ ( X.f w.y.d.`.|.|.|.+X} 9X|.[.(.[.[.oX} ",
"yX(.[.(.(.[.(.[.[.(.[.).^ *.%.M (.@XN.h s A ` ` o.,.d F = 8 %.&.=.0.f.}.|.|.XX} 9X|.(.[.(.[.+X} ",
"aX[.(.(.[.|.(.(.[.[.n.D A P D m v.D.] K L.X.eXuXj.P K.L - 2 v *.B.0.%.| `.[.+X} 9XoX[.(.[.[.oX} ",
"aX|.(.(.[.[.[.(.(.^.' L *.t j.!.Y I R.K E.E.!.M.Y.L.K.k.D + v &.Z ' 6.0.X.`.XX} yX|.[.|.[.[.|.} ",
"aX^.(.[.(.^.(.[.[.U.L J F 4 h s. X' K.K I.E.Y.T.W.!.&Xj.; & 2 e L Z B.v = ..XX} yX+X[.[.(.[.+X} ",
"aX|.(.|.|.|.(.|.|.[.!..... .T = ; = = U o.U.o.f.N.g.r.g - A 5 H P.a t ; L.F |.} yX+X(.^.(.[.+X} ",
"aXyXyXyXpXyXyXyXyXpXyXyXuXwX0X! 7X9X7X<X9X8X+XU E E E E W Q n.}.R (.{.R ' |.yX} yXyXyX9XyX9X9X} "
};
