/* XPM */
static char *result[] = {
/* columns rows colors chars-per-pixel */
"48 48 59 1 ",
"  c black",
". c #3D0101",
"X c #211400",
"o c #271818",
"O c #30200E",
"+ c #1A1923",
"@ c #34353D",
"# c #6B0808",
"$ c #52270E",
"% c #482714",
"& c #4D2E17",
"* c #5F361E",
"= c #693D0A",
"- c #796100",
"; c #7B4A29",
": c #7A4A2B",
"> c #000057",
", c #00007B",
"< c #535353",
"1 c #656965",
"2 c #6C6F74",
"3 c #75777D",
"4 c #A30E0E",
"5 c #891F29",
"6 c #EB1014",
"7 c #D32C1F",
"8 c #964B1F",
"9 c #9F5F24",
"0 c #B36739",
"q c #AF763B",
"w c #9B6443",
"e c #897C7E",
"r c #CBA400",
"t c #FFB900",
"y c #C78961",
"u c #EA9777",
"i c #E5A261",
"p c #111188",
"a c #69719D",
"s c #2D2ED8",
"d c #7D808B",
"f c #878888",
"g c #8F9094",
"h c #98999C",
"j c #A8A8A7",
"k c #B3B4B6",
"l c #FFD781",
"z c #F9C19D",
"x c #B1B9DA",
"c c #C1C2C7",
"v c #D3D0C8",
"b c #FBDCC8",
"n c #E4DADE",
"m c #CEDCEC",
"M c #DEDEE1",
"N c #E4F2F4",
"B c #ECFFFF",
"V c #F2FAFB",
"C c white",
/* pixels */
"111111111111111111121111111111111111111111112221",
"ckkkkkjjjjjhkkjkkjkhhkk3cjjhkjk1ckkcccckjkkkhjc1",
"chfhggggghgggghggghghhj2cggghhk1Mhhhhghgggghghk1",
"Mgfdfhdhhhgggffggg%%%%%%%%%%%gk1Mghgggghhhggghj1",
"Mfghdffgfgffhhfg%%%%%%%%%**%%%%1Mhghgghhghgghhk1",
"Mgffhffggghhgg%%%%%*%%*******%%%%hgghgfgghhhhhh1",
"Mggfjgffhhhhh%%%%**%*:::***::**%*%gghgghhgfghhh1",
"MMMMMMMccMck%%*%*:%*:::w:*::::**:*%hhfhgfhhgfhj1",
"11111111111%%:%*::*:::ww:::w:::**:*%fdhhhhhhghh1",
"ckhkhkk1ckk%::*:w*:w::www:ww::w:*::%ghgghgghhhk1",
"cjhhhgk1Mh%w:*ww::ww:wwww:www:ww:::w%gfggfghhhj1",
"cjghggk1M%y:*wyw:www:wwyw:www:wyw::y%hffggggggk1",
"khhhhhk1M%w:*yy:*wyw*wwyw*wyw*:yy:*yw%gffggghgj1",
"khgfhhh1%w:*:wy**wyy*wyyw*wyw%:wyw*ww%fggffghhj1",
"cjhghhk1%:*%:ww**wwy%:yyw%:yw%*www%w:%%hhgggghk1",
"cjhgggk1O:*%:ww%*:ww%*wyw%:wwO*:ww%::%%MMNMMMMM1",
"chggggkO:*O%*ww%%*w:%%www%*:wO%*ww%:*%O111121111",
"chghhhjO:%OO%wwO%*::O%:w:%*::OO*:w%*%%Okkjkhhkk1",
"cjhhhhjO*OOO%:wOO**:OO:w*%%*:OO%*w*%%OOggghghhj1",
"kghhggjO%O88O*:O0O%*Ou%:*%O%*O0O%:*%%OOggghghhj1",
"cjhhghk1O8u08%:uuuO%uuO%:zuO*OuOO*%%O8Oghfghghj1",
"cjhhhgk1O8zu8O*0888OuzzO*zu0O88OO%%OO8Oghhhhfgj1",
"cjfhhhk1O$zu80O8   80uzzOu08   O%OO:%$Ohhghhgfj1",
"chfhggk1O$uu808 eoo 8uzzzu8 ooeO**O:O$Occcckccc2",
"cffggfk1OO$0808en55o8uzzzu8o55nO%w:OOOO111111111",
"chgfggj1O%O$$08nnC5euzbbbzue5CnnO*:%OOO1ckhkhkk1",
"chfgfgk1O*%O$00uC66nzbbbbbzn66CuO%*%OOO1cjhhhgk1",
"cjgfggj1O*%%O$uzbbbbbbbbbbbbbbbzuO%Ow%O1cjghggk1",
"Mhghggh1O*%%O$0uzbbbbbbzbbbbbbzu0%w%*%O1khhhhhk1",
"Mkggfgk1O*%OOO$0uzzbbbbbbbbbzzu0$%*:%OO1khgfhhh1",
"Mkfdfgk1MO%OO=9i=0uzzzzzzzzzu0$$#O%*OOO1cjhghhk1",
"MMMcMcc1MO%O9il9i=$00uuuuu00$$##.9OO-OO1cjhgggk1",
"311111112O%O=99l9i.$$$$$$$$$4#.>i=-trO11chggggk1",
"ckkcccckjkOO==ami=.774#####74.>i9,%**Oc1chghhhj1",
"MhhhhghggggO9,p&xo##474#4774#o=9pp%:*Ok1cjhhhhj1",
"Mghgggghhhg9ipssapam#####4#.ap&ax%O:%Oj1kghhggj1",
"Mhghgghhghg99liBx,sBBBBtBBBBs,Xa&Oi:%9k1cjhhghk1",
"Mhgghgfgghhil99&&&sxmmxrxmmxs&.Xpp9%O=h1cjhhhgk1",
"Mhgghgghhgf9il=s,&;&;&qqq&;&;&.>p,pO,hh1cjfhhhk1",
"Mhghhfhgfhh,pp,p,;q&q;&&&;q&q;&.>>pp,hj1chfhggk1",
"Mgggfdhhhhh,ps>>p-BBtpppttBrpp-..>>>ghh1cffggfk1",
"Mgdhghgghgg.>>>,-mxts,psp,tmr,,-..#.hhk1chgfggj1",
"Mfgffgfggfg.#..appssp,xBBxxBBxs,..##.hj1chfgfgk1",
"Vgffghffgg.#4...axBBxax8ubbzu8xa...4#gk1cjgfggj1",
"Vhffgggffg#74.....++@@+@<<<@0......#4gj1Mhghggh1",
"Vdfgfdfggf#7#......=99&=;qq&+.....f.#hj1Mkggfgk1",
"Vhfhhhfhhg.4.hk.MkgfX&=lli9=..fhh.gg.hk1Mkfdfgk1",
"VMMMNMMMMNM.MMM1MMMvvc&;qq;&NMMMMNMMMMM1MMMcMcc1"
};
