/* XPM */
static char *result[] = {
/* columns rows colors chars-per-pixel */
"48 48 59 1 ",
"  c black",
". c #3D0101",
"X c #211400",
"o c #271818",
"O c #30200E",
"+ c #1A1923",
"@ c #34353D",
"# c #6B0808",
"$ c #52270E",
"% c #482714",
"& c #4D2E17",
"* c #5F361E",
"= c #693D0A",
"- c #796100",
"; c #7B4A29",
": c #7A4A2B",
"> c #000057",
", c #00007B",
"< c #535353",
"1 c #656965",
"2 c #6C6F74",
"3 c #75777D",
"4 c #A30E0E",
"5 c #891F29",
"6 c #EB1014",
"7 c #D32C1F",
"8 c #964B1F",
"9 c #9F5F24",
"0 c #B36739",
"q c #AF763B",
"w c #9B6443",
"e c #897C7E",
"r c #CBA400",
"t c #FFB900",
"y c #C78961",
"u c #EA9777",
"i c #E5A261",
"p c #111188",
"a c #69719D",
"s c #2D2ED8",
"d c #7D808B",
"f c #878888",
"g c #8F9094",
"h c #98999C",
"j c #A8A8A7",
"k c #B3B4B6",
"l c #FFD781",
"z c #F9C19D",
"x c #B1B9DA",
"c c #C1C2C7",
"v c #D3D0C8",
"b c #FBDCC8",
"n c #E4DADE",
"m c #CEDCEC",
"M c #DEDEE1",
"N c #E4F2F4",
"B c #ECFFFF",
"V c #F2FAFB",
"C c white",
/* pixels */
"111111111111111111121111111111111111111111112221",
"ckkkkkjjjjjhkkjkkjkhhkk3cjjhkjk1ckkcccckjkkkhjc1",
"chfhggggghgggghggghghhj2cggghhk1Mhhhhghgggghghk1",
"Mgfdfhdhhhgggffggg%%%%%%%%%%%gk1Mghgggghhhggghj1",
"Mfghdffgfgffhhfg%%%%%%%%%**%%%%1Mhghgghhghgghhk1",
"Mgffhffggghhgg%%%%%*%%*******%%%%hgghgfgghhhhhh1",
"Mggfjgffhhhhh%%%%**%*:::***::**%*%gghgghhgfghhh1",
"MMMMMMMccMck%%*%*:%*:::w:*::::**:*%hhfhgfhhgfhj1",
"11111111111%%:%*::*:::ww:::w:::**:*%fdhhhhhhghh1",
"ckhkhkk1ckk%::*:w*:w:wwww:ww::w:*::%ghgghgghhhk1",
"cjhhhgk1Mh%w:*ww::ww:wwww:www:ww:::w%gfggfghhhj1",
"cjghggk1M%y:*wyw:www:wwyw:www:wyw::y%hffggggggk1",
"khhhhhk1M%w*:yy:*wyw*wwyw*wyw*:yy::y:%gffggghgj1",
"khgfhhh1%w:*wyw**wyw*wyyw*wyw%:wy:*ww%fggffghhj1",
"cjhghhk1%:*%ww:**wy:%:yyw%wyw%*www*ww%fhhgggghk1",
"cjhgggkO*:*%ww:%*ww*%:yww%ww:O*:ww*w:%%MMNMMMMM1",
"chggggkO:*O%ww%O*w:*%:ww:%w::O%:ww%:*%%111121111",
"chghhhjO:%O%w:%O*::%%*ww*%::*OO:w:%:*%Okkjkhhkk1",
"cjhhhhjO*OO%w*O0%:%O%%w*O%:*OOO*w:%*%OOggghghhj1",
"kghhggjO%O0O:%uu%*OuO%:%u%*%O0O%:*%*%OOggghghhj1",
"cjhhghk1O8u0%OuuO%u0u%*%uO*OuuO%*%%OO8Oghfghghj1",
"cjhhhgk1O8buO0u08O80uO*zzzO0888O*%OOO8Oghhhhfgj1",
"cjfhhhk1O$bz8008   80uOzzu08   OO%O*%$Ohhghhgfj1",
"chfhggk1O$uz808 eoo 8uzzzu8 ooeOOOw*O$Occcckccc2",
"cffggfk1OO$0808en55o8uzzzu8o55n%wO*OOOO111111111",
"chgfggj1O%O$$08nnC5euzbbbzue5CnO:*%OO%O1ckhkhkk1",
"chfgfgk1O*%O$00uC66nzbbbbbzn66CO**OO%%O1cjhhhgk1",
"cjgfggj1O*%%O$uzbbbbbbbbbbbbbbbO%Ow%%%O1cjghggk1",
"Mhghggh1O*%%O$0uzbbbbbbzbbbbbbz%w%*%%%O1khhhhhk1",
"Mkggfgk1O%%%O.$0uzzbbbbbbbbbzzu%:*%O%%O1khgfhhh1",
"Mkfdfgk1OO%%O.#$$0uzzzzzzzzzu0pO%*O%%Ok1cjhghhk1",
"MMMcMcc1OO%OO9.##$$00uuuuu00$pslOO-%%Ov1cjhgggk1",
"311111112O%OO=i=.#4$$$$$$$$$.pli-tr%%O11chggggk1",
"ckkcccckjOOO,,9i9.44#####477.=im%**OOjc1chghhhj1",
"MhhhhghggOO9,pp9=o#7774#474##ox&%:*OOhk1cjhhhhj1",
"Mghgggghhh9i9ixa&pa.#4#####mapa%O:%Oghj1kghhggj1",
"Mhghgghhg9i9i9&aX,sBBBBtBBBBs,xOi:%9hhk1cjhhghk1",
"Mhgghgfgg==i9ppX.&sxmmxrxmmxs&&&9%Oihhh1cjhhhgk1",
"Mhgghgghhg,pp,p>.&;&;&qqq&;&;&,s=Oi9hhh1cjfhhhk1",
"Mhghhfhgfh,pp>>.&;q&q;&&&;q&q;,p,pp,fhj1chfhggk1",
"Mgggfdhhhhh>>>..-pprBttppptBB-p>>sp,ghh1cffggfk1",
"Mgdhghgghg.#4..-,,rmt,psp,stxm-,>>>.hhk1chgfggj1",
"Mfgffgfggf#4#..,sxBBxxBBx,pssppa.##.hhj1chfgfgk1",
"Vgffghffg#4#...ax8uzbbu8xaxBBxa..#4.ggk1cjgfggj1",
"Vhffgggff#4.......0@<<<@+@@++....#7#hgj1Mhghggh1",
"Vdfgfdfgg..gh.....+&qq;=&99=......7#hhj1Mkggfgk1",
"Vhfhhhfhh.ggg.k2...=9ill=&Xhhhf.h.4.ghk1Mkfdfgk1",
"VMMMNMMMMNMMMMM1MMM&;qq;&MMMNMMMMN.MMMM1MMMcMcc1"
};
