/* XPM */
static char *result[] = {
/* columns rows colors chars-per-pixel */
"48 48 59 1 ",
"  c black",
". c #3D0101",
"X c #211400",
"o c #271818",
"O c #30200E",
"+ c #1A1923",
"@ c #34353D",
"# c #6B0808",
"$ c #52270E",
"% c #482714",
"& c #4D2E17",
"* c #5F361E",
"= c #693D0A",
"- c #796100",
"; c #7B4A29",
": c #7A4A2B",
"> c #000057",
", c #00007B",
"< c #535353",
"1 c #656965",
"2 c #6C6F74",
"3 c #75777D",
"4 c #A30E0E",
"5 c #891F29",
"6 c #EB1014",
"7 c #D32C1F",
"8 c #964B1F",
"9 c #9F5F24",
"0 c #B36739",
"q c #AF763B",
"w c #9B6443",
"e c #897C7E",
"r c #CBA400",
"t c #FFB900",
"y c #C78961",
"u c #EA9777",
"i c #E5A261",
"p c #111188",
"a c #69719D",
"s c #2D2ED8",
"d c #7D808B",
"f c #878888",
"g c #8F9094",
"h c #98999C",
"j c #A8A8A7",
"k c #B3B4B6",
"l c #FFD781",
"z c #F9C19D",
"x c #B1B9DA",
"c c #C1C2C7",
"v c #D3D0C8",
"b c #FBDCC8",
"n c #E4DADE",
"m c #CEDCEC",
"M c #DEDEE1",
"N c #E4F2F4",
"B c #ECFFFF",
"V c #F2FAFB",
"C c white",
/* pixels */
"111111111111111111121111111111111111111111112221",
"ckkkkkjjjjjhkkjkkjkhhkk3cjjhkjk1ckkcccckjkkkhjc1",
"chfhggggghgggghggg%%%%%%%%%%%hk1Mhhhhghgggghghk1",
"Mgfdfhdhhhgggffg%%%%%%%%%**%%%%1Mghgggghhhggghj1",
"Mfghdffgfgffhh%%%%%*%%*******%%%%hghgghhghgghhk1",
"Mgffhffggghhg%%%%**%*:::***::**%*%gghgfgghhhhhh1",
"Mggfjgffhhhh%%*%*:%*:::w:*::::**:*%ghgghhgfghhh1",
"MMMMMMMccMc%%:%*::*:::ww:::w:::**:*%hfhgfhhgfhj1",
"11111111111%::*:w*:w::www:ww::w:*::%fdhhhhhhghh1",
"ckhkhkk1ck%w:*ww::ww:wwww:www:ww:::w%hgghgghhhk1",
"cjhhhgk1M%y:*wyw:www:wwyw:www:wyw::y%gfggfghhhj1",
"cjghggk1M%w:*yy:*wyw*wwyw*wyw*:yy:*yw%ffggggggk1",
"khhhhhk1%w:*:yw**wyw*wyyw*wyw%:wyw*ww%gffggghgj1",
"khgfhhh1%:*%www**wy:%:yyw%:yw%*www%w:%fggffghhj1",
"cjhghhk1O:*%ww:%*:w*%:wyw%:w:O*:ww%::%%hhgggghk1",
"cjhgggkO:*O%ww*%*:w*%*www%:w:O%:ww%:*%%MMNMMMMM1",
"chggggkO:%O%:w%O%*:%%%ww:%::*OO*:w%:%%O111121111",
"chghhhjO*OO%:w%OO*:%O%:w*O*:*OO%:w%*%OOkkjkhhkk1",
"cjhhhhjO%O0%*:Ou0%*OuO*:%u%*%O0%*:%%%OOggghghhj1",
"kghhggj1O8uO%*uuuO%0uO%*uuO*OuuO*:%%O8Oggghghhj1",
"cjhhghk1O8buO*u088O0uzO*zzuO888O%*%OO8Oghfghghj1",
"cjhhhgk1O$bz8O08   80uzOzu08   OO%Ow%$Oghhhhfgj1",
"cjfhhhk1%$uz808 eoo 8uzzzu8 ooeO*OOw%$Ohhghhgfj1",
"chfhggk1O%$0808en55o8uzzzu8o55n%w%O*O%Occcckccc2",
"cffggfk1O*%$$08nnC5euzbbbzue5CnO*:%OO%O111111111",
"chgfggj1O*%O$00uC66nzbbbbbzn66CO%*%O%%O1ckhkhkk1",
"chfgfgk1O*%%O$uzbbbbbbbbbbbbbbbzO%Ow%*O1cjhhhgk1",
"cjgfggj1O*%%O$0uzbbbbbbzbbbbbbzu%w%*%*O1cjghggk1",
"Mhghggh1O*%%O.$0uzzbbbbbbbbbzzu0%*:%O*O1khhhhhk1",
"Mkggfgk1O%O%O.#$$0uzzzzzzzzzu0$$O%*O%*O1khgfhhh1",
"Mkfdfgk1O%O%O.#4#$$00uuuuu00$$#4#OO-*%O1cjhghhk1",
"MMMcMcc1MOO%Oi.#47#$$$$$$$$$#74#.-tr*Ov1cjhgggk1",
"311111112OO%O9li.474######4474.ss%**OO11chggggk1",
"ckkcccckjkO%ili9=.#77744#477#.ppl%:*OOc1chghhhj1",
"MhhhhghgggO%9i9z0pa.#44####.ap=i%O:%OOk1cjhhhhj1",
"MghgggghhhgO,pmu$,sBBBBtBBBBs,$uOp:%Ohj1kghhggj1",
"Mhghgghhghi,ss;a.&sxmmxrxmmxs&.a;s%Oihk1cjhhghk1",
"Mhgghgfgg9llimBX.&;&;&qqq&;&;&.XBmOll9h1cjhhhgk1",
"Mhgghgghil9i9&&.&;q&q;&&&;q&q;&.&&9i9li1cjfhhhk1",
"Mhghhfhg=9i9psp.-prBBtpsptBBrp-.psp9i9=1chfhggk1",
"Mgggfdhhh,p,ps,.,-mxt,psp,txm-,.,sp,p,h1cffggfk1",
"Mgdhghggh,sp>>.,psss,psssp,sssp,.>>ps,k1chgfggj1",
"Mfgffgfggf>>>#.amBBxaxBBBxaxBBma.#>>>hj1chfgfgk1",
"Vgffghffgg44#....8uzzbu8ubzzu8....#4#gk1cjgfggj1",
"Vhffgggff#74#....+@@<<@+@<<@@+....#7#gj1Mhghggh1",
"Vdfgfdfgg#74......&;qq;&;qq;&....f.74hj1Mkggfgk1",
"Vhfhhhfhh.4.gh.2M.&illi9illi&hfh.gg4.hk1Mkfdfgk1",
"VMMMNMMMMN.MMMM1MM&;qq;&;qq;&MMMMNM.MMM1MMMcMcc1"
};
