/* XPM */
static char *xpm_[] = {
/* columns rows colors chars-per-pixel */
"48 48 229 2 ",
"   c #040203",
".  c #100906",
"X  c #171009",
"o  c #1A120A",
"O  c #0F1214",
"+  c #171615",
"@  c #3C0C08",
"#  c #29160B",
"$  c #23180E",
"%  c #2A1A0F",
"&  c #38190C",
"*  c #2D0A1C",
"=  c #271C13",
"-  c #2B1C10",
";  c #321F12",
":  c #32101C",
">  c #3A210D",
",  c #25231C",
"<  c #2D261E",
"1  c #362112",
"2  c #3C2413",
"3  c #36261B",
"4  c #3B2B1C",
"5  c #3D321F",
"6  c #1A172F",
"7  c #291A27",
"8  c #2D122B",
"9  c #2C2820",
"0  c #2C2826",
"q  c #392A2A",
"w  c #3F3420",
"e  c #333229",
"r  c #332B35",
"t  c #382D3B",
"y  c #450201",
"u  c #4C0504",
"i  c #570605",
"p  c #481609",
"a  c #551406",
"s  c #4F0F15",
"d  c #650808",
"f  c #790A09",
"g  c #761809",
"h  c #552A08",
"j  c #422614",
"k  c #4D2317",
"l  c #452914",
"z  c #4B2B15",
"x  c #432B1B",
"c  c #482D18",
"v  c #4D2C19",
"b  c #522E1A",
"n  c #543412",
"m  c #56311B",
"M  c #5C331D",
"N  c #6B3807",
"B  c #73350E",
"V  c #772D1C",
"C  c #653A1A",
"Z  c #57133B",
"A  c #432C23",
"S  c #463227",
"D  c #4C3C2C",
"F  c #543523",
"G  c #5C3C25",
"H  c #583929",
"J  c #473438",
"K  c #563B32",
"L  c #633621",
"P  c #653922",
"I  c #6C3C25",
"U  c #683029",
"Y  c #633E28",
"T  c #713F26",
"R  c #784714",
"E  c #4B4330",
"W  c #554632",
"Q  c #594536",
"!  c #554835",
"~  c #674228",
"^  c #724429",
"/  c #754429",
"(  c #79462B",
")  c #7D4A2D",
"_  c #634433",
"`  c #6A4836",
"'  c #724D34",
"]  c #7C5238",
"[  c #101348",
"{  c #2C234C",
"}  c #2C2D4C",
"|  c #332B46",
" . c #292A53",
".. c #0C1A61",
"X. c #122368",
"o. c #182A79",
"O. c #293174",
"+. c #473B42",
"@. c #5A4846",
"#. c #585643",
"$. c #514652",
"%. c #644E47",
"&. c #655848",
"*. c #695E4C",
"=. c #775947",
"-. c #65485F",
";. c #75565A",
":. c #666050",
">. c #6F6654",
",. c #756658",
"<. c #746E5C",
"1. c #75705C",
"2. c #4F4374",
"3. c #665768",
"4. c #766B6A",
"5. c #8D110E",
"6. c #A81914",
"7. c #B21C16",
"8. c #932217",
"9. c #943924",
"0. c #A53323",
"q. c #D1342C",
"w. c #864B04",
"e. c #925409",
"r. c #895516",
"t. c #985C15",
"y. c #9D6017",
"u. c #A66518",
"i. c #B16C19",
"p. c #874724",
"a. c #814D2E",
"s. c #8F562D",
"d. c #844D34",
"f. c #855232",
"g. c #895533",
"h. c #8D5A36",
"j. c #8A573A",
"k. c #985B37",
"l. c #935D39",
"z. c #A25B35",
"x. c #95623B",
"c. c #9A673B",
"v. c #9A653E",
"b. c #AE653D",
"n. c #AF7431",
"m. c #D4433D",
"M. c #8B5C43",
"N. c #9A5F45",
"B. c #AB5855",
"V. c #996646",
"C. c #8E6E56",
"Z. c #A36D43",
"A. c #A86749",
"S. c #AB7447",
"D. c #B6774C",
"F. c #AA6F56",
"G. c #807967",
"H. c #807E69",
"J. c #837771",
"K. c #A67B68",
"L. c #B77D63",
"P. c #C36E5B",
"I. c #C27B5A",
"U. c #C85974",
"Y. c #C68537",
"T. c #B98657",
"R. c #8B8773",
"E. c #8E8976",
"W. c #958B7A",
"Q. c #96937E",
"!. c #A7826B",
"~. c #AD8876",
"^. c #C58959",
"/. c #D08A5D",
"(. c #C78964",
"). c #D88A66",
"_. c #D49661",
"`. c #C39577",
"'. c #E49C79",
"]. c #0F1E81",
"[. c #122A86",
"{. c #152F98",
"}. c #333783",
"|. c #1C36B8",
" X c #2435A6",
".X c #273CB6",
"XX c #3242B3",
"oX c #414690",
"OX c #4C58AA",
"+X c #1C38C8",
"@X c #223CCB",
"#X c #213DD5",
"$X c #2F48DA",
"%X c #3551ED",
"&X c #5863D0",
"*X c #887693",
"=X c #999681",
"-X c #9A9782",
";X c #9E968E",
":X c #8F8692",
">X c #AE988C",
",X c #ABA69A",
"<X c #A19CA9",
"1X c #B5ADA1",
"2X c #B5ABB1",
"3X c #DC9F83",
"4X c #DBA789",
"5X c #CFAD91",
"6X c #EAAC89",
"7X c #EEAF8C",
"8X c #E9B594",
"9X c #F5BA97",
"0X c #CFB8AA",
"qX c #DCA5B6",
"wX c #F9C19D",
"eX c #CCC5B8",
"rX c #CCC6B9",
"tX c #D8C4B9",
"yX c #F9C6A5",
"uX c #F8C6A8",
"iX c #F0CCB4",
"pX c #F8D1B9",
"aX c #FBD5BC",
"sX c #DBD6CD",
"dX c #FADBC7",
"fX c #E2DED4",
"gX c #D3D1E1",
"hX c #E1DDE8",
"jX c #F3E8EA",
/* pixels */
"w w w w ! ! ! w 5 5 5 w w ! ! 5 5 5 5 S A 5 5 S 5 5 w w w w ! ! ! ! 5 5 5 5 5 5 S 5 w w ! ! S e ",
"w <.rX-XR.R.H.H.R.R.Q.H.H.H.R.4.R.H.1.>.,.,.>.<.>.1.*.*.<.H.H.R.R.E.R.R.H.H.-XR.R.Q.H.R.H.-X1.e ",
"w rX<.rXR.R.Q.R.-XR.R.R.Q.R.Q.Q.G.&.! m M m m m m m n z Q &.<.Q.Q.Q.-X-XQ.-X-X-X-X-XQ.Q.Q.1.H.e ",
"w rXR.#.rXrXrXrXrXrXrXrXrX0X,X:._ G C ~ P T ( T P ( T T M m H Q ,XrXrXrXrXrXrXrXrXrXrXrX<.R.H.e ",
"! rX-X<.$ 9 , 9 9 9 9 9 9 l b L T ( f.) ( a.( T ( f.f.) g.a.P M v 3 A 5 w 9 5 9 9 9 9 $ rXR.H.e ",
"! rXR.<.$ 9 9 9 9 9 9 < v G C T f.g.a.f.g.) a.a.g.l.l.g.g.l.g.P b 2 $ , 9 , 9 9 $ 9 $ $ rXQ.R.e ",
"! rX-X<.X 9 $ , , - $ j I M I l.x.g.h.x.a.a.f.g.x.h.g.Z.h.g.Z.g.C z - = $ - $ $ - $ $ $ rX,XE.w ",
"w rX-X<.X $ $ + $ $ = M U L a.x.a.c.D.Z.f.v.f.g.b.S.g.l.S.g.l.S.( m 2 - + $ + $ + $ o   rX,XH.w ",
"w ,X,X<.X X X X X X 1 P L / h.a.c.Z.^.x.h.^.l.f.^.^.D.f.T.D.f.S.d.C b ; X X X X X X X X rX,XH.w ",
"w rX,X<.X X $ X X # M P L a.) d.Z.l.^.) g._.V.^ _._._.x.h.^.x.h.d.T b j $ X $ o $ X X X rX,XE.5 ",
"w ,X,X<.X $ $ $ $ 2 P P L ( I / g.h.Z.^ ) S.x.I S.^.^.S./ c.b.] a.T G z # $ + $ $ $ $ X rXQ.E.5 ",
"w rX,X<.X X X X o z I P L ( m I ( ( l.C P v.g.L ) c.c.c.C ) x.^ ( ^ M c > $ , < 9 , $ o rX-XE.w ",
"! rX-X<.X w E 5 D z P m P P l L L P ) m m ) ( b T g.l.l.M ~ a.M ^ C m z 2 , 9 , , 9 $ X rX,XE.5 ",
"! rX-X<.X E E E ! 3 m z P M ; b v m I 2 k T I j I ) ) f.M M T M M ~ k l > $ , 9 , 9 $ X rX,XH.5 ",
"! fX,X<.X #.#.*.&.9 m 2 b v ~ l l z P 2 j F U ; G T T ) L v C b M m b n 2 $ $ 9 $ , $ X rX,XH.w ",
"w fX,X<.X 9 9 9 5 1 l 1 z 2 A.4 ) G m ) b l C ; j P L I M ; v 2 c x n c 2 $ $ $ $ $ $ X rX,XH.w ",
"w rX,X<.X $ - + < % > 2 2 1 F.M.V.Q 2 V.l.2 z 2 z l L T b ; j C z 1 L b j % X $ X $ X X rX,XR.w ",
"w rX,X<.X 9 9 e  . .3 j ; ] 6X7X4X3Xx M.'.K.F 4 `.] b M ; 3 >X4Xk.j I L z 1 X X X X X X rX,XH.! ",
"w rX-X<.X 9 e r {.$XOX3 2 m I.9XwXyX`.F.7XaXiXW.uX9X' j & j I.D.).p.( P l 1 X X X X X X rX-X4.w ",
"w fX,X<.X 9 q }.%X#X%XO.2 Y A.9XwXwX7X).b.!.~.`.8XwXM.F L k z.).).p.a.) b 1 . +   O   X rX-XE.w ",
"w fX-X<.X 0 O.@X%X%X+X@Xd.'.7XpXaXaX6Xk.v - % & v.6Xj.) / l z.'.'.R f.v.M 1 +           rX-XR.w ",
"w fXR.<.X 0 o.%X$X+X{. XA.7XdXdXdXdXpX9X8X6X5X4X^.(.) M P j ^.7Xb.l ~ Z.^ 1 .   X   X   rX,XR.w ",
"A rXR.<.X 9  .+X#X{.X.7 z.6XaXuXaXdXdXaXyXyXpXdXdXyXM.^ M P 7X'.^ 1 M c.f.1 . X         w ,XR.w ",
"5 rXR.<.X 9 E  .[ [ 7 F ~ ).uX9XyXuXyXuXwXyXuXuXuX9XM.h.( M v.P % - c c.f.1 o     X   X ! w R.e ",
"! rXR.1.X 9 E D 2 x _ ` C b.'.9X9XiXaXaXyXyXyX9X9XyXM.C P j % % % - j l.^ 1 . X     O   W E 5 e ",
"! rX-X1.X < E ! E > c K ;.C B /.8X5XqXqX3X9X9XwXyX9XZ.r.r.2 - $ 2 % 1 ^ ~ 1 o   O   X   1.eXR.e ",
"! rX-X1.X < E ! #.! 2 $.*XQ h B k.P.B.U.U.7XwXwX9X6X( R R z - $ 2 % 2 P C 1 % < e $     rX,XR.e ",
"! rX-X1.X < E ! #.#.Q D @.H l h u g V z.A.I.I.I.D.z.T f.I ; # ; j % 1 M m 1 0 e 5 $     rX,X4.e ",
"! rX-X<.X 9 E ! #.#.*.&.@.3 Y h i 5.6.0.0.8.g V 0.5.k c.d.3 * 1 l % 1 m n 4 5 x e $     rX-XR.w ",
"w rXR.<.X 9 E #.#.#.*.<.>.:.' C a f 6.6.8.6.7.q.q.5.f V _ 7 ..7 1 % 1 m c + 1 % % X     rX-XR.w ",
"w rXR.<.X 9 E ! #.#.*.<.<.*.<.1.1 p d 5.6.q.q.6.f f Z | oXOX+.m % - v b 2 $ X X X X     rX-XR.w ",
"w ,XR.1.X < E #.#.*.<.<.<.<.1.1.r -.;.9.' B.B.U V a -.*X!.n.R p = - b v - - % , <       eX,XR.w ",
"w ,X-X<.X 9 E ! #.:.<.1.1.<.<.<.$.2XhX0XtXfXgX;X@.S t.Y.y.F.I ; = l b ; , - 9 < < X X X rX,XR.w ",
"w rX-X<.X < E #.#.#.1.<.1.R.<.<.+.<XhX0XtXhXgXOXo. .m s.3X3. X[.0 l ; 9 9 9 9 1 9 X X X rX,X4.e ",
"w rX-X<.X 9 E ! #.#.1.<.R.1.<.#.@ r *XC.=.:X3.o.X.t v ] ;XY 2.4.L @ - 0 9 1 9 e 9 X X X rXQ.R.e ",
"! rX-X<.X 9 E #.#.#.<.<.H.4.>.k y & ` j.` ` #.J S S S 4 K B e.u.u.N < 9 9 e 9 e w X     rXQ.H.e ",
"! rXR.1.X 9 E E #.#.1.1.H.H.! y @ 1 G ] ~ H Y G ~ F e 0 j N R n.^.e.h < < < 9 9 5 X     rX,XR.e ",
"! rXR.<.X 9 E #.#.#.<.H.<.H.K y : +.=.] ' Y Y H D %.J { l h e.n.-.r.u.C < e e e e o     rX-XR.5 ",
"! rXR.<.X 9 E ! *.#.1.H.4.>.p y J 3.2XK.7 _ ,X2X<X,Xf.x - z N t $.^.n.h } e e e 9 o   o rXQ.R.5 ",
"! rXR.<.X 9 E #.*.<.1.H.R.&.i : t C.>X$...O.3XjX0X!._ o.8 @ t .XJ w.m O.X., e = < X   o rX,XH.5 ",
"w rX-X<.X 9 #.! *.1.<.H.H.,.d s | t ` |.o.%XOX~.;.oX[.X.8 y p | [ U 6 o.[ e e 5 - X   X rX-XE.e ",
"w rX-X<.X 9 #.#.*.<.1.H.1.H d a N.~.2. Xo.&X$X}.XX.X .$.F p d u 8.q.s < e e e e 5 X   X rXQ.E.e ",
"! rX-X<.X - E E #.#.*.1.*.u d p ` L.!.M.z s s U !.4.&.' ' k d u 5.m.f 3 e < 9 e e X     rX-XR.e ",
"w rXR.1.X $ 9 e e 5 5 5 x u u N n G W e ; u i y S Q T.T.c.h a u f q.g = < < 1 9 9 o     rXQ.R.e ",
"w ,X-X#.fXfXfXrXfXfXfXrX0X;XK N R y.e.h p <.1X,X%.N i.Y.i.w.p y s 7.d 1XrXrXrXrXrXrXrXrX#.rX-X5 ",
"w ,X#.rX-X-X-X-X-X-X-X-X-X-XW.^ R F R N @.Q.-XQ.R.Q s.T.T.r.m &.%.5.K E.-X-X-X-X-X-X-X-X-X#.rX5 ",
"w #.rXfXfXfXfXfXrXrXfXfXfXfXfX;X2 A 3 J.sXfXrXeXrX,XG ' _ C J.fX0X,.1XfXfXfXfXfXfXfXrXfXfXrX#.w ",
"w w w w w #.#.w w w w w 5 ! ! E D E 4 5 W 5 5 5 S 4 4 4 4 3 w w w A S Q ! ! w w w w w w e e e e "
};
