/* XPM */
static char *xpm_[] = {
/* columns rows colors chars-per-pixel */
"48 48 236 2 ",
"   c #040203",
".  c #100906",
"X  c #171009",
"o  c #1A120B",
"O  c #1F0A19",
"+  c #0F1214",
"@  c #171615",
"#  c #3B0C07",
"$  c #23180E",
"%  c #2C1A0E",
"&  c #38150B",
"*  c #390A1C",
"=  c #271C14",
"-  c #2B1C10",
";  c #301E11",
":  c #38200E",
">  c #25231C",
",  c #2C241B",
"<  c #352112",
"1  c #3C2413",
"2  c #36271B",
"3  c #3C2B1C",
"4  c #3D321F",
"5  c #16092D",
"6  c #191534",
"7  c #291A26",
"8  c #361924",
"9  c #271532",
"0  c #292726",
"q  c #2C2820",
"w  c #372728",
"e  c #3F3420",
"r  c #333229",
"t  c #3F342C",
"y  c #312D35",
"u  c #352A38",
"i  c #440202",
"p  c #4B0806",
"a  c #580605",
"s  c #4B1904",
"d  c #521306",
"f  c #4C1B15",
"g  c #640907",
"h  c #750A07",
"j  c #701910",
"k  c #47250D",
"l  c #552908",
"z  c #422714",
"x  c #452914",
"c  c #4B2C16",
"v  c #432B1A",
"b  c #4C2D1A",
"n  c #572C14",
"m  c #522E19",
"M  c #523213",
"N  c #56311B",
"B  c #593618",
"V  c #5C331E",
"C  c #663605",
"Z  c #633A1C",
"A  c #713612",
"S  c #442D22",
"D  c #4E2C2C",
"F  c #4D3323",
"G  c #48392B",
"H  c #573A28",
"J  c #493734",
"K  c #593A33",
"L  c #633621",
"P  c #653A22",
"I  c #6B3C24",
"U  c #613E29",
"Y  c #703F26",
"T  c #783C25",
"R  c #613C3B",
"E  c #774312",
"W  c #51412C",
"Q  c #4B4330",
"!  c #4F4C3B",
"~  c #584435",
"^  c #554835",
"/  c #5C443C",
"(  c #64422D",
")  c #6D442A",
"_  c #714126",
"`  c #754329",
"'  c #764728",
"]  c #79462A",
"[  c #7C4A2C",
"{  c #664635",
"}  c #764A36",
"|  c #7D5435",
" . c #12164F",
".. c #1D2655",
"X. c #34304C",
"o. c #222658",
"O. c #0F1E68",
"+. c #182765",
"@. c #112778",
"#. c #313269",
"$. c #443946",
"%. c #503B48",
"&. c #4C1F60",
"*. c #3B406C",
"=. c #4D4A4C",
"-. c #575543",
";. c #585643",
":. c #514B53",
">. c #665443",
",. c #6F554E",
"<. c #665A49",
"1. c #695D4B",
"2. c #6D6454",
"3. c #746E5C",
"4. c #544A73",
"5. c #7E7967",
"6. c #746A72",
"7. c #950E0D",
"8. c #8E120E",
"9. c #9A1A14",
"0. c #AF1A14",
"q. c #803E1E",
"w. c #B1231C",
"e. c #B23028",
"r. c #CD3228",
"t. c #E13E34",
"y. c #844906",
"u. c #975607",
"i. c #8B4C16",
"p. c #8B5619",
"a. c #985C11",
"s. c #A76619",
"d. c #B16C19",
"f. c #8D4A26",
"g. c #824D2E",
"h. c #84572B",
"j. c #945129",
"k. c #824F31",
"l. c #855232",
"z. c #8A5534",
"x. c #8D5936",
"c. c #86593B",
"v. c #995834",
"b. c #925E39",
"n. c #BF4232",
"m. c #A15C39",
"M. c #9B6226",
"N. c #946239",
"B. c #9A643D",
"V. c #A86139",
"C. c #B67830",
"Z. c #865D44",
"A. c #975E44",
"S. c #B7575F",
"D. c #9C6744",
"F. c #946A58",
"G. c #9A7259",
"H. c #A26C42",
"J. c #A86B47",
"K. c #B56946",
"L. c #AD7548",
"P. c #B6784D",
"I. c #A97655",
"U. c #807867",
"Y. c #807E69",
"T. c #8C7772",
"R. c #AD7A62",
"E. c #C96D61",
"W. c #C78432",
"Q. c #B8804F",
"!. c #BA8555",
"~. c #8A8572",
"^. c #8B8773",
"/. c #92877C",
"(. c #968E7C",
"). c #96927E",
"_. c #AD8769",
"`. c #A68879",
"'. c #CC8C54",
"]. c #C9895B",
"[. c #CD915C",
"{. c #CB8F6A",
"}. c #D79975",
"|. c #E2906E",
" X c #E49A76",
".X c #DCA37E",
"XX c #1B3088",
"oX c #192B94",
"OX c #203486",
"+X c #1933A6",
"@X c #1B34B7",
"#X c #2C3BAC",
"$X c #3046A3",
"%X c #666790",
"&X c #4C4CB5",
"*X c #1E39CC",
"=X c #223DD1",
"-X c #223EE4",
";X c #334AC6",
":X c #2A46DA",
">X c #3754EB",
",X c #405DF9",
"<X c #987999",
"1X c #C47590",
"2X c #98818A",
"3X c #989580",
"4X c #9A9782",
"5X c #9D978E",
"6X c #AF928E",
"7X c #ABA69A",
"8X c #B5A59F",
"9X c #9897B0",
"0X c #B4ACA1",
"qX c #B8B1A5",
"wX c #DB999B",
"eX c #D3A78D",
"rX c #E5A685",
"tX c #EEB08E",
"yX c #F5B996",
"uX c #C4B6B3",
"iX c #F9C19D",
"pX c #C8C2B6",
"aX c #CCC6B9",
"sX c #FAC5A3",
"dX c #F8C7A8",
"fX c #EAC9B2",
"gX c #F8D4BC",
"hX c #B3B2C8",
"jX c #D4CFD3",
"kX c #E6D3C9",
"lX c #FBD9C4",
"zX c #FADBC7",
"xX c #E2DED4",
"cX c #EDDBD4",
"vX c #FCE0CE",
"bX c #EBE7F1",
/* pixels */
"e e e e ^ ^ ^ e G 4 4 4 4 ^ ^ S 4 4 4 e S e 3 G e e e 4 e 4 ^ ^ ^ ^ G 4 4 4 W 4 4 4 e e ! ^ 4 r ",
"e 3.aX4X^.^.Y.Y.5.^.4XY.Y.Y.5.Y.^.Y.^.^.^./.^.(.^.(.Y.Y.~.5.Y.^.^.^.^.5.5.~.4X^.^.).Y.Y.Y.4X3.r ",
"e aX3.aX^.^.(.^.4X^.^.^.).^.).4X).).^.<.<.<.<.<.<.<.<.>.5.).).).).4X4X4X).).).4X4X4X4X4X).3.Y.r ",
"e aX^.;.aXaXaXaXaXaXaXaXaXaXaXqX/./ ^ m V L Z Z V Z m m K ^ 5.qXpXaXaXaXaXaXaXaXaXaXaXaX3.^.Y.r ",
"^ aX4X3.$ q > q q q q , q q v m V I I I I ` ] I I ` ] _ Z V V c 3 4 S 4 e q S q q q q $ aX^.Y.r ",
"^ aX^.3.$ q q q q q q q 2 m N L ' [ l.g.[ g.] ` g.c.z.[ z.z.Y V m - $ > q > q q = q $ $ aX).^.r ",
"^ aX4X3.X q $ > > - $ ; N L L ] x.z.g.l.z.] l.g.x.x.N.N.g.B.b._ N 1 - $ $ - $ $ , $ $ $ aX7X^.4 ",
"e aX4X3.X $ $ @ $ $ @ z I L ] b.x.x.B.B.g.l.l.z.B.B.l.V.b.l.D.N.P c < $ @ $ @ $ o o o   aX7X~.4 ",
"e 7X7X3.X X X X X X % V L P l.z.x.D.P.J.l.L.l.z.L.L.B.z.L.b.z.L.g.N z % X X X X X X X X aX7X^.e ",
"e aX7X3.X X $ X X o x P L [ z.l.B.B.[.b.b.[.b.[ [.[.!.l.L.'.l.D.l.L m ; o X $ X $ X X X aX7X^.e ",
"e 7X7X3.X $ $ $ $ % V P L g.] k.B.B.P.[ l.[.D.` '.[.[.B.x.!.B.x.l.Y n x % $ @ $ $ o $ X aX).^.e ",
"e aX7X3.X X X X o z I P L ` L Y z.x.H.I ` J.x.Y D.P.'.D.) N.V.l.[ Y L c = = > q , > $ X aX4X^.e ",
"^ aX4X3.X e Q e Q b I H Z T m I ' ' z.V I b.l.V ] B.H.D.V ] b.P T I H b 1 > q > > q = X aX7X^.e ",
"^ aX4X3.X Q Q Q ^ v L N L P z L B L ' b n ] Y b T l.z.x.Z I ] H I Z n b 1 = > q > q $ X aX7XY.e ",
"^ xX7X3.X ;.;.1.<.3 m c Z V ; m c b I < z I I 1 P ] ] k.L m I V H Z M z 1 $ $ , $ > $ X aX7X5.4 ",
"e xX7X3.X q q q 4 < b < c v k.v b N H c z n H < V ` I [ V c N n N m m M 1 $ $ $ $ $ $ X aX7XY.4 ",
"e aX7X3.X $ , = , ; x ; b & J.v z.U c A.G.v B 3 1 V L Y n ; c ; c 1 V b 1 $ X $ X $ X X aX7X^.4 ",
"e aX7X3.X , , r 4 3 < 1 ; S R.I.G.}.F H P.l.v z % z N _ m - F g.V ; I Z x ; o X X X X X aX7X5.-.",
"e aX4X3.X , r e Q G 3 x ; Z.rXyXyXsX{.( }.dX`.v Z.G.H m < 2 eXtXK.N ' I x < o X X X X X aX4X5.e ",
"e xX7X3.X , e Q ^ ;.! S 1 v P.yXiXiXyX X.XgXvX6XfXsXc.z x 3 K.K.].f.| ' m < . @   +   X aX4X^.e ",
"e xX4X3.X q Q Q Q ;.;.;.n v.K.yXsXsXtXE.j.c.,.J.rXyXZ.P L z m.|.|.f.z.B.V < @           aX4X^.e ",
"e xX^.3.X q e Q ;.1.;.1.m.tXsXlXlXlXtXH.~ G G b v. Xc.' ` v m. X|.E } L.' < .   X   X   aX7X^.e ",
"e aX^.3.X , S Q ^ ;.;.1.V.tXlXzXzXzXlXdXiXiXdXsXeX}.l.Z B M }.yXV.1 ( J.l.< . X         4 7X^.e ",
"e aX^.3.o , Q ^ ;.;.;.1.m.rXgXiXgXlXlXgXiXsXgXzXgXsXZ.' P ) .XE.B % M D.h.< o     X   X ^ e ^.r ",
"^ aX^.3.X q Q ! ;.;.2.<.( ].yXyXiXiXsXdXiXsXsXsXsXyXc.z.[ B ] n o < c [ | < . X     +   ^ ^ 4 r ",
"^ aX4X3.X q Q ^ ;.;.-.<.x g.].tXyXkXvXvXdXyXsXyXiXiXD.B H 1 $ % < - 1 _ [ < o   +   X   3.aXY.r ",
"^ aX4X3.X q Q ^ ;.;.:.#...0 Z P.rX1X1X1X{.yXyXsXsXiXb.a.a.k % $ 1 $ < I _ < , , r $     aX7XY.r ",
"^ aX4X3.X , Q ^ ;.=.XX=X>XOX9 k T K.S.E.S.tXyXyXyX X] _ Z 1 = % 1 - < V Z < , r 4 $     aX7X^.r ",
"^ aX4X3.X q Q ^ ! *.;X:X:X;XO.O a j j i.v.m.m.H.v.q.L b._ 1 % $ 1 < < B B < 4 4 r $     aX4X^.S ",
"e aX^.3.X q Q ;.*.@X>X,X=X*X*X5 a 8.w.e.n.9.h 9.r.9.f b.z.< 5 $ 1 1 < B M - - - - X     aX).^.4 ",
"e aX^.3.X q Q ^ #.:X:X*X+X+XoX8 d a 7.0.9.w.r.r.w.7.h f %.+.+.7 z 1 < N v $ X X X X     aX).^.4 ",
"e 7X^.3.X q Q ;.=.+X-X+X@.5 ; I < f a 7.7.e.r.7.h h &.#.%X<X} l z < < M < - % , ,       aX7X^.G ",
"e 7X4X3.X q Q ^ ;.:... .6 F F 2.y 6.2XD.F.6X<XT T k | R.I.s.C k < $ 1 x , % , q q X X X aX7X^.e ",
"e aX4X3.X q Q ;.;.;.2.-.F ) / 6.-.jXbXfXkXbXbX9X%.J h.P.N.R.K 8 = 2 3 ; q q q : q X X X aX7X~.r ",
"e aX4X3.X q Q ^ ;.;.3.3.;.F =.=.X.%XjXeX8XjXhX$X@...u v.wX<.@XXX* < ; , q : q r q X X X aX4X5.r ",
"^ aX4X3.X q Q ;.;.;.3.3.5.;.t w # 7 6.c.>.T.4.O...J F { T.U ,.G.E # > , q r q r e X     aX4X5.r ",
"^ aX^.3.X q Q Q -.-.3.3.Y.Y.1.f # & U c.) K { F F F F 2 v E u.a.C.y.: q q q , q e X     aX7XY.r ",
"^ aX^.3.X q Q ;.-.-.3.Y.3.Y.K i # < U c.' U ( ( ( F y 9 : C E Q.C.a.C 2 q r r r r X     aX4X^.4 ",
"^ aX^.3.X q Q ^ 1.;.3.Y.5.5.K i 8 :.2.c.( H >.K ^ 3.=.u k l u.p.4.h.C.E r r r r q X   X aX4X^.4 ",
"^ aX^.3.X q Q ;.1.3.3.5.~.1.i # K %XuXG.6 / uXjXhX8Xf.S 7 1 B #.%.'.M.x ..0 r - q X   X aX7XY.e ",
"G aX).3.X q -.^ 1.3.3.Y.Y.2.a * ..,._.#.O.#XR.cX.XU.X.XX9 # u #XX.A v oXO.q r 4 > X   X aX4X^.r ",
"4 aX3X3.X q -.-.1.3.3.Y.^.1.g d $.u { @X@.,X;XT.4.#X@.#.D p d 8 9 j 5 O.6 r r r 4 X   X aX4X^.r ",
"^ aX).3.X > Q Q ;.;.1.3.2.k g d W ) #.XXo.&X&X#.oX$X:.} ' b g a 0.t.d , r q , r r X     aX4X^.r ",
"4 aX~.3.X = e r r e e e v a g C M B W t 2 p a i S ~ !.!.N.l d p 8.t.9.- q q , r , X     aX4X^.r ",
"4 7X).-.xXxXxXaXxXxXxXpX0XK R A E a.a.M J / { ^ / ) d.W.d.E l p h r.e.0XaXaXaXaXaXaXaXaX;.aX4X4 ",
"G 7X-.aX4X3X4X4X4X4X4X3X^.U.3X` E H E C Y.).).).).3.p.!.!.E s G D 0.8.^.).).4X4X4X4X4X4X4X;.aX4 ",
"e -.aXxXxXxXxXxXaXaXxXxXxXxXkX5Xv S 2 Y.jXxXaXaXaX7X~ } ( E 1.aX8XT.a jXxXxXxXxXxXxXaXxXxXaX;.S ",
"e e 4 e e -.! e e G 3 e e ^ ^ ~ G Q 3 e ^ v v 4 4 3 4 S 4 2 e e v v p G ^ ^ 4 4 G 4 4 4 r r r r "
};
