/* XPM */
static char *xpm_[] = {
/* columns rows colors chars-per-pixel */
"48 48 229 2 ",
"   c #040203",
".  c #100906",
"X  c #171009",
"o  c #1A120B",
"O  c #0F1214",
"+  c #171615",
"@  c #3B0D07",
"#  c #23180E",
"$  c #28190D",
"%  c #331B0D",
"&  c #360E15",
"*  c #251A12",
"=  c #2B1C10",
"-  c #2A1A1A",
";  c #321E10",
":  c #3A210F",
">  c #25231C",
",  c #2B251C",
"<  c #362112",
"1  c #3C2413",
"2  c #352518",
"3  c #3C2619",
"4  c #3D2C1C",
"5  c #3E311D",
"6  c #1C0F29",
"7  c #161538",
"8  c #2F1530",
"9  c #2C2820",
"0  c #262529",
"q  c #352927",
"w  c #3F3420",
"e  c #333229",
"r  c #2B283A",
"t  c #332D3C",
"y  c #4C0402",
"u  c #480804",
"i  c #560604",
"p  c #431805",
"a  c #59120A",
"s  c #471719",
"d  c #780B0A",
"f  c #69160D",
"g  c #6F1410",
"h  c #46260C",
"j  c #552705",
"k  c #422614",
"l  c #452914",
"z  c #4B2B16",
"x  c #4C251A",
"c  c #442A1A",
"v  c #4C2C19",
"b  c #582717",
"n  c #522E1A",
"m  c #40321E",
"M  c #4A321D",
"N  c #553314",
"B  c #55311C",
"V  c #5C331D",
"C  c #663706",
"Z  c #772E13",
"A  c #60351E",
"S  c #673A18",
"D  c #432B23",
"F  c #47372C",
"G  c #563726",
"H  c #5B3B23",
"J  c #453437",
"K  c #573E33",
"L  c #692E2D",
"P  c #633621",
"I  c #653922",
"U  c #6B3C24",
"Y  c #713F27",
"T  c #783F21",
"R  c #734514",
"E  c #54412B",
"W  c #4B4330",
"Q  c #584737",
"!  c #554835",
"~  c #6A4228",
"^  c #734325",
"/  c #744329",
"(  c #79452B",
")  c #7D4A2D",
"_  c #7C522F",
"`  c #684733",
"'  c #794C34",
"]  c #7D5336",
"[  c #0E124B",
"{  c #171D56",
"}  c #1C2452",
"|  c #27264A",
" . c #33304E",
".. c #1A2564",
"X. c #122879",
"o. c #252D69",
"O. c #393766",
"+. c #471B46",
"@. c #493343",
"#. c #4D3C6E",
"$. c #54494E",
"%. c #585643",
"&. c #614D44",
"*. c #635345",
"=. c #6A554B",
"-. c #695E4C",
";. c #755C51",
":. c #6A614E",
">. c #6C6555",
",. c #756A57",
"<. c #746E5C",
"1. c #51496F",
"2. c #645674",
"3. c #7B6862",
"4. c #7C726A",
"5. c #840B0B",
"6. c #91130F",
"7. c #A21612",
"8. c #B71A15",
"9. c #862D14",
"0. c #8A371A",
"q. c #BC231D",
"w. c #8F392D",
"e. c #B4302C",
"r. c #D2362D",
"t. c #854B07",
"y. c #854F12",
"u. c #8C5515",
"i. c #975913",
"p. c #A06014",
"a. c #AB6818",
"s. c #8C4924",
"d. c #814D2F",
"f. c #8C532D",
"g. c #855231",
"h. c #8A5533",
"j. c #8D5936",
"k. c #85583C",
"l. c #925C38",
"z. c #A55D36",
"x. c #9D6524",
"c. c #956432",
"v. c #96623B",
"b. c #9A653D",
"n. c #A76A22",
"m. c #AD7234",
"M. c #E44339",
"N. c #8C5A44",
"B. c #935E44",
"V. c #B35C51",
"C. c #9A6545",
"Z. c #886C59",
"A. c #956F5C",
"S. c #A36C42",
"D. c #AA6943",
"F. c #A77044",
"G. c #AA7346",
"H. c #B7784D",
"J. c #AB7352",
"K. c #B87653",
"L. c #BA4E6D",
"P. c #936D6A",
"I. c #8A7368",
"U. c #807E69",
"Y. c #877C78",
"T. c #AE786A",
"R. c #C57756",
"E. c #C96672",
"W. c #C88638",
"Q. c #BA8144",
"!. c #B88556",
"~. c #898571",
"^. c #8B8773",
"/. c #958D7C",
"(. c #AA8E78",
"). c #B58C72",
"_. c #C68958",
"`. c #D08C5D",
"'. c #D78C68",
"]. c #C8906E",
"[. c #D99666",
"{. c #D99776",
"}. c #E49775",
"|. c #E1A07A",
" X c #162B85",
".X c #162B9C",
"XX c #1D319D",
"oX c #223193",
"OX c #1933A7",
"+X c #1B36B2",
"@X c #3945B5",
"#X c #6A6994",
"$X c #4448B8",
"%X c #676CAE",
"&X c #223CCB",
"*X c #2C46D8",
"=X c #2F4CE8",
"-X c #4864F5",
";X c #877782",
":X c #9A9782",
">X c #9D978E",
",X c #988C90",
"<X c #AA9390",
"1X c #ABA69A",
"2X c #A19CA8",
"3X c #B0A9A5",
"4X c #DCA888",
"5X c #CBAC96",
"6X c #D1AB90",
"7X c #EBAD89",
"8X c #EDB291",
"9X c #F5B996",
"0X c #D4BAB1",
"qX c #F9C19D",
"wX c #C7C1B4",
"eX c #CCC6B9",
"rX c #E5C5A9",
"tX c #FAC5A3",
"yX c #F7C8A9",
"uX c #F7CDB6",
"iX c #FACEB2",
"pX c #F9D3B9",
"aX c #BEB8C6",
"sX c #D4CDCE",
"dX c #E9CBCB",
"fX c #FBDCC8",
"gX c #E2DED4",
"hX c #E3DEEC",
"jX c #EFE9F3",
/* pixels */
"w w w w ! ! ! w D 5 D 5 5 ! ! c m m m m c 4 5 5 5 5 m m m D ! ! ! ! 5 5 5 5 5 5 w w w w ! ! w e ",
"w <.eX:X^.^.U.U.U.^.:X~.U.U.4.~.4.:.Q M n n n B n B z l Q :.,.^.^.^.^.~.U.4.:X^.^.:XU.~.U.:X<.e ",
"w eX<.eX^.^./.^.:X^.^.^./.~.~.:.! V V E A Y Y Y A ^ U I B z E -.^.:X:X:X:X:X:X:X:X:X/.:X:X<.U.e ",
"w eX^.%.eXeXeXeXeXeXeXeXwX/.Q E S ( ) d.( ( ( U ( ) ) ( ( ( A B *.3XeXeXeXeXeXeXeXeXeXeX<.^.U.e ",
"! eX:X<.# 9 > 9 9 9 9 9 c A H U d.h.h.g.g.d.) ( g.l.l.g.h.c.) P B 1 4 5 w 9 D , 9 9 , # eX^.U.e ",
"! eX^.<.# 9 9 9 9 9 9 4 I A U h.v.f.h.j.g.) g.h.c.j.j.b.g.j.S._ V l < > 9 > , 9 * 9 # # eX/.^.e ",
"! eX:X<.X 9 # > > = $ v U P ) b.) v.F.S.d.l.f.h.S.S.g.b.S.g.v.S.^ B 1 $ # 2 # # 2 # # # eX1X^.w ",
"w eX:X<.X # # + # # < I P Y j.d.v.S._.S.j.!.j.g.!.!.G.g.H.G.h.G.g.V z > + o + # + + o   eX1XU.5 ",
"w 1X1X<.X X X X X # B A P ) g.g.S.b._.] j.[.C.( `.[.`.j.C._.j.b.h.U n < # X X X X X X X eX1XU.w ",
"w eX1X<.X X # X X < A I P ( U ( l.h.G.( g.H.v.Y Q._.`.S.] G.b.g.d.^ P x $ X # X o X X X eX1X^.w ",
"w 1X1X<.X # o * # z U I P ( V U d.d.l.A ^ b.j.I j.G.G.b.S g.b.) ( U A l ; # + # * # * X eX:X^.w ",
"w eX1X<.X X o X o l I V P U v I I U g.B V g.) n ^ j.v.b.H ^ h.A ^ I V z 1 $ > , 9 > * o eX:X^.w ",
"! eX:X<.X w W w W 3 V v I A < V B B ^ 1 v Y U v U d.d.h.V V ^ V I A B l 1 > 9 > > , # o eX1X~.5 ",
"! eX:X<.X W W W ! 2 n k V n B x k v U < 1 P P ; H ( Y d.V n I n V N B z 1 # > 9 > 9 # o eX1XU.5 ",
"! gX1X<.X %.%.$.O.2 c ; l k C.c ^ V n ^ n z V 1 x U U / V k n k M z N z 1 $ # , # > + o eX1X~.w ",
"w gX1X<.X 9 r  X+X| k < 1 < J.K B.` k B.' % n 1 % z A Y n ; % k l 2 V N 1 = # # # # # X eX1XU.5 ",
"5 eX1X<.X * ..*X*XoX; z ; ` {.7X].` 2 C.{.;.h 1 J.H B I k 2 P.].g.1 U V l < o # X # X X eX1X4.5 ",
"w eX1X<.X } +X=X=X&X| c ; ` '.9XtX).` ].8XiXZ.(.pX4X` k < 4 ]._.R.T / U l < o X X X X X eX1XU.%.",
"w eX:X<.X ..*X=X*X+X.Xr k x z.9XqX9X7X}.R.6X5X8XyX9XN.B B s z.`.'.s.) ) z < o X X X X X eX:X^.w ",
"w gX1X<.X | OX*XOXX.7 2 ^ '.4XyXiXiX7Xz.N % $ h K.9XN.( U k z.}.}.s.j.l.V < . O   O   X eX/.^.w ",
"w gX:X<.X 9  .[ [ 7 G M z.8XiXfXfXfXyX{.).).).T.D._.) ~ ^ 1 H.7XH.V h.v.V : +           eX:X^.w ",
"w gX^.<.X 9 5 1 < G ` / z.7XpXuXfXfXfXpXtXtXpXfXiXtXk.I B H 7X7Xf.< h.v.V < .   X   X   eX1X^.w ",
"w eX^.<.X 9 4 W 1 c G ;.B.}.yX9XyXiXiXiXtXtXiXiXyXtXN.j.Y P K.h.< = g.b.V < . X         5 1X^.w ",
"w eX^.<.o 9 W ! ! 3 F ;X;.H.9X9X9XyXyXyXtXqXqXqXtX9Xk./ / v h ; # = _ j.z < o     X   X ! m ^.e ",
"! eX^.<.X 9 W ! %.! F $.I.V s.}.8X0XdXdX8X9XtX9X9XtXS.R R ; $ # 1 = ~ ) z : . X     O   ! ! w e ",
"! eX:X<.X 9 W ! %.%.! %.Q D j s.K.E.L.E.V.9XtXtXtX8X' u.u.k = # < < V U l : X   O   X   <.eXU.e ",
"! eX:X<.X 9 W ! %.%.-.-.&.$.n j a T s.V.E.{.}.}.'.H.Y d.I < # < k ; B V l < = , e #     eX1XU.e ",
"! eX:X<.X 9 W ! %.%.-.-.<.-.U j i d 7.9.s.9.g L 0.f b b.d.2 * 1 k = z V z 2 e e w #     eX1XU.e ",
"! eX:X<.X 9 W ! %.%.-.<.<.-.=.S a 5.8.q.e.7.7.r.r.7.g ( ' - [ q < # < B M , w 5 e +     eX:X^.w ",
"w eX^.<.X 9 W %.%.%.-.<.<.<.U.,.p u 5.6.7.r.r.q.5.d g s O.@XO.z # = l B k # < = < X     eX:X^.5 ",
"w eX^.<.X 9 W ! %.%.-.<.<.-.<.4.e @.L Z w.w.e.d g a #.%X;XK.R h # < n B < o X X X X     eX:X^.5 ",
"w 1X^.<.X 9 W %.%.-.<.<.<.<.<.<.$.2XaX6X3XsXsXY.` H p._.x.n.S % # 1 n 1 + < = = ,       eX1X^.5 ",
"w 1X:X<.X 9 W ! %.-.<.^.<.<.<.<.$.aXhXrXdXjXjX%Xo.| H x.`.4X#. X} 4 1 > 9 < , , 9 X X X eX1X^.w ",
"w eX:X<.X 9 W %.%.%.<.<.<.4.<.<.s  .2XA.I.3X#X XX. .v S {.,X@.$X1.< = , 9 , 9 < 9 X X X eX1XU.e ",
"w eX:X<.X 9 W ! %.%.<.<.4.,.<.%.y % =.k.` =.&.t r F M l Q &.C i.n.u.h , 9 < , e 9 X X X eX:XU.e ",
"! eX:X<.X 9 W %.%.%.<.<.4.^.,.x @ = H g.K N H H ~ H D 7 3 j t.t.m.W.y.c 9 e 9 e w X     eX:XU.e ",
"! eX^.<.X 9 W W %.%.<.<.~.U.<.z & J ` j.' ~ ~ V G W  .} - % C a._.` t.y.M , , , w X     eX1XU.e ",
"! eX^.<.X 9 W %.%.! <.U.<.4.>.z q 2.,XZ.q ~ Y.,XY.,X_ c s @ C C J 2._.n.z t e e e X     eX:X^.w ",
"! eX^.<.X 9 W ! >.%.<.U.U.~.:.& J I.0X=.[ #.5XjXsX).^ o.6 y s O.oXR a.n ..{ e e 9 X   X eX:X^.w ",
"! eX^.<.X 9 W %.:.<.,.U.U.4.E s } F ] XXX.*X#X6XA.1. XX.q i u D oX6 p { .X7 9 > 9 X   X eX1XU.w ",
"w eX:X<.o 9 %.! :.<.<.4.U.^.Q g N.I.O.+XX.-X=X#.+X&X#XY.l.f i f Z a ; 0 0 e e 5 > X   X eX:X^.e ",
"w eX:X<.o 9 %.%.:.<.<.~.~.>.b s.R.|.T.P.L +.+.8 P.<XZ.Z.] f i 7.M.6.s e e e e e 5 X   X eX/.^.e ",
"! eX/.<.X = W W ! %.>.<.<.Q i Z ` b.C.v.N i i y f.A.>.` ^ x i d M.6.@ 9 e 9 9 e e X     eX:X^.e ",
"w eX~.<.X # e e e w 5 w F l i C N H E w ; u y y D K !.!.c.j u i e.d @ > 9 9 = e , X     eX:X^.e ",
"w 1X:X%.gXgXgXeXgXgXgXeXeXsX<.R t.p.i.N @ 3.3X1X&.S a.W.a.t.h u d i ,XeXeXeXeXeXeXeXeXeX%.eX:XF ",
"w 1X%.eX:X:X:X:X:X:X:X:X/.:X/.R R G R j *./.:X:X^.K u._.!.y.B *.L b I.:X:X:X:X:X:X:X:X:X:X%.eX5 ",
"w %.eXgXgXgXgXgXeXeXgXgXgXgXgX>X4 c 2 Y.sXgXeXeXeX1XG ' ! S ^.gXI.1XeXgXgXgXgXgXgXgXeXgXgXeX! w ",
"w w w w w %.! F 5 5 5 5 5 ! ! ! F W 5 m ! m w w w 4 c D 5 5 5 w 5 D D Q ! ! w w w w w w e e e e "
};
