/* XPM */
static char *result[] = {
/* columns rows colors chars-per-pixel */
"48 48 58 1 ",
"  c black",
". c #3D0101",
"X c #211400",
"o c #271818",
"O c #30200E",
"+ c #1A1923",
"@ c #34353D",
"# c #6B0808",
"$ c #52270E",
"% c #482714",
"& c #4D2E17",
"* c #5F361E",
"= c #693D0A",
"- c #796100",
"; c #7B4A29",
": c #7A4A2B",
"> c #000057",
", c #00007B",
"< c #535353",
"1 c #656965",
"2 c #6C6F74",
"3 c #75777D",
"4 c #A30E0E",
"5 c #891F29",
"6 c #EB1014",
"7 c #D32C1F",
"8 c #964B1F",
"9 c #9F5F24",
"0 c #B36739",
"q c #AF763B",
"w c #9B6443",
"e c #897C7E",
"r c #CBA400",
"t c #FFB900",
"y c #C78961",
"u c #EA9777",
"i c #E5A261",
"p c #111188",
"a c #69719D",
"s c #2D2ED8",
"d c #7D808B",
"f c #878888",
"g c #8F9094",
"h c #98999C",
"j c #A8A8A7",
"k c #B3B4B6",
"l c #FFD781",
"z c #F9C19D",
"x c #B1B9DA",
"c c #C1C2C7",
"v c #FBDCC8",
"b c #E4DADE",
"n c #CEDCEC",
"m c #DEDEE1",
"M c #E4F2F4",
"N c #ECFFFF",
"B c #F2FAFB",
"V c white",
/* pixels */
"111111111111111111121111111111111111111111112221",
"ckkkkkjjjjjhkkjkkjkhhkk3cjjhkjk1ckkcccckjkkkhjc1",
"chfhggggghgggghggghghhj2cggghhk1mhhhhghgggghghk1",
"mgfdfhdhhhgggffggg%%%%%%%%%%%%k1mghgggghhhggghj1",
"mfghdffgfgffhhf%%%*%%%%%%%%%%%%%mhghgghhghgghhk1",
"mgffhffggghhg%%***:*%**%**%%*%%%%%gghgfgghhhhhh1",
"mggfjgffhhhh%**:*::%*::%::*%:**%%*%ghgghhgfghhh1",
"mmmmmmmccmc%*::*:w:*:::*w::*:::*%:*Ohfhgfhhgfhj1",
"1111111111%*:w::ww:::w::ww:::w:*%:w*Odhhhhhhghh1",
"ckhkhkk1c%*:ww::yw:::ww:ww:::ww:**:wOhgghgghhhk1",
"cjhhhgk1m%:wyw*wyw::wyw:wyw:*wyw**:w*Ofggfghhhj1",
"cjghggk1%*wyw:%yyw:*wyy:wyw:*:yw:**::Offggggggk1",
"khhhhhk1%:yyw*%yyw:*wwy::yw**:ww:**::Ogffggghgj1",
"khgfhhh1%wyww%%wy:*%:ww::ww*%*w::**::Ofggffghhj1",
"cjhghhk1%www:%%ww:*%*ww::ww*%*w:*%*::Ofhhgggghk1",
"cjhgggk1%www*%%ww:%%*:w:*:w%%%::*%**:*OmmMmmmmm1",
"chggggk1%:w:%O%:w:%%%:w:%::%%%*%*%%*:*O111121111",
"chghhhj1O:w*%O%::*%O%*w:%*:%O%%%*%%*:*Okkjkhhkk1",
"cjhhhhj1O*:%%OO*:*%OO%:%O%:*OO%%%%%*:*Oggghghhj1",
"kghhggj1O%:%OOO%*%OOuO*%OO%*OOO%%%%*:*Oggghghhj1",
"cjhhghk1BO*%OzuO*%zzzuOO%OO%88OO%%%***Oghfghghj1",
"cjhhhgk1BO%%0uu0OO80uzOO:%OOu08O%%%***Oghhhhfgj1",
"cjfhhhk1BhOO0uu8   80uO*w%Ouvz8OO%%***OOhghhgfj1",
"chfhggk1Bmmm0uu8ooe 8uO%:OOuvz$OO%%****Occckccc2",
"cffggfk111110zu055be8%w%O*Ouz0$OO%%****O11111111",
"chgfggj1ckkk0vzu5Vbb0O:%%w%u0$OOO%%****%Okhkhkk1",
"chfgfgk1chf0zvzu66VuuO*O::O$$OOOO%%%****Ojhhhgk1",
"cjgfggj1mgf0zvvvvvzzz%OO*%O8OOOOO%%%**%*%Oghggk1",
"mhghggh1mfg0uzvvvzzzz%wO%OO0OOOO%%*%**%*%Ohhhhk1",
"mkggfgk1mgff$uzzzzzzz%:%w%O#OOOO%%*%**%%%Ogfhhh1",
"mkfdfgk1mggfj$0uzzzzzO*%:O44##OOO%****%%%Ohghhk1",
"mmmcmcc1mmmmmm$$00uuuOO*%O#....OO%****%%Ojhgggk1",
"3111111122222221$$$$$-OOOpli9=..O%***%%%Ohggggk1",
"ckkcccckjkkkhjc2.#44#rt-p9i8==..O%*%*%%Ochghhhj1",
"mhhhhghgggghghk1t..#O%*%9vNNx,...%*%%%O1cjhhhhj1",
"mghgggghhhggghj1tNNNO*:Oaxnpss,#.%%%%Oj1kghhggj1",
"mhghgghhghgghhk1raxnO*:Oo&=,pi9=#.%OOhk1cjhhghk1",
"mhgghgfgghhhhhh1craxO%:p,,anili94#.hhhh1cjhhhgk1",
"mhgghgghhgfghhh2=;q&;O%&&&X&=9l=#4#.hhh1cjfhhhk1",
"mhghhfhgfhhgfhj=9&&;q&O;&&>s9il,#74..hj1chfhggk1",
"mgggfdhhhhhhghh=,,ptNNrppo>p,9s,.47.#.h1cffggfk1",
"mgdhghgghgghhhk>>,sptxn---->>pp,.#7.#.k1chgfggj1",
"mfgffgfggfghhhj1,pxxNNnxnsp,>>>..#74#.j1chfgfgk1",
"Bgffghffggggggk1aa+@vuu0xnxaa.....74..k1cjgfggj1",
"Bhffgggffggghgj1mk&<<@+$8+++......##.gj1mhghggh1",
"Bdfgfdfggffghhj1;q;;q;+1++;&X....f..hhj1mkggfgk1",
"Bhfhhhfhhgggghk2;liq;&k1X&&&X..hhgggghk1mkfdfgk1",
"BmmmMmmmmMmmmmm1m&q;&ccX;;&XMmmmmMmmmmm1mmmcmcc1"
};
