/* XPM */
static char *result[] = {
/* columns rows colors chars-per-pixel */
"48 48 58 1 ",
"  c black",
". c #3D0101",
"X c #211400",
"o c #271818",
"O c #30200E",
"+ c #1A1923",
"@ c #34353D",
"# c #6B0808",
"$ c #52270E",
"% c #482714",
"& c #4D2E17",
"* c #5F361E",
"= c #693D0A",
"- c #796100",
"; c #7B4A29",
": c #7A4A2B",
"> c #000057",
", c #00007B",
"< c #535353",
"1 c #656965",
"2 c #6C6F74",
"3 c #75777D",
"4 c #A30E0E",
"5 c #891F29",
"6 c #EB1014",
"7 c #D32C1F",
"8 c #964B1F",
"9 c #9F5F24",
"0 c #B36739",
"q c #AF763B",
"w c #9B6443",
"e c #897C7E",
"r c #CBA400",
"t c #FFB900",
"y c #C78961",
"u c #EA9777",
"i c #E5A261",
"p c #111188",
"a c #69719D",
"s c #2D2ED8",
"d c #7D808B",
"f c #878888",
"g c #8F9094",
"h c #98999C",
"j c #A8A8A7",
"k c #B3B4B6",
"l c #FFD781",
"z c #F9C19D",
"x c #B1B9DA",
"c c #C1C2C7",
"v c #FBDCC8",
"b c #E4DADE",
"n c #CEDCEC",
"m c #DEDEE1",
"M c #E4F2F4",
"N c #ECFFFF",
"B c #F2FAFB",
"V c white",
/* pixels */
"111111111111111111121111111111111111111111112221",
"ckkkkkjjjjjhkkjkkjkhhkk3cjjhkjk1ckkcccckjkkkhjc1",
"chfhggggghgggghggg%%%%%%%%%%%%k1mhhhhghgggghghk1",
"mgfdfhdhhhgggff%%%*%%%%%%%%%%%%%mghgggghhhggghj1",
"mfghdffgfgffh%%***:*%**%**%%*%%%%%ghgghhghgghhk1",
"mgffhffggghh%**:*::%*::%::*%:**%%*%ghgfgghhhhhh1",
"mggfjgffhhh%*::*:w:*:::*w::*:::*%:*Ohgghhgfghhh1",
"mmmmmmmccm%*:w::ww:::w::ww:::w:*%:w*Ofhgfhhgfhj1",
"111111111%*:ww::yw:::ww:ww:::ww:**:wOdhhhhhhghh1",
"ckhkhkk1c%:wyw*wyw::wyw:wyw:*wyw**:w*Ogghgghhhk1",
"cjhhhgk1%*wyw:%yyw:*wyy:wyw:*:yw:**::Ofggfghhhj1",
"cjghggk1%:yyw*%yyw:*wwy::yw**:ww:**::Offggggggk1",
"khhhhhk1%wyww%%wy:*%:ww::ww*%*w::**::Ogffggghgj1",
"khgfhhh1%www:%%ww:*%*ww::ww*%*w:*%*::Ofggffghhj1",
"cjhghhk1%www*%%ww:%%*:w:*:w*%%::*%**:*Ohhgggghk1",
"cjhgggk1%:w:%O%:w*%%%:w:%::%%%*%*%%*:*OmmMmmmmm1",
"chggggk1O:w*%O%::*%O%*w:%*:%%%%%*%%*:*O111121111",
"chghhhj1O*:%%O%*:*%O%%:*%%*%%O%%%%%*:*Okkjkhhkk1",
"cjhhhhj1O%:%OOO%:%OOO%*%O%%%OOO%%%%*:*Oggghghhj1",
"kghhggj1BO*%OzuO*OzzzO%O%O%OO8OO%%%***Oggghghhj1",
"cjhhghk1BO%O0uu0O880uzOO*%OOu08O%%%***Oghfghghj1",
"cjhhhgk1BdOg0uu8   80uO%w%Ouvz8OO%%***Oghhhhfgj1",
"cjfhhhk1Bhfh0uu8ooe 8%*O%OOuvz$OO%%***Ohhghhgfj1",
"chfhggk1Bmmm0zu055be8%wOO*Ouz0$OO%%***Occcckccc2",
"cffggfk111110vzu5Vbb0O*O%w%u0$OOO%%***%O11111111",
"chgfggj1ckk0zvzu66VuuOO%:*O$$OOOO%%***%Ockhkhkk1",
"chfgfgk1chf0zvvvvvzzz%O%*%O8OOOOO%%***%Ocjhhhgk1",
"cjgfggj1mgf0uzvvvzzz%wO%OO80OOOO%%%**%*%Ojghggk1",
"mhghggh1mfgh$uzzzzzz%*%w%O00OOOO%*%**%*%Ohhhhhk1",
"mkggfgk1mgffh$0uzzzzO%:*%O#4#.OO%*%**%%%Ohgfhhh1",
"mkfdfgk1mggfjg$$00uuOO*%O44###.O%****%%%Ojhghhk1",
"mmmcmcc1mmmmmmmc$$$$-OOO74#.....%***%%%Ocjhgggk1",
"3111111122222221.#44rt-74psli9..%*%*%%%Ochggggk1",
"ckkcccckjkkkhjc2t..O%*%#psl98=..%*%%%%O1chghhhj1",
"mhhhhghgggghghk1tNNO*:Op=unNn=..%%%%%Ok1cjhhhhj1",
"mghgggghhhggghj1raxO*:Op$xps,..#.%%OOhj1kghhggj1",
"mhghgghhghgghhk1craO%:sp,;sspi.4.OOghhk1cjhhghk1",
"mhgghgfgghhhhhh1c;q&O%;&&anill9#4.hhhhh1cjhhhgk1",
"mhgghgghhgfghhh2c&&;qOq;&&&=9il94.fghhh1cjfhhhk1",
"mhghhfhgfhhgfhj1c,ptNNrpp,s9ili=7#.gfhj1chfhggk1",
"mgggfdhhhhhhghh1,psptxn--,p,sp,.74..ghh1cffggfk1",
"mgdhghgghgghhhk1,sssp,sssp>>pp,.47.#.hk1chgfggj1",
"mfgffgfggfghhhj1axNNxaxNxxa>>>..#7.#.hj1chfgfgk1",
"Bgffghffggggggk1kjf808vzzu8.....#7##.gk1cjgfggj1",
"Bhffgggffggghgj1mkg+++@<<@+.....#4#..gj1mhghggh1",
"Bdfgfdfggffghhj1mkggX;&qq;&.....##.ghhj1mkggfgk1",
"Bhfhhhfhhgggghk2mkgfX;&li9=...fh..ggghk1mkfdfgk1",
"BmmmMmmmmMmmmmm1mmmX;&q9;&&mMmmmmMmmmmm1mmmcmcc1"
};
