/* XPM */
static char *result[] = {
/* columns rows colors chars-per-pixel */
"48 48 59 1 ",
"  c black",
". c #3D0101",
"X c #211400",
"o c #271818",
"O c #30200E",
"+ c #1A1923",
"@ c #34353D",
"# c #6B0808",
"$ c #52270E",
"% c #482714",
"& c #4D2E17",
"* c #5F361E",
"= c #693D0A",
"- c #796100",
"; c #7B4A29",
": c #7A4A2B",
"> c #000057",
", c #00007B",
"< c #535353",
"1 c #656965",
"2 c #6C6F74",
"3 c #75777D",
"4 c #A30E0E",
"5 c #891F29",
"6 c #EB1014",
"7 c #D32C1F",
"8 c #964B1F",
"9 c #9F5F24",
"0 c #B36739",
"q c #AF763B",
"w c #9B6443",
"e c #897C7E",
"r c #CBA400",
"t c #FFB900",
"y c #C78961",
"u c #EA9777",
"i c #E5A261",
"p c #111188",
"a c #69719D",
"s c #2D2ED8",
"d c #7D808B",
"f c #878888",
"g c #8F9094",
"h c #98999C",
"j c #A8A8A7",
"k c #B3B4B6",
"l c #FFD781",
"z c #F9C19D",
"x c #B1B9DA",
"c c #C1C2C7",
"v c #D3D0C8",
"b c #FBDCC8",
"n c #E4DADE",
"m c #CEDCEC",
"M c #DEDEE1",
"N c #E4F2F4",
"B c #ECFFFF",
"V c #F2FAFB",
"C c white",
/* pixels */
"111111111111111111121111111111111111111111112221",
"ckkkkkjjjjjhkkjkkjkhhkk3cjjhkjk1ckkcccckjkkkhjc1",
"chfhggggghgggghggghghhj2cggghhk1Mhhhhghgggghghk1",
"Mgfdfhdhhhgggffggg%%%%%%%%%%%%k1Mghgggghhhggghj1",
"Mfghdffgfgffhhf%%%*%%%%%%%%%%%%%Mhghgghhghgghhk1",
"Mgffhffggghhg%%***:*%**%**%%*%%%%%gghgfgghhhhhh1",
"Mggfjgffhhhh%**:*::%*::%::*%:**%%*%ghgghhgfghhh1",
"MMMMMMMccMc%*::*:w:*:::*w::*:::*%:*Ohfhgfhhgfhj1",
"1111111111%*:w::ww:::w::ww:::w:*%:w*Odhhhhhhghh1",
"ckhkhkk1c%*:ww::yw:::ww:ww:::ww:**:wOhgghgghhhk1",
"cjhhhgk1M%:wyw*wyw::wyw:wyw:*wyw**:w*Ofggfghhhj1",
"cjghggk1%*wyw:%yyw:*wyy:wyw:*:yw:**::Offggggggk1",
"khhhhhk1%:yyw*%yyw:*wwy::yw**:ww:**::Ogffggghgj1",
"khgfhhh1%wyww%%wy:*%:ww::ww*%*w::**::Ofggffghhj1",
"cjhghhk1%www:%%ww:*%*ww::ww*%*w:*%*::Ofhhgggghk1",
"cjhgggk1%:ww*%%ww:%%*ww:*w:*%%::*%**:*OMMNMMMMM1",
"chggggk1%:w:%O%w:*%%%w::%::%%%*%*%%*:*O111121111",
"chghhhj1O*w*%O%::*%O%w:*%:*%O%%%*%%*:*Okkjkhhkk1",
"cjhhhhj1O*:%%O%::%OO%::*O*%OOO%%%%%*:*Oggghghhj1",
"kghhggj1V%:%OOO*:OOuO*%OO%%OOOO%%%%*:*Oggghghhj1",
"cjhhghk1V%*OOzuO*OzuO%OO%%OOO8OO%%%***Oghfghghj1",
"cjhhhgk1VOOg0uuOO880uOOO*OOOu08O%%%***Oghhhhfgj1",
"cjfhhhk1Vhfh0uu8   80u%Ow*Oubz8OO%%**%Ohhghhgfj1",
"chfhggk1VMMM0uu8ooe 8%w%O%Oubz$OO%%**%Occcckccc2",
"cffggfk111110zu055ne8%:OOOOuz0$OO%%**%O111111111",
"chgfggj1ckkk0bzu5Cnn0O*%*wOu0$OOO%%**%O1ckhkhkk1",
"chfgfgk1chf0zbzu66CuuOO%:*O$$OOOO%%**%O1cjhhhgk1",
"cjgfggj1Mgf0zbbbbbzz%wO%*O80OOOOO%%***O1cjghggk1",
"Mhghggh1Mfg0uzbbbzzz*:OO%O00OOOO%%%*%*%Okhhhhhk1",
"Mkggfgk1Mgff$uzzzzzz%%w*%O00OOOO%%**%*%Okhgfhhh1",
"Mkfdfgk1Mggfj$0uzzzOO:**O4##.OOO%***%%%Ocjhghhk1",
"MMMcMcc1MMMMMM$$00u-O%%O4#..#.OO%***%%%Ocjhgggk1",
"3111111122222221$$$r-OO49sp=...O%**%%%O1chggggk1",
"ckkcccckjkkkhjc2.#O%t-4=ilsp...%%**%%%O1chghhhj1",
"Mhhhhghgggghghk1t.O:*%#ubii9...%%*%%%Ok1cjhhhhj1",
"Mghgggghhhggghj1tBO*:O.aBmu8..#.%%%%Ohj1kghhggj1",
"Mhghgghhghgghhk1rax%:Ox&isp>..#.%%OOhhk1cjhhghk1",
"Mhgghgfgghhhhhh1craO%x9mls>...4.OOhhhhh1cjhhhgk1",
"Mhgghgghhgfghhh2c;q&O9i9i&X...44.gfghhh1cjfhhhk1",
"Mhghhfhgfhhgfhj1c&&;=lli&X&X..#7#.hgfhj1chfhggk1",
"Mgggfdhhhhhhghh1c,pt=ii,&X,-...74.hhghh1cffggfk1",
"Mgdhghgghgghhhk1,psp,sp,X--oa..77..hhhk1chgfggj1",
"Mfgffgfggfghhhj1aaxsp>>>sBxa...47.#.hhj1chfgfgk1",
"Vgffghffggggggk1k+0BaxBBxz<+...#7##.ggk1cjgfggj1",
"Vhffgggffggghgj1++++++j+@<<;&..#7#..hgj1Mhghggh1",
"VdfgfdfggffghhjXX&&&Xgk1+qq;&...4#.ghhj1Mkggfgk1",
"VhfhhhfhhgggghkX;;&XXgk1&li9=hf...ggghk1Mkfdfgk1",
"VMMMNMMMMNMMMMM1XXXXvcc&q9;&NMMMMNMMMMM1MMMcMcc1"
};
