/* XPM */
static char *result[] = {
/* columns rows colors chars-per-pixel */
"48 48 59 1 ",
"  c black",
". c #3D0101",
"X c #211400",
"o c #271818",
"O c #30200E",
"+ c #1A1923",
"@ c #34353D",
"# c #6B0808",
"$ c #52270E",
"% c #482714",
"& c #4D2E17",
"* c #5F361E",
"= c #693D0A",
"- c #796100",
"; c #7B4A29",
": c #7A4A2B",
"> c #000057",
", c #00007B",
"< c #535353",
"1 c #656965",
"2 c #6C6F74",
"3 c #75777D",
"4 c #A30E0E",
"5 c #891F29",
"6 c #EB1014",
"7 c #D32C1F",
"8 c #964B1F",
"9 c #9F5F24",
"0 c #B36739",
"q c #AF763B",
"w c #9B6443",
"e c #897C7E",
"r c #CBA400",
"t c #FFB900",
"y c #C78961",
"u c #EA9777",
"i c #E5A261",
"p c #111188",
"a c #69719D",
"s c #2D2ED8",
"d c #7D808B",
"f c #878888",
"g c #8F9094",
"h c #98999C",
"j c #A8A8A7",
"k c #B3B4B6",
"l c #FFD781",
"z c #F9C19D",
"x c #B1B9DA",
"c c #C1C2C7",
"v c #D3D0C8",
"b c #FBDCC8",
"n c #E4DADE",
"m c #CEDCEC",
"M c #DEDEE1",
"N c #E4F2F4",
"B c #ECFFFF",
"V c #F2FAFB",
"C c white",
/* pixels */
"111111111111111111121111111111111111111111112221",
"ckkkkkjjjjjhkkjkkjkhhkk3cjjhkjk1ckkcccckjkkkhjc1",
"chfhggggghgggghgg%%%%%%%%%%%%hk1Mhhhhghgggghghk1",
"Mgfdfhdhhhgggff%%%%%%%%%%%%%*%%%Mghgggghhhggghj1",
"Mfghdffgfgffh%%%%%*%%**%**%*:***%%ghgghhghgghhk1",
"Mgffhffggghh%*%%**:%*::%::*%::*:**%ghgfgghhhhhh1",
"MggfjgffhhhO*:%*:::*::w*:::*:w:*::*%hgghhgfghhh1",
"MMMMMMMccMO*w:%*:w:::ww::w:::ww::w:*%fhgfhhgfhj1",
"1111111111Ow:**:ww:::ww:ww:::wy::ww:*%hhhhhhghh1",
"ckhkhkk1cO*w:**wyw*:wyw:wyw::wyw*wyw:%gghgghhhk1",
"cjhhhgk1MO::**:wy:*:wyw:yyw*:wyy%:wyw*%ggfghhhj1",
"cjghggk1MO::**:ww:**wy::yww*:wyy%*wyy:%fggggggk1",
"khhhhhk1MO::**::w*%*ww::ww:%*:yw%%wwyw%ffggghgj1",
"khgfhhh1MO::*%*:w*%*ww::ww*%*:ww%%:www%ggffghhj1",
"cjhghhk1O*:**%*::%%*w:*:w:*%%:ww%%*www%hhgggghk1",
"cjhgggk1O*:*%%*%*%%%::%:w:%%%*w:%O%:w:%MMNMMMMM1",
"chggggk1O*:*%%*%%%O%:*%:w*%O%*::%O%*w:O111121111",
"chghhhj1O*:*%%%%%OOO*%%*:%%O%*:*%O%%:*Okkjkhhkk1",
"cjhhhhj1O*:*%%%%OOOO*%O%*%OOO%:%OOO%:%Oggghghhj1",
"kghhggj1O***%%%OO888%OzO%OzzzO*OuzO%*Ofggghghhj1",
"cjhhghk1O***%%%O80u0OzzzOzu088O0uu0O%Ofghfghghj1",
"cjhhhgk1O***%%OO8zbu8zzzzu08   8uu0hOggghhhhfgj1",
"cjfhhhk1O***%%OO$zbuzzzzzu8 eoo8uu0hhghhhghhgfj1",
"chfhggk1O***%%OO$0zuzzzzzu8en550uz0kcMMcccckccc2",
"cffggfkO%***%%OOO$0uzzzzzz0nnC5uzb01111111111111",
"chgfggjO%***%%OOOO$$zzzzzzuuC66uzbz0kjk1ckhkhkk1",
"chfgfgkO%***%%OOOOOuuzzzzzzzzbbbbbz0hhk1cjhhhgk1",
"cjgfggO%*%**%%%OOOOuuzzzzzzzzzbbbzu0ggk1cjghggk1",
"MhghggO%*%**%*%OOOOuuuzzzzzzzzzzzu$fhfk1khhhhhk1",
"MkggfgO%%%**%*%OO.#4#Ouuzzzzzzzu0$hgfhj1khgfhhh1",
"MkfdfgO%%%****%O.#===4.uuuuuu00$$hhgghk1cjhghhk1",
"MMMcMccO%%%***%..=lli=7#$$$$$$$2MMccMMv1cjhgggk1",
"3111111O%%%*%*%.=9i99i=744#44#.111112211chggggk1",
"ckkcccckO%%%%*%.=llli9=#774#..tkjkkkhjc1chghhhj1",
"MhhhhghggO%%%%%..=mB==9p.##BBBtgggghghk1cjhhhhj1",
"MghgggghhhOO%%.#..,spx$pxxmmxarhhhggghj1kghhggj1",
"MhghgghhghggOO.4.ipss;,psxxxarhhghgghhk1cjhhghk1",
"Mhgghgfgghhhh.4#9llima&&;&;&q;fgghhhhhh1cjhhhgk1",
"Mhgghgghhgfgh.49li9=&&&;q&q;&&ghhgfghhh1cjfhhhk1",
"Mhghhfhgfhhg.#7=ili9s,pprBBtp,hgfhhgfhj1chfhggk1",
"Mgggfdhhhhh..47.,ps,p,--mxtpsp,hhhhhghh1cffggfk1",
"Mgdhghgghg.#.74.,pp>>psss,psss,ghgghhhk1chgfggj1",
"Mfgffgfggf.#.7#..>>>axxBxaxBBxaggfghhhj1chfgfgk1",
"Vgffghffgg.##7#.....8uzzb808ghffggggggk1cjgfggj1",
"Vhffgggffg..#4#.....+@<<@+++gggffggghgj1Mhghggh1",
"Vdfgfdfggffg.##.....&;qq&;Xgfdfggffghhj1Mkggfgk1",
"Vhfhhhfhhgggg..2M...=9il&;Xhhhfhhgggghk1Mkfdfgk1",
"VMMMNMMMMNMMMMM1MMMv&&;9q&;XNMMMMNMMMMM1MMMcMcc1"
};
