/* XPM */
static char *result[] = {
/* columns rows colors chars-per-pixel */
"48 48 59 1 ",
"  c black",
". c #3D0101",
"X c #211400",
"o c #271818",
"O c #30200E",
"+ c #1A1923",
"@ c #34353D",
"# c #6B0808",
"$ c #52270E",
"% c #482714",
"& c #4D2E17",
"* c #5F361E",
"= c #693D0A",
"- c #796100",
"; c #7B4A29",
": c #7A4A2B",
"> c #000057",
", c #00007B",
"< c #535353",
"1 c #656965",
"2 c #6C6F74",
"3 c #75777D",
"4 c #A30E0E",
"5 c #891F29",
"6 c #EB1014",
"7 c #D32C1F",
"8 c #964B1F",
"9 c #9F5F24",
"0 c #B36739",
"q c #AF763B",
"w c #9B6443",
"e c #897C7E",
"r c #CBA400",
"t c #FFB900",
"y c #C78961",
"u c #EA9777",
"i c #E5A261",
"p c #111188",
"a c #69719D",
"s c #2D2ED8",
"d c #7D808B",
"f c #878888",
"g c #8F9094",
"h c #98999C",
"j c #A8A8A7",
"k c #B3B4B6",
"l c #FFD781",
"z c #F9C19D",
"x c #B1B9DA",
"c c #C1C2C7",
"v c #D3D0C8",
"b c #FBDCC8",
"n c #E4DADE",
"m c #CEDCEC",
"M c #DEDEE1",
"N c #E4F2F4",
"B c #ECFFFF",
"V c #F2FAFB",
"C c white",
/* pixels */
"111111111111111111121111111111111111111111112221",
"ckkkkkjjjjjhkkjkkjkhhkk3cjjhkjk1ckkcccckjkkkhjc1",
"chfhggggghgggghggghghhj2cggghhk1Mhhhhghgggghghk1",
"Mgfdfhdhhhgggffgg%%%%%%%%%%%%gk1Mghgggghhhggghj1",
"Mfghdffgfgffhhf%%%%%%%%%%%%%*%%%Mhghgghhghgghhk1",
"Mgffhffggghhg%%%%%*%%**%**%*:***%%gghgfgghhhhhh1",
"Mggfjgffhhhh%*%%**:%*::%::*%::*:**%ghgghhgfghhh1",
"MMMMMMMccMcO*:%*:::*::w*:::*:w:*::*%hfhgfhhgfhj1",
"1111111111O*w:%*:w:::ww::w:::ww::w:*%dhhhhhhghh1",
"ckhkhkk1ckOw:**:ww:::ww:ww:::wy::ww:*%gghgghhhk1",
"cjhhhgk1MO*w:**wyw*:wyw:wyw::wyw*wyw:%fggfghhhj1",
"cjghggk1MO::**:wy:*:wyw:yyw*:wyy%:wyw*%fggggggk1",
"khhhhhk1MO::**:ww:**wy::yww*:wyy%*wyy:%ffggghgj1",
"khgfhhh1MO::**::w*%*ww::ww:%*:yw%%wwyw%ggffghhj1",
"cjhghhk1MO::*%*:w*%*ww::ww*%*:ww%%:www%hhgggghk1",
"cjhgggk1O*:**%*::%%*:w*:ww*%%:ww%%*ww:%MMNMMMMM1",
"chggggk1O*:*%%*%*%%%::%::w%%%*:w%O%:w:%111121111",
"chghhhj1O*:*%%*%%%O%*:%*:w%O%*::%O%*w*Okkjkhhkk1",
"cjhhhhj1O*:*%%%%%OOO%*O*::%OO%::%O%%:*Oggghghhj1",
"kghhggj1O*:*%%%%OOOO%%OO%*OuOO:*OOO%:%fggghghhj1",
"cjhhghk1O***%%%OO888O%zzO%OuzO*OuzOO*%fghfghghj1",
"cjhhhgk1O***%%%O80u08OzzzOu088OOuu0hOOgghhhhfgj1",
"cjfhhhk1O%**%%OO8zbu8zzzzu08   8uu0hhghhhghhgfj1",
"chfhggk1O%**%%OO$zbuzzzzzu8 eoo8uu0kcMMcccckccc2",
"cffggfk1O%**%%OO$0zuzzzzzu8en550uz01111111111111",
"chgfggj1O%**%%OOO$0uzzzzzz0nnC5uzb0hkjk1ckhkhkk1",
"chfgfgk1O%**%%OOOO$$zzzzzzuuC66uzbz0hhk1cjhhhgk1",
"cjgfggj1O***%%OOOOOuuzzzzzzzzbbbbbz0ggk1cjghggk1",
"MhghgghO%*%*%%%OOOOuuzzzzzzzzzbbbzu0hfk1khhhhhk1",
"MkggfgkO%*%**%%OOOOuuuzzzzzzzzzzzu$gfhj1khgfhhh1",
"MkfdfgkO%%%***%OOO.##4.uzzzzzzzu0$hgghk1cjhghhk1",
"MMMcMccO%%%***%OO.#=99=.uuuuu00$$MccMMv1cjhgggk1",
"31111111O%%%**%O..=9ill=.$$$$$$111112211chggggk1",
"ckkcccckO%%%**%%..=i99i9474#4#.kjkkkhjc1chghhhj1",
"MhhhhghggO%%%*%%..=9ill=#47#..tgggghghk1cjhhhhj1",
"MghgggghhhO%%%%.#.==9mBa.##BBBthhhggghj1kghhggj1",
"MhghgghhghgOO%%.#..>psi&xxmmxarhghgghhk1cjhhghk1",
"MhgghgfgghhhhOO.4...>slm9xxxarfgghhhhhh1cjhhhgk1",
"Mhgghgghhgfghh.44...X&i9i9;&q;ghhgfghhh1cjfhhhk1",
"Mhghhfhgfhhgf.#7#..X&X&ill=;&&hgfhhgfhj1chfhggk1",
"Mgggfdhhhhhhg.47...-,X&,ii=tp,hhhhhhghh1cffggfk1",
"Mgdhghgghggh..77..ao--X,ps,psp,ghgghhhk1chgfggj1",
"Mfgffgfggfg.#.74...axBs>>>psxaaggfghhhj1chfgfgk1",
"Vgffghffggg.##7#...+<zxBBxaB0+ffggggggk1cjgfggj1",
"Vhffgggffgg..#7#..&;<<@+V++++++ffggghgj1Mhghggh1",
"Vdfgfdfggffg.#4...&;qq+1VdX&&&XXgffghhj1Mkggfgk1",
"Vhfhhhfhhgggg...Mk=9il&1VhXX&;;Xhgggghk1Mkfdfgk1",
"VMMMNMMMMNMMMMM1MMM&;9q&VMMXXXXMMNMMMMM1MMMcMcc1"
};
