/* XPM */
static char *xpm_[] = {
/* columns rows colors chars-per-pixel */
"48 48 15 1 ",
"  c #656965",
". c #6C6F74",
"X c #75777D",
"o c #80807C",
"O c #7D808B",
"+ c #878888",
"@ c #8F9094",
"# c #98999C",
"$ c #A8A8A7",
"% c #B3B4B6",
"& c #C1C2C7",
"* c #D3D0C8",
"= c #DEDEE1",
"- c #E4F2F4",
"; c #F2FAFB",
/* pixels */
"                   .                        ... ",
"&%%%%%$$$$$#%%$%%$%##%%X&$$#%$% &%%&&&&%$%%%#$& ",
"&#+#@@@@@#@@@@#@@@#@##$.&@@@##% =####@#@@@@#@#% ",
"=@+O+#O###@@@++@@@#@##$.&@@@@@% =@#@@@@###@@@#$ ",
"=+@#O++@+@++##+@#+@#@#$ *#@+#+% =#@#@@##@#@@##% ",
"=@++#++@@@##@@@@####+@$ =##@+#$ =#@@#@+@@###### ",
"=@@+$@++#####@###@##@+$ =##@@#% =#@@#@@##@+@### ",
"=======&&=&%&==&&&&%&&&.==&&==* =#@##+#@+##@+#$ ",
"                    ..          =@@@+O######@## ",
"&%#%#%% &%%&&&&%$%%%#$& &$$#%$% =@O#@#@@#@@###% ",
"&$###@% =####@#@@@@#@#% &@@@##% =+@++@+@@+@###$ ",
"&$@#@@% =@#@@@@###@@@#$ &@@@@@% ;@++@#++@@@@@@% ",
"%#####% =#@#@@##@#@@##% *#@+#+% ;#++@@@++@@@#@$ ",
"%#@+### =#@@#@+@@###### =##@+#$ ;O+@+O+@@++@##$ ",
"&$#@##% =#@@#@@##@+@### =##@@#% ;#+###+##@@@@#% ",
"&$#@@@% =#@##+#@+##@+#$ ==&&==* ;===-====-===== ",
"&#@@@@% =@@@+O######@##                    .    ",
"&#@###$ =@O#@#@@#@@###% &%%%%%$$$$$#%%$%%$%##%% ",
"&$####$ =+@++@+@@+@###$ &#+#@@@@@#@@@@#@@@#@##$ ",
"%@##@@$ ;@++@#++@@@@@@% =@+O+#O###@@@++@@@#@##$ ",
"&$##@#% ;#++@@@++@@@#@$ =+@#O++@+@++##+@#+@#@#$ ",
"&$###@% ;O+@+O+@@++@##$ =@++#++@@@##@@@@####+@$ ",
"&$+###% ;#+###+##@@@@#% =@@+$@++#####@###@##@+$ ",
"&#+#@@% ;===-====-===== =======&&=&%&==&&&&%&&&.",
"&++@@+%                    .                    ",
"&#@+@@$ &%%%%%$$$$$#%%$%%$%##%% &$$#%$% &%#%#%% ",
"&#+@+@% &#+#@@@@@#@@@@#@@@#@##$ &@@@##% &$###@% ",
"&$@+@@$ =@+O+#O###@@@++@@@#@##$ &@@@@@% &$@#@@% ",
"=#@#@@# =+@#O++@+@++##+@#+@#@#$ *#@+#+% %#####% ",
"=%@@+@% =@++#++@@@##@@@@####+@$ =##@+#$ %#@+### ",
"=%+O+@% =@@+$@++#####@###@##@+$ =##@@#% &$#@##% ",
"===&=&& =======&&=&%&==&&&&%&&&.==&&==* &$#@@@% ",
"X       .......      ..             ..  &#@@@@% ",
"&%%&&&&%$%%%#$&.%%%%%%% &%%&&&&%$%%%#$& &#@###$ ",
"=####@#@@@@#@#% &##@@#% =####@#@@@@#@#% &$####$ ",
"=@#@@@@###@@@#$ &@@@##% =@#@@@@###@@@#$ %@##@@$ ",
"=#@#@@##@#@@##% &#####% =#@#@@##@#@@##% &$##@#% ",
"=#@@#@+@@###### &#@@#@% =#@@#@+@@###### &$###@% ",
"=#@@#@@##@+@###.&$+@@#% =#@@#@@##@+@### &$+###% ",
"=#@##+#@+##@+#$ &$@#@#% =#@##+#@+##@+#$ &#+#@@% ",
"=@@@+O######@## &#@###% =@@@+O######@## &++@@+% ",
"=@O#@#@@#@@###% &##@@@% =@O#@#@@#@@###% &#@+@@$ ",
"=+@++@+@@+@###$ &$@@##$ =+@++@+@@+@###$ &#+@+@% ",
";@++@#++@@@@@@% %$+###$ ;@++@#++@@@@@@% &$@+@@$ ",
";#++@@@++@@@#@$ =%@@@#$ ;#++@@@++@@@#@$ =#@#@@# ",
";O+@+O+@@++@##$ =%@@#@% ;O+@+O+@@++@##$ =%@@+@% ",
";#+###+##@@@@#%.=%@+#@% ;#+###+##@@@@#% =%+O+@% ",
";===-====-===== ===**&&o;===-====-===== ===&=&& "
};
