/* XPM */
static char *xpm_[] = {
/* columns rows colors chars-per-pixel */
"48 48 25 1 ",
"  c #040203",
". c #171009",
"X c #0F1214",
"o c #171715",
"O c #23180E",
"+ c #2B1C10",
"@ c #37200E",
"# c #25231C",
"$ c #2C2820",
"% c #3F3420",
"& c #333229",
"* c #4B4330",
"= c #554835",
"- c #484843",
"; c #585643",
": c #695E4C",
"> c #746E5C",
", c #807E69",
"< c #8B8773",
"1 c #978E7D",
"2 c #9A9782",
"3 c #AA9E88",
"4 c #ABA69A",
"5 c #CCC6B9",
"6 c #E2DED4",
/* pixels */
"%%%%===%%%%%%==%%%%%%%%%%%%%%%====%%%%%%%%%%==%&",
"%>52<<,,,<2,,,,,<,,<<1<1<1,,,,,<<<<,,,2<<2,,,2>&",
"%5>5<<1<2<<<1<1222222222222222222222222222222>,&",
"%5<;5555555555555555555555555555555555555555><,&",
"=52>O$#$$$$$$$%%$$%%%%$%$$$$$%%%$%%%%$%$$$$O5<,&",
"=5<>O$$$$$$$#$$$#$#$$#$$#$#OO##$$OO#$#$$O$OO52<&",
"=52>.$O##+OOO$OOO$#$OO$#O#OO+O+O+O+OO+OO+OOO54<%",
"%52>.OOoOOoOoOoOoOOOOoOOOOoOoOOOOOOOoOoOoO. 54,%",
"%44>........................................54,%",
"%54>..O......OO.O.......O.....O.O.....O.O...54<%",
"%44>.OOOOOO OOOOOOO OOO+OOO.OOOOOOO OOoOOOO.52<%",
"%54>.............XO.$O#$$#O.$O#$$#O.$O#$$#O.52<%",
"=52>.%*%*=;;;;;;,%O.%#$##$O.%#$##$O.%#$##$O.54<%",
"=52>.***=;;:;>>><%O.%O#+#$O.%O#$#$O.%O#$#$O.54,%",
"=64>.;;::>>,,,<<1%O.%OO$O#O.%OO$O#O.%OO$O#O.54,%",
"%64>.$$$%%*******$O.%OOOOOo.%OOOOOo.%OOOOOO.54,%",
"%54>.O+O$+$%$%$$$$..$O.O.O..$O.OOo..$O.O.O..54,%",
"%54>.$$&%%*%%***;$..#.......#.......#.......54,;",
"%52>.$&%**;;;;;;;.. .............. .........52,%",
"%64>.$%*=;;:;;::;OOO+$&%**%*;$.. X X . X X .52<%",
"%62>.$***;;:;;;>:OOO$%**====:$..  . . X     52<%",
"%6<>.$%*;:;:;::>>O+$.O*;;;:::$  X  . .  . . 54<%",
"%5<>.$%*=;;:::::,...OO$&&&&&&O  . X  X .    %4<%",
"%5<>.$*=;;;::::>,.....OO+++$OO .   .  .  . .=%<&",
"=5<>.$*=;;::>::,<...OO$$$&&&%O  . . X  .  X ==%&",
"=52>.$*=;;;::::>,..O#$&%%%***.. X X . . X . >5,&",
"=52>.$*=;;:::>:,<..O$&&****=*....O+#$$+$&O  54,&",
"=52>.$*=;;::>>:,<..O#&&**=*=*...OO+$$&&&%O  54,&",
"=52>.$*=;;:>>:>,<..O$&%***-==..OO$$&&&%%&O  52<%",
"%5<>.$*;;;:>>>,<<..+$&&**=**;.....OO+++++.  52<%",
"%5<>.$*=;;:>>:><1..O$&%**===;.  . ..OO....  52<%",
"%4<>.$*;;:>>>>>,<.O+$&%*==;=:.....OOO+++$   54<%",
"%42>.$*=;:>,>>>,<.O+&&%=;=;=;....O+#$+$$$...54<%",
"%52>.$*;;;>>>,>,<.O+&&*=;;;;:...OO+$$$$@$...54,&",
"%52>.$*=;;>>,>>,<.O+&&*;;;;;:....O+$$@$&$...52,&",
"=52>.$*;;;>>,,>,<.O#&%*;:;;;>...O+#$$&$&%.  52,&",
"=5<>.$**;;>>,,>,<..$&**;;:;:>...OO+$$$$$%.  54,&",
"=5<>.$*;;;>,>,>,<..#&%*;;;;;>...OO$$$&&&&.  52<%",
"=5<>.$*=:;>,,,,>,.O#&%*;;::;>...OO$$&&&&$. .52<%",
"=5<>.$*;:>>,,,>,<.O+&&*;;;;:>...O+$&&$&+$. .54,%",
"%52>.$;=:>>,,<,>1.O#&%%;;::=>...O+$&&&&%+. .52<&",
"%52>.$;;:>>,<,,<3.O#&%*;:::>>...O+$&&&&&%. .52<&",
"=52>.+**;;:>>>:>>..O#$$*==*%*...OO+$&$$&&.  52<&",
"%5<>.O$&&%%%%%*%%...O+$$&&&&% ...OO+$$+$$.  52<&",
"%42;6665666556555555555555555555555555555555;52%",
"%4;522222222222222222222222222222222222222222;5%",
"%;56666655666666666666555666666655566666665665;%",
"%%%%%;;%%%%%%=====%%=%%%%%====%%%%%===%%%%%%&&&&"
};
