/* XPM */
static char * sstone_xpm[] = {
"48 48 77 1",
" 	c #656965",
".	c #6C6F74",
"+	c #C1C2C7",
"@	c #B3B4B6",
"#	c #A8A8A7",
"$	c #98999C",
"%	c #75777D",
"&	c #878888",
"*	c #8F9094",
"=	c #BFB5A2",
"-	c #8B8773",
";	c #807E69",
">	c #585643",
",	c #DEDEE1",
"'	c #7D808B",
")	c #D6D1C8",
"!	c #ABA69A",
"~	c #9F8B6D",
"{	c #C6D9CD",
"]	c #333229",
"^	c #9A9782",
"/	c #746E5C",
"(	c #AA9E88",
"_	c #695E4C",
":	c #25231C",
"<	c #E4F2F4",
"[	c #3F3420",
"}	c #3B3E38",
"|	c #5C5F5C",
"1	c #76777A",
"2	c #A3A4A6",
"3	c #6E6F71",
"4	c #76767A",
"5	c #ACADAE",
"6	c #67686B",
"7	c #9C9D9F",
"8	c #878789",
"9	c #5E625E",
"0	c #585B58",
"a	c #828385",
"b	c #525652",
"c	c #4A4E4A",
"d	c #484B48",
"e	c #8A795C",
"f	c #7A7A79",
"g	c #8E8F92",
"h	c #6B6C6F",
"i	c #565A51",
"j	c #858588",
"k	c #616262",
"l	c #929395",
"m	c #7D7E81",
"n	c #7B7C7C",
"o	c #828387",
"p	c #8A8B8E",
"q	c #8D8E91",
"r	c #6F7073",
"s	c #898A8E",
"t	c #6F7070",
"u	c #818282",
"v	c #F2FAFB",
"w	c #B0B1B5",
"x	c #8D8E92",
"y	c #999998",
"z	c #646864",
"A	c #9D9D9C",
"B	c #B8B8BA",
"C	c #5A5C64",
"D	c #656565",
"E	c #7D7D81",
"F	c #86878A",
"G	c #767676",
"H	c #8C8D8E",
"I	c #B1B7B8",
"J	c #727375",
"K	c #D3D0C8",
"L	c #80807C",
"                   .                        ... ",
"+@@@@@#####$@@#@@#@$$@@%+##$@#@ +@@++++@#@@@$#+ ",
"+$&$*****$****$***$*$$#.=---;>@ ,$$$$*$****$*$@ ",
",*&'&$'$$$***&&***$*$$-)=!---;> ,*$****$$$***$# ",
",&*$'&&*&*&&$$&*$&*$*>=))==-~-;>,$*$**$$*$**$$@ ",
",*&&$&&***$$****$$$$>-=)){)=-;>>]$**$*&**$$$$$$ ",
",**&#*&&$$$$$*$$$*$>--==))=^>>>]]$**$**$$*&*$$$ ",
",,,,,,,++,+@+,,+++---====!->>>>]]]*$$&$*&$$*&$# ",
"                 =====!=--/>>>]]]]**&'$$$$$$*$$ ",
"+@$@$@@ +@@++++@#^!)===---->>>]]]]'$*$**$**$$$@ ",
"+#$$$*@ ,$$$$*$*>/)))==--~-/>>>]]]]&&*&**&*$$$# ",
"+#*$**@ ,*$****$]>!)){=!!--//>>]]]]&*$&&******@ ",
"@$$$$$@ ,$*$**$]]>;=))====-;/>>]]]>&***&&***$*# ",
"@$*&$$$ ,$**$*&]]]/==))=)==(/>>]]>>]&'&**&&*$$# ",
"+#$*$$@ ,$**$*>]]]/;-!==!!-_>>>///]:$$&$$****$@ ",
"+#$***@ ,$*$/-/>]]>;----;;>_>>//>]:::,,,,<,,,,, ",
"+$****@ ,*-==!!->]>;----;>>_>>>]]::::]     .    ",
"+$*$$$# /(=)===(;>_>;;;;>>>[>>>]]::::>/!@#@$$@@ ",
"+#$$$$#/^)))){=!(;>>>/;>>>]]>>]]]:::>/-!!*$*$$# ",
"@*$$**]>/^=))==!^>>>_/>>>]]]]>]]]::]/-^!!!$*$$# ",
"+#$$*$]>>>;=!!=/>>:>>>>>]]]]]>]]]]]]--^==->$*$# ",
"+#$$$*]>>]]>//>>::::>>>]]]}]}]]]}]]>--^/>]]:&*# ",
"+#&$$]>>>]]]]>>:::::>>]]]]]]]]}]]]]--/>]]]]:*&# ",
"+$&$*]>>>]]]]>:::::>///>]]}]}]]]]}]/>]]]]]::+++.",
"+&&**]>>]]][]::::>//////>>]]]]}]]]]]]]]}]]::|   ",
"+$*&]>>>]]}]]::>///;;;;^((_]}]]]}]}]]}]]]:::12@ ",
"+$&*]>>>]]]]]::///;-;!!^((==>]]]]]]]>]]]]:::345 ",
"+#*&]>>>]]}]]>////--!!=!!!==--->]]]]>>]]]::::67 ",
",$*]>>>]]]]]]>>//;!))=======^(-]]]]]>>>]]::::389",
",@*]]>>]]}]]>>>_>^())){==)=)!^>:]}]]]>>]]::::330",
",@&]::]]]]]]>>>>>>;;;(==))==!>]::]]]]>>>]::::3ab",
",,,]::::]]]]>>>>>>>;;;---===/>:::]//////>]:::6ac",
"%  ]:::::]]>///>>>>;;;~---//>]:::]>///;>]]::::ad",
"+@@]::::::]/(!=;____---e>>>_]:::::]]>/>]]>::::fc",
",$$]::::::/--(=!;>>>ee->>_>>]:::::]]]]]]>>::::fb",
",*$]:::::]>/^!!^^/>_>>_>>/;>>:::::]:]]]>>>]:::f0",
",$*gh::::]///-/>]]]>>_i///;>>:::::]:]]]>]>>:::89",
",$**j6k:]>/;;;>>]]]]>>e/;;;>>]:::::]:]]>>>>:::7 ",
",$**l4633///;/>>]]]:>>>/e/e>>]:::::]::]>]>]::m5 ",
",$*$$n16k///;/]>]]]:]>>>e/;]>]:::::]::]]]]]]:o@ ",
",***&'p13>/_;/]]]]]:]]>>>//]>]]::::]::3dqkkro&@ ",
",*'$*$*om>>>/>]]]]::]]>>_>;]>>]::::333adq34n**# ",
",&*&&*&*st6>>>]]:]::]]]>>>>]]>]:::6333fdqmu*&*@ ",
"v*&&*$&&**o46]:]::::]:]>>>]]]>:::66666abw#*&**# ",
"v$&&***&&**xp4fd::::::]]>>]]:]:::66634yz,$*$**$ ",
"v'&*&'&**&&*$$A0B866:::]]]:::Ck66DtEg$# ,@**&*@ ",
"v$&$$$&$$****$@.,5FGm4HcI3kJ1mtjgs***$@ ,@&'&*@ ",
"v,,,<,,,,<,,,,, ,,,KK++Lv,,,<,,,,<,,,,, ,,,+,++ "};
