/* XPM */
static char * ttop_xpm[] = {
"48 48 33 1",
" 	c #656965",
".	c #A4A095",
"+	c #E6E1D7",
"@	c #D2CFC4",
"#	c #CDC8BB",
"$	c #C6C1B3",
"%	c #5F584A",
"&	c #6C6F74",
"*	c #C1C2C7",
"=	c #B3B4B6",
"-	c #98999C",
";	c #A8A8A7",
">	c #878888",
",	c #EFF1F3",
"'	c #8F9094",
")	c #DEDEE1",
"!	c #B7B4A8",
"~	c #959083",
"{	c #DBDEE1",
"]	c #6F655C",
"^	c #80796D",
"/	c #3A3829",
"(	c #313123",
"_	c #514B3D",
":	c #463D37",
"<	c #2F211F",
"[	c #1E130E",
"}	c #151013",
"|	c #75777D",
"1	c #231A15",
"2	c #7D808B",
"3	c #F2FAFB",
"4	c #E4F2F4",
"   .++@@###$###$############$$$$$##$$$##@++%&&& ",
"*==.++@@##@#####$$$###$$$$##$$$$$$###$$#@++%-;* ",
"*->.,+@@@#@##@###$#$#$$$$$$$$$$$$$$#####@++%'-= ",
")'>.,+@@@@###@######$####$!!$$$$$$#$$$#@@++%'-; ",
")>'.,+@@#@##$#@##@@#######$$!!$$$$$$$$#@@+,%--= ",
")'>.++@@#@#####@@@###$$#$$$$!$$#!$$$$$##@@+%--- ",
")''.++@@######@@#####$$#$$$$$$$#$$#$$$$#@@+%--- ",
"))).+++@#@##@@##$!####$$$$$$##$$####$$##@@+%>-; ",
"   .++@@@##@@@$##$$####$$$$$$$#$####$$$#@@+%'-- ",
"*=-.++@@@##@#######$###$$$$#$##$##$#$$$#@++%--= ",
"*;-.++@@@#######@#####$##$$$##$##$$$$$$#@++%--; ",
"*;'.,+@@@@###@@@######$###$$#####$$$$$##@++%''= ",
"=--.,++@@@########$############@#$$$$$##@++%-'; ",
"=-'.,+@@@##@##@##!#@#####$#######$#@###@@+,%--; ",
"*;-.++@@@##$#@#@@#@@@######@############@+,%'-= ",
"*;-.++@@@#####@@@#@#@###$@@############@@+,%))) ",
"*-'.++@@@@@###@#@@@@#####@@@#########@@@@+,%    ",
"*-'.,+@@@@@######@@#####@###########@#@@@+.%-== ",
"*;-.,++@+@@#@@#@#@#####@#@@####$$######@+#@%--; ",
"='-.,+++@+@@@@@@@#@@@##@@######@###@!#@@#+,%--; ",
"*;-.,,++++@+@@@@@@@@@@+@@@@@@@@@@@@@@.~!++,%'-; ",
"*;-.,,+++@+++++@+@@@+++@@+@+@+@+++@@+.!+++,%>'; ",
"*;>.,,+,++++{+++++++++++++++++++++++@.+++,,%'>; ",
"*->]$,,,,,+++++++++++++++++++++++++@].++,,,%***&",
"*>>^$$!!!!!!!!!!!.!!.!!!!!!!!!!!..^^/^$$$#+%    ",
"*-'(^^^_______________%__%%%%_%_____/%%_____-== ",
"*->:^_//__:::____::/:/::_:__:______:(::::::<-'= ",
"*;'(^:::____::/:::::::___:::::__::://///:::<''= ",
")-'/%///:::///:::::::::::::::::://////::::_<--= ",
")='////:/:::::::///:::://:::::::::/<//////_<--- ",
")=>//////////////////(////(///////<<</////<<--= ",
")))[[[[[[[[[[[[[}[[[[[[[[[[[[[[}[[[[[[[[[[[[''= ",
"|  <<<<<<<<<<<<<<<<<<<<<<<<<<<<<<<<<<<<<<<<<''= ",
"*==[[[[[[[:%[[[[[[[[[[[:%[[[[[[[[[[[:%[[[[[[--; ",
")--<%<[[[<_%<[[1<%<[[[<_%<[[1<%<[[[<_%<[[[<%--; ",
")'-%_%[[/^%%^/[[%_%[[/^%%^/[[%_%[[/^%%^/[[%_''; ",
")-':^~~^^~~^^~~~~^^^~~~~^^~~~~~~^^~~^^^~~~~/'-= ",
")-':%%]]]]]]]_]]]]]]]]%%]]%%%%%%%]]]]%%%%%%/-'= ",
")-':%%%%%%%%__%%%%]%%%%%%%%]%%%%%%%%%%]%%%_/--= ",
")-':%]%%]%%%:%%%%]%%%%%%]%]%%%%%_%_%%%%_%%_/''= ",
")'':%%%%____:___%%___%%%_____%_____________/'>= ",
")'2::::::::::::::::::::___:::::::::::///////''; ",
")>'><<<<<<<<<<<<<<<<<<<<<<<<11111111111111['>'= ",
"3'>>_%___%____%___%______%_]_%__%_____::::[>''; ",
"3->>//////////////////////////////////////[-''- ",
"32>'[[[[[[[[[[[[[[[[[[[[[[[[[[[[[[[[[[[[[[['>'= ",
"3->--->--1://::_:::/:///</</</<<<1[11[= )=>2>'= ",
"3)))4))))1:^:::_%_::::::////<//<<11/<[) )))*)** "};
