/* XPM */
static char * uunder_xpm[] = {
"48 48 33 1",
" 	c #656965",
".	c #3A3829",
"+	c #5F584A",
"@	c #B7B4A8",
"#	c #A4A095",
"$	c #959083",
"%	c #D2CFC4",
"&	c #C6C1B3",
"*	c #6F655C",
"=	c #514B3D",
"-	c #463D37",
";	c #2F211F",
">	c #1E130E",
",	c #6C6F74",
"'	c #C1C2C7",
")	c #B3B4B6",
"!	c #A8A8A7",
"~	c #98999C",
"{	c #878888",
"]	c #8F9094",
"^	c #DEDEE1",
"/	c #7D808B",
"(	c #80796D",
"_	c #231A15",
":	c #313123",
"<	c #CDC8BB",
"[	c #68696C",
"}	c #6F6F72",
"|	c #E6E1D7",
"1	c #EFF1F3",
"2	c #484B48",
"3	c #FDFDFE",
"4	c #4E5054",
"          .+@@#$%&@$*&#@#*=#*+-;=;;>>       ,,, ",
"')))))!!!!.+@@#$%&@$*&#@$*=#*+=;=;;>>'')!)))~!' ",
"'~{~]]]]]~.+@@#$%&@$*&#@$*=#*+=;=;;>>]~]]]]~]~) ",
"^]{/{~/~~~.+@@#$%&@$*&#@$*=#+*=;=;;>>]]~~~]]]~! ",
"^{]~/{{]{].+###$&@#(*&##$+=#++=;=;_>>]~~]~]]~~) ",
"^]{{~{{]]].+###$&@#(*&##(+=#+=-;=;_>>]{]]~~~~~~ ",
"^]]{!]{{~~.=###(&@#(*&$#(+=#==-;=__>>]]~~]{]~~~ ",
"^^^^^^^''^.=###(&##(*&$#(+=$==-;=__>>{~]{~~]{~! ",
"          .=###(&##(+&$#*+-$==-;=__>;/~~~~~~]~~ ",
"')~)~)) ').-###(&##(+&#$*+-$=-:_=;_>=~]]~]]~~~) ",
"'!~~;;:...-.#$#(&##(+&#$*+-$=-:_-;_>+______~~~! ",
"'!]~;++*++&-#$#(<#@(+@#$*+-(=-:_-;__=;;;;;_]]]) ",
")~~~;++++=@#*($(<#@(+#((*+.*=-:_-;_:=;;;;;_[}]! ",
")~]{.+*(+*+|**((&##*=#*(++.*.-:>-_>=->;;;;_[}~! ",
".....*(*+**1#+**@#**=#**++.*..:>._:=:>;;;;_____ ",
".+++-*((-+(%1$*=*#*(=#**+=.*.:;>:.==;_>.;._;;;_ ",
".+*+-((*-+($1&$-**$*-#**+=.*.:;>:++;=:>.;._;;;_2",
".***-(#:=++$@1%*+++=-$**+=.+:_;-**;>+:_>.._;;._2",
"-***.(#:=+&+$@1%@*+=;$**+=.+:=+((;__=;_>.._;.._2",
"-(((.##:==@#$#@13%#$-+-=--:=+(@(;;_:=;_>.._;..;2",
"-(##.$&:=*$|**#@@|11%@##@##&@&=;;;>=-__>.-_....2",
"-##$.&&:=**1#+**$$$%11111%&*-..;;_:=:__>.-_.--;2",
"-&$$.&&:=*(%1$*********+===+..;;;.==;__>.-_---;2",
".&&$.@@*=*($1&$+*******+++=-..;>:++;___>--;---.4",
".&%#+@@#;+*$@1%*+*****+++=+-._;-**;___>---;--=.2",
".|%@=<<@++*$$@1%@*+***++==-:_=+((;____>-==;-==.2",
"+|%@+<<@#;+$$#@13%#$++-=--:=+(@(:;___>-===;--=.2",
"+|%#+<<<@$-*$$#@@|11%@@#@##&@&=;;;__>--=*=;-==.2",
"+|%@+%&&@@#-*$$$$$$%11111%&*-...;;_>-=*=**;-==-2",
"(||@(&&&<@##-*$$$$*(((+*+===-:..;;>=****$$;==+-2",
"(|<@(<&&&&@@@+-+**(*((++=====:::__=***$*$$;===-2",
"(||@(@&&&<@<<&#+--*((+++=====;__=***#((($$;+==-2",
"(%%@+%&<&<<<<<#@@#*;:::::;;;;=*##@##$$$@@@;=++=2",
"(%%#+%<<&<<<<<@@%&@@&@<@@@@@@@@@@@@<<<<<<@;+++=2",
"(|%@+##<<%%%%%%%%%%%%<<<%%%%%%%<%%<<%%<%<@;=++=2",
"(|%&*(((++++++++++++++++++++++++++++++++=;;=+(=2",
"(|%<++=;;::::------++====++==------..:;;;;;=($=2",
"(%<%+;;;:::+<:.--+<11<+--1<+----<+.....;;;;=$@=2",
"+%|<+;;+(+:::<--+<+==+<+==+<+--<--:+(+;;;;;$@@=2",
"*%%&++(;:(::++1--+<1+-+<11<+--<++.:(:;(++;;@%%:2",
"*%%&;;;;;;(:::<::-++----++---:+:::(;;;;;;;;<%@;2",
"*%%%@@@&&<<%&&<<<<@@&&&<<<<<&<&<<&<&<&<&<<&%@(;2",
"(((((((+++++++++++++++++++++++++++++++++++=+=;_2",
"--.........---====================-.....;;;:::_2",
"-.........-------===============----....::::::_2",
"--.............------========--.......::::::::_2",
"-..-.-.-.----......--------------..-....::::::_2",
"_______________________________________________2"};
