/* XPM */
static char *result[] = {
/* columns rows colors chars-per-pixel */
"48 48 43 1 ",
"  c black",
". c #0C0C0C",
"X c #1D1005",
"o c #1F021E",
"O c #042304",
"+ c #3C250C",
"@ c #141822",
"# c #222222",
"$ c gray18",
"% c #480A1D",
"& c #563F2C",
"* c #1F631B",
"= c #434328",
"- c #654E3D",
"; c #333943",
": c #6A0846",
"> c #552E40",
", c #69465C",
"< c #4B7A45",
"1 c #78785D",
"2 c #465262",
"3 c #656965",
"4 c #6C6F74",
"5 c #75777D",
"6 c #956469",
"7 c #67A25F",
"8 c #80C878",
"9 c #6E7882",
"0 c #7D808B",
"q c #878888",
"w c #8F9094",
"e c #98999C",
"r c #A9A98E",
"t c #A8A8A7",
"y c #B3B4B6",
"u c #C48A89",
"i c #A2E1A1",
"p c #DFDAB8",
"a c #C1C2C7",
"s c #D3D0C8",
"d c #DEDEE1",
"f c #E4F2F4",
"g c #F2FAFB",
/* pixels */
"333333333333333333343333;2333333;333333333334443",
"ayyyyyttttteyytyyt;;eyy5;92;yty;2yyaaaaytyyyeta3",
"aeqewwwwwewww;;;;w;2;;t4;292;ey;92eeewewwwwewey3",
"dwq0qe0eeew;;2292;;;29;;;;292;;2992wwwweeewwwet3",
"dqwe0qqwqwqqe;;292;;;299;;;992;29992wweewewweey3",
"dwqqeqqwwwee;;;;292;;;2992;992;99992ewqwweeeeee3",
"dwwqtwqqee;;;;;;;;22;;;2992999;299992wweewqweee3",
"ddddddda;;2992;;;;;;;;;29992992292992qewqeewqet3",
"3333333333;;;;;22299922;299;2992229920eeeeeewee3",
"ayeyeyy3;;2992;;;2299992;292;2;222992ewwewweeey3",
"ateee;;;22992;;;;;;229992;7**O<;;292;wqwwqweeet3",
"atweww;;;;;;;;;;;;;;;292;8<8**77<;2;weqqwwwwwwy3",
"yeeeeey3;;;29222;;;2299;787<<<777<;;wwwqqwwwewt3",
"yewqeee;;29922;;;229999;78iiii<<77<wq0qwwqqweet3",
"atewee;;2992;;2299999292<<787<<***i<eeqeewwwwey3",
"atew;;2222;;;@;;2222229;<788887778i<fddddfddddd3",
"aew;;;;;;;;22;@@;;;;;2;<778iiiii87i<333333343333",
"aeweee;;2992@;;2222;@@*7<***<7778i8<yytyytyeeyy3",
"atee;;;292;@;2992;;@@*<<<*<   *<<<<<wwewwweweet3",
"ywe;;2222;;;2992;@;2@*<<<7>,66 O*<7<wqqwwweweet3",
"ateew;;;;;22992;@;92;*<<<7,66u,*787<eeqweqwewet3",
"ateeewy;;2222;;;;922;<7<<*>666>87i<ewwwweeeeqwt3",
"atqeeey3@;;;;2;;222;@<77<7*>,>8<i7<eeweeeweewqt3",
"aeqewwy;;222;9;22;;@@*<7887*77<77*Oyaddaaaayaaa4",
"aqqww@;222;@29;;;@@;@O**7888888887<3333333333333",
"aewqww@;;;@;922;;;;;@O*<**7887*<8<8eyty3ayeyeyy3",
"aeqwqwy@@;;22;22;;;@@O*<<<*88<oororweey3ateeewy3",
"atwqwwt3d@;2;;;2;@;@@*O*<<*887o%%wwwwwy3atwewwy3",
"dewewwe3d;2;;2;;;@@@@*O*<<*887o%sewqeqy3yeeeeey3",
"dywwqwy3d2;@;2@;;@@@@OOO**O78<o:deewqet3yewqeee3",
"dyq0qwy3d@wq;2@;;@@@@=111*O78<o:deewwey3ateweey3",
"dddadaa3dddd;@d@;d@@=1rpr1=OO=1*<<<*dds3atewwwy3",
"533333334444@443@33@1rrrpr1*71r7i78i*433aewwwwy3",
"ayyaaaaytyyyeta4yyy=111rr1*71=1*8<78<*a3aeweeet3",
"deeeewewwwwewey3aee=11=111rr1==O7*7*7*y3ateeeet3",
"dwewwwweeewwwet3aww=111======-1e<O<O<*t3yweewwt3",
"dewewweewewweey3aeee1rrrrr1pp&reOeOw*ey3ateewey3",
"dewwewqwweeeeee3aeww1rprrppp1rqwweeeeee3ateeewy3",
"dewwewweewqweee4atqw=1rp77pr7*weewqweee3atqeeey3",
"deweeqewqeewqet3atwe=1r788rprrewqeewqet3aeqewwy3",
"dwwwq0eeeeeewee3aewe=1178711r0eeeeeewee3aqqwwqy3",
"dw0ewewwewweeey3aeewX+prpr1+Xewwewweeey3aewqwwt3",
"dqwqqwqwwqweeet3atwwXr11p1+XXwqwwqweeet3aeqwqwy3",
"gwqqweqqwwwwwwy3ytqeX++1rXX+Xeqqwwwwwwy3atwqwwt3",
"geqqwwwqqwwwewt3dywwX++7i*+&Xwwqqwwwewt3dewewwe3",
"g0qwq0qwwqqweet3dywwXX++X++Xq0qwwqqweet3dywwqwy3",
"geqeeeqeewwwwey4dywq.###.##.eeqeewwwwey3dyq0qwy3",
"gdddfddddfddddd3ddds.#$$#.##.ddddfddddd3dddadaa3"
};
