/* XPM */
static char *xpm_[] = {
/* columns rows colors chars-per-pixel */
"48 48 44 1 ",
"  c black",
". c #0C0C0C",
"X c #1D1005",
"o c #1F021E",
"O c #042304",
"+ c #3C250C",
"@ c #141822",
"# c #222222",
"$ c gray18",
"% c #480A1D",
"& c #563F2C",
"* c #1F631B",
"= c #434328",
"- c #654E3D",
"; c #333943",
": c #6A0846",
"> c #552E40",
", c #69465C",
"< c #4B7A45",
"1 c #78785D",
"2 c #465262",
"3 c #656965",
"4 c #6C6F74",
"5 c #75777D",
"6 c #956469",
"7 c #67A25F",
"8 c #80807C",
"9 c #80C878",
"0 c #6E7882",
"q c #7D808B",
"w c #878888",
"e c #8F9094",
"r c #98999C",
"t c #A9A98E",
"y c #A8A8A7",
"u c #B3B4B6",
"i c #C48A89",
"p c #A2E1A1",
"a c #DFDAB8",
"s c #C1C2C7",
"d c #D3D0C8",
"f c #DEDEE1",
"g c #E4F2F4",
"h c #F2FAFB",
/* pixels */
"333333333333333333343333333333333333333333334443",
"suuuuuyyyyyru;yuuyur2;u5syy;uyu3suussssuyuuurys3",
"srwreeeeereee2;eee;20;y4s;;;rru3frrrrereeeereru3",
"fewqwrqrrree20;ee;202;y4;02;ee;;22;eeeerrreeery3",
"fwerqwwewew2002;;2002;;;02;;;2022;ereerrereerru3",
"fewwrwweeer20022;200;;;02;;;;022;;eereweerrrrrr3",
"feewyewwrr200022;202;2002;;;202;;;;ereerrewerrr3",
"fffffffssf200002;0022002;;;22;;;;;;;;;;ewrrewry3",
"33333333332000022002002;;;;;;222;2002;rrrrrrerr3",
"sururuu3su200202002;002;2200022;;;;;;reereerrru3",
"syrrreu3fr200222;2;202;200022;;;22002;;eewerrry3",
"syereeu3fe;202;;<7777;20002;;;;;;2200222;;eeeeu3",
"urrrrru3fre;2;<<*<99<7;202;;;;;;;;;;;;;;;eeerey3",
"urewrrr3fre;;<7*O*<<797;00222;;;2202;;;;ewwerry3",
"syrerru3free<77OOOppp97;00000002;220002;;eeeeru3",
"syreeeu3fre<p***O*797<<2022222;;;;;220002;2;fff3",
"sreeeeu3fee<p977799*97<;022;;;;;;@;;;;;;;;;43333",
"srerrry3feq<p79ppppp977<;2;;;22@@;@2222;;yurruu3",
"syrrrry3fwe<9p9777<***<7*@@;222222;@;0022;;;rry3",
"uerreey3hew<<<<<*   <*<<<*@@;;20002;;;2222;erry3",
"syrreru3hrw<7<*O 66,>7<<<*@2;@;220002;;;;;erery3",
"syrrreu3hqw<797*,i66,7<<<*;20;@;;22222;;rrrrwey3",
"sywrrru3hrwr<p79>666>*<<7<;220;@;;;;;;rrrerrewy3",
"srwreeu3hfff<7p<9>,>*7<77<@;;22;;2;;;;@@sssusss4",
"swweewu33333O*77<77*7997<*@@@;;2;02@222;;3333333",
"sreweey3suuu<7999999997**O@;;@@;;202@;222@ruruu3",
"srweweu3srwr9<9<*7997**<*O@;;;;;2202;;@@@yrrreu3",
"syeweey3fewqtotoo<99*<<<*O@@;;;22;20;@u3syereeu3",
"frereer3fwerqw%%o799*<<*O*@@;@;2;;;22@u3urrrrru3",
"fueeweu3fewwrww%o799*<<*O*@@@@;;;2;;2;y3urewrrr3",
"fuwqweu3feewyew:o<97O**OOO@@@@;;@2;@;2u3syrerru3",
"fffsfss3fffffff:o<97O*111=@@@@;;@2;sf@d3syreeeu3",
"53333333444*<<<***OO=1tat1=@@3;@3@;34433sreeeeu3",
"suussssuyu*p97p7*97*1tattt1@ss@uyu@urys3srerrry3",
"frrrreree*<97<9**797*1tt111=rereeeereru3syrrrry3",
"fereeeerr*7*7*7O**777111=11=eeerrreeery3uerreey3",
"frereerre*<O<O<31-***===111=eerrereerru3syrreru3",
"freereweer*rOrO3t&aa1ttttt1ereweerrrrrr3syrrreu3",
"freereerrewerrr4st1aaattat1ereerrewerrr3sywrrru3",
"frerrwrewrrewry3s*7taaaat1=rrwrewrrewry3srwreeu3",
"feeewqrrrrrrerr3sttaaaatt1=ewqrrrrrrerr3swweewu3",
"feqrereereerrru3sXt1111111XXereereerrru3sreweey3",
"fwewweweewerrry3s+XX+++++++Xweweewerrry3srweweu3",
"hewwerwweeeeeeu3X&&+XXX+&-&+Xrwweeeeeeu3syeweey3",
"hrwweeewweeerey3+&+++XyX&p9&+Xewweeerey3frereer3",
"hqwewqweewwerr.#X+++Xeu3*7&+#.weewwerry3fueeweu3",
"hrwrrrwrreeeer.####Xreu3h.###.wrreeeeru3fuwqweu3",
"hfffgffffgfffff..#..dss8.#$$.ffffgfffff3fffsfss3"
};
