/* XPM */
static char *xpm_[] = {
/* columns rows colors chars-per-pixel */
"48 48 43 1 ",
"  c black",
". c #0C0C0C",
"X c #1D1005",
"o c #1F021E",
"O c #042304",
"+ c #3C250C",
"@ c #141822",
"# c #222222",
"$ c gray18",
"% c #480A1D",
"& c #563F2C",
"* c #1F631B",
"= c #434328",
"- c #654E3D",
"; c #333943",
": c #6A0846",
"> c #552E40",
", c #69465C",
"< c #4B7A45",
"1 c #78785D",
"2 c #465262",
"3 c #656965",
"4 c #6C6F74",
"5 c #75777D",
"6 c #956469",
"7 c #67A25F",
"8 c #80C878",
"9 c #6E7882",
"0 c #7D808B",
"q c #878888",
"w c #8F9094",
"e c #98999C",
"r c #A9A98E",
"t c #A8A8A7",
"y c #B3B4B6",
"u c #C48A89",
"i c #A2E1A1",
"p c #DFDAB8",
"a c #C1C2C7",
"s c #D3D0C8",
"d c #DEDEE1",
"f c #E4F2F4",
"g c #F2FAFB",
/* pixels */
"33333333333333;3333432;3333333333333333333334443",
"ayyyyyttttteyy2;yty;29;5att;;ty3ayyaaaaytyyyeta3",
"aeqewwwwwewww29;ww;292;4a;;2;e;;;;eeewewwwwewey3",
"dwq0qe0eeeww2992;;292;;;;92;;;2922;;wwweeewwwet3",
"dqwe0qqwqwq29992;299;;;992;;;292;;wewweewewweey3",
"dwqqeqqwwwe29999;299;2992;;;292;;;;wewqwweeeeee3",
"dwwqtwqqee299992;9992992;;;22;;;;;;;;wweewqweee3",
"dddddddaad29929229929992;;;;;;;;;2992;;wqeewqet3",
"3333333333299222992;992;22999222;;;;;0eeeeeewee3",
"ayeyeyy3ay299222;2;292;2999922;;;2992;;wewweeey3",
"ateeewy3de;292;;<7777;299922;;;;;;29922;;;weeet3",
"atwewwy3dwe;2;<<*<88<7;292;;;;;;;;;;;;;;;wwwwwy3",
"yeeeeey3dew;;<7*O*<<787;9922;;;22292;;;qqwwwewt3",
"yewqeee3deww<77OOOiii87;999922;;;22992;;wqqweet3",
"ateweey3dew<i***O*787<<2929999922;;2992;;wwwwey3",
"atewwwy3dew<i877788*87<;9222222;;@;;;2222;;dddd3",
"aewwwwy3dww<i78iiiii877<;2;;;;;@@;22;;;;;;;;3333",
"aeweeet3dw0<8i8777<***<7*@@;2222;;@2992;;tyeeyy3",
"ateeeet3dqw<<<<<*   <*<<<*@@;;2992;@;292;;;weet3",
"yweewwt3gwq<7<*O 66,>7<<<*@2;@;2992;;;2222;;eet3",
"ateewey3geq<787*,u66,7<<<*;29;@;29922;;;;;wewet3",
"ateeewy3g0qw<i78>666>*<<7<;229;;;;2222;;eeeeqwt3",
"atqeeey3geqe<7i<8>,>*7<77<@;222;;2;;;;@eeweewqt3",
"aeqewwy3gdddO*77<77*7887<*@@;;22;9;222;;aaayaaa4",
"aqqwwqy33333<7888888887**O@;@@;;;92@;222;@333333",
"aewqwwt3ayyy8<8<*7887**<*O@;;;;;229;@;;;@yeyeyy3",
"aeqwqwy3aeqeroroo<88*<<<*O@@;;;22;22;;@@ateeewy3",
"atwqwwt3dwq0qe%%o788*<<*O*@@;@;2;;;2;@y3atwewwy3",
"dewewwe3dqwe0qq%o788*<<*O*@@@@;;;2;;2;y3yeeeeey3",
"dywwqwy3dwqqeqq:o<87O**OOO@@@@;;@2;@;2t3yewqeee3",
"dyq0qwy3dwwqtwq:o<87O*111=@@@@;;@2;ww@y3ateweey3",
"dddadaa3ddd*<<<***OO=1rpr1=@@a;@d@;adds3atewwwy3",
"5333333344*i87i7*87*1rprrr1@33@333@34433aewwwwy3",
"ayyaaaayt*<87<8**787*1rr111=aaaytyyyeta3aeweeet3",
"deeeeweww*7*7*7O**777111=11=ewewwwwewey3ateeeet3",
"dwewwwwee*<O<O<31-***===111=wwweeewwwet3yweewwt3",
"dewewweewe*wOeO3r&pp1rrrrr1ewweewewweey3ateewey3",
"dewwewqwweeeeee3ar1ppprrpr1wewqwweeeeee3ateeewy3",
"dewwewweewqweee4a*7rppppr1=wewweewqweee3atqeeey3",
"deweeqewqeewqet3arrpppprr1=eeqewqeewqet3aeqewwy3",
"dwwwq0eeeeeewee3aer1111111=wq0eeeeeewee3aqqwwqy3",
"dw0ewewwewweeey3aeX+++++++Xewewwewweeey3aewqwwt3",
"dqwqqwqwwqweeet3atXX++&&++Xqqwqwwqweeet3aeqwqwy3",
"gwqqweqqwwwwwwy3ytX+XX-&++Xqweqqwwwwwwy3atwqwwt3",
"geqqwwwqqwwwewt3dyX&+*i7++Xqwwwqqwwwewt3dewewwe3",
"g0qwq0qwwqqweet3dywX++X++XXwq0qwwqqweet3dywwqwy3",
"geqeeeqeewwwwey4dyw.##.###.eeeqeewwwwey3dyq0qwy3",
"gdddfddddfddddd3dd.##.#$$#.dfddddfddddd3dddadaa3"
};
