/* XPM */
static char *result[] = {
/* columns rows colors chars-per-pixel */
"48 48 44 1 ",
"  c black",
". c #0C0C0C",
"X c #1D1005",
"o c #1F021E",
"O c #042304",
"+ c #3C250C",
"@ c #141822",
"# c #222222",
"$ c gray18",
"% c #480A1D",
"& c #563F2C",
"* c #1F631B",
"= c #434328",
"- c #654E3D",
"; c #333943",
": c #6A0846",
"> c #552E40",
", c #69465C",
"< c #4B7A45",
"1 c #78785D",
"2 c #465262",
"3 c #656965",
"4 c #6C6F74",
"5 c #75777D",
"6 c #956469",
"7 c #67A25F",
"8 c #80807C",
"9 c #80C878",
"0 c #6E7882",
"q c #7D808B",
"w c #878888",
"e c #8F9094",
"r c #98999C",
"t c #A9A98E",
"y c #A8A8A7",
"u c #B3B4B6",
"i c #C48A89",
"p c #A2E1A1",
"a c #DFDAB8",
"s c #C1C2C7",
"d c #D3D0C8",
"f c #DEDEE1",
"g c #E4F2F4",
"h c #F2FAFB",
/* pixels */
"333333333333333333343333333333333333333333334443",
"suuuuuyyyyyruuyuuyu;ruu5s;2ruyu3s;ussssuyuuurys3",
"srwreeeeereeeereeer;;;y4s;02;ru3;2rrrereeeereru3",
"fewqwrqrrree;22;;er;20;4s;202;u3;02eeeerrreeery3",
"fwerqwwewewwr;2202;;;20;;;2002;;2002eerrereerru3",
"fewwrwweeerre;;220;;;;20;;;002;22002reweerrrrrr3",
"feewyewwrrrr;;;;202;;;2002;202;220002eerrewerrr3",
"fffffffs;;;;;;;;;;22;;;2002200;200002wrewrrewry3",
"333333333;2002;222;;;;;;2002002200002qrrrrrrerr3",
"sururuu3su;;;;;;2200022;200;200202002reereerrru3",
"syrrreu3;;20022;;;220002;202;2;222002eweewerrry3",
"syere;;2220022;;;;;;20002;7**O<;;202;rwweeeeeeu3",
"urrrrr;;;;;;;;;;;;;;;202;9<9**77<;2;eeewweeerey3",
"urewrrr;;;;2022;;;22200;797<<<777<;;wqweewwerry3",
"syrerr;;200022;20000000;79pppp<<77<rrrwrreeeeru3",
"syr;2;200022;;;;;2222202<<797<<***p<gffffgfffff3",
"sree;;;;;;;;;@;;;;;;220;<799997779p<333333343333",
"srerrr;;2222@;@@22;;;2;<779ppppp97p<uuyuuyurruu3",
"syr;;;2200;@;222222;@@*7<***<7779p9<eereeererry3",
"uerr;2222;;;20002;;@@*<<<*<   *<<<<<ewweeererry3",
"syrre;;;;;200022;@;2@*<<<7>,66 O*<7<rrwerwerery3",
"syrrreu;;22222;;@;02;*<<<7,66i,*797<eeeerrrrwey3",
"sywrrru3h;;;;;;@;022;<7<<*>666>97p<rrerrrerrewy3",
"srwreeu@@;;;;2;;22;;@<77<7*>,>9<p7<usffssssusss4",
"swweew;;222@20;2;;@@@*<7997*77<77*O3333333333333",
"srewe@222;@202;;@@;;@O**7999999997<ruyu3sururuu3",
"srwewe@@@;;2022;;;;;@O*<**7997*<9<9erru3syrrreu3",
"syeweey3f@;02;22;;;@@O*<<<*99<oototeeeu3syereeu3",
"frereer3f@22;;;2;@;@@*O*<<*997o%%rewrwu3urrrrru3",
"fueeweu3f;2;;2;;;@@@@*O*<<*997o%frrewry3urewrrr3",
"fuwqweu3f2;@;2@;;@@@@OOO**O79<o:frreeru3syrerru3",
"fffsfss3f@ff;2@;;@@@@=111*O79<o:ffssffd3syreeeu3",
"533333334444;@4@;3@@=1tat1=OO=1*<<<*4433sreeeeu3",
"suussssuyuuu@ys4@uu@1tttat1*71t7p79p*ys3srerrry3",
"frrrrereeeereru3srr=111tt1*71=1*9<79<*u3syrrrry3",
"fereeeerrreeery3see=11=111tt1==O7*7*7*y3uerreey3",
"frereerrereerru3srr=111======-1r<O<O<*u3syrreru3",
"freereweerrrrrr3sree1ttttt1aa&teOrOr*rr3syrrreu3",
"freereerrewerrr4sywe1tattaaa1terrewerrr3sywrrru3",
"frerrwrewrrewry3syer=1ta77at7*rewrrewry3srwreeu3",
"feeewqrrrrrrerr3srer=11799tattrrrrrrerr3swweewu3",
"feqrereereerrru3srrXX1t79111tXeereerrru3sreweey3",
"fwewweweewerrry3syeX+tatat1XX+weewerrry3srweweu3",
"hewwerwweeeeeeu3uyX+&+11a1X+&&Xweeeeeeu3syeweey3",
"hrwweeewweeerey3fX+&9p&thX+++&+wweeerey3frereer3",
"hqwewqweewwerry3f.#+&7*3hqX+++X#.wwerry3fueeweu3",
"hrwrrrwrreeeeru4f.###.u3hrwX####.eeeeru3fuwqweu3",
"hfffgffffgfffff3ff.$$#.8hff..#..fgfffff3fffsfss3"
};
