/* XPM */
static char *xpm_[] = {
/* columns rows colors chars-per-pixel */
"48 48 35 1 ",
"  c #040203",
". c #171009",
"X c #0F1214",
"o c #171715",
"O c #23180E",
"+ c #2B1C10",
"@ c #37200E",
"# c #25231C",
"$ c #2C2820",
"% c #3F3420",
"& c #333229",
"* c #554835",
"= c #585643",
"- c #746E5C",
"; c #656965",
": c #6C6F74",
"> c #75777D",
", c #807E69",
"< c #8B8773",
"1 c #80807C",
"2 c #7D808B",
"3 c #878888",
"4 c #9A9782",
"5 c #8F9094",
"6 c #98999C",
"7 c #ABA69A",
"8 c #A8A8A7",
"9 c #B3B4B6",
"0 c #CCC6B9",
"q c #C1C2C7",
"w c #D3D0C8",
"e c #E2DED4",
"r c #DEDEE1",
"t c #E4F2F4",
"y c #F2FAFB",
/* pixels */
";;;;;;:;;;;;;;;;;;;;;;;;;;;;;;;:::;%%%%%%%%%**%&",
"9899896699>q886989;q99qqqq9899968q;,,,4<<4,,,4-&",
"5655565668:q555669;r66665655556569;4444444444-,&",
"3355565668:q555559;r56555566655568;000000000-<,&",
"6356356568;w653639;r65655665655669;%%$%$$$$O0<,&",
"5556666358;r665368;r65565355666666;#$#$$O$OO04<&",
"5666566538;r665569;r65565566535666;OO+OO+OOO07<%",
"rrqqqq9qqq:rrqqrrw;r65663653665368;OoOoOoO. 07,%",
";;;;;;;::;;;;;;;;;;r55532666666566;.........07,%",
"qq9899968q;q886989;r52656556556669;...O.O...07<%",
"5655556569;q555669;r35335355356668; OOoOOOO.04<%",
"5566655568;q555559;y53356335555559;.$O#$$#O.04<%",
"5665655669;w653639;y63355533555658;.%#$##$O.07<%",
"5355666666;r665368;y23532355335668;.%O#$#$O.07,%",
"5566535666;r665569;y63666366555569;.%OO$O#O.07,%",
"3653665368;rrqqrrw;yrrrtrrrrtrrrrr;.%OOOOOO.07,%",
"2666666566;;;;;;;;;;;;;;;;;;;;:;;;;.$O.O.O..07,%",
"6556556669;q9999988888699899896699;.#.......07,=",
"5355356668;q6365555565555655565668;.........04,%",
"6335555559;r5323626665553355565668;X . X X .04<%",
"5533555658;r3562335353366356356568; . X     04<%",
"2355335668;r5336335556655556666358;. .  . . 07<%",
"6366555569;r5538533666665666566538;  X .    %7<%",
"rrrrtrrrrr;rrrrrrrqqrq9qrrqqqq9qqq:.  .  . .*%<&",
";;;;;;;;;;;;;;:;;;;;;;;;;;;;;;;;;;; X  .  X **%&",
"988888699899896699;q886989;q969699; . . X . -0,&",
"555565555655565668;q555669;q866659;#$$+$&O  07,&",
"626665553355565668;q555559;q856559;$$&&&%O  07,&",
"335353366356356568;w653639;9666669;&&&%%&O  04<%",
"335556655556666358;r665368;9653666;O+++++.  04<%",
"533666665666566538;r665569;q865669;.OO....  04<%",
"rrqqrq9qrrqqqq9qqq:rrqqrrw;q865559;OO+++$   07<%",
"::;;;;;;::;;;;;;;;;;;;;::;;q655559;#$+$$$...07<%",
"8q:9999999;q99qqqq9899968q;q656668;$$$$@$...07,&",
"69;q665569;r66665655556569;q866668;$$@$&$...04,&",
"68;q555669;r56555566655568;9566558;$$&$&%.  04,&",
"69;q666669;r65655665655669;q866569;$$$$$%.  07,&",
"66;q655659;r65565355666666;q866659;$$&&&&.  04<%",
"66:q835569;r65565566535666;q836669;$&&&&$. .04<%",
"68;q856569;r65663653665368;q636559;&&$&+$. .07,%",
"66;q656669;r55532666666566;q335539;&&&&%+. .04<&",
"69;q665559;r52656556556669;q653558;&&&&&%. .04<&",
"68;q855668;r35335355356668;q635359;$&$$&&.  04<&",
"59;9836668;y53356335555559;q853558;+$$+$$.  04<&",
"58;r955568;y63355533555658;r656556;000000000=04%",
"68;r955659;y23532355335668;r955359;4444444444=0%",
"69:r953659;y63666366555569;r932359;eeeeeee0ee0=%",
"rr;rrrwwqq1yrrrtrrrrtrrrrr;rrrqrqq;***%%%%%%&&&&"
};
