/* XPM */
static char *xpm_[] = {
/* columns rows colors chars-per-pixel */
"48 48 39 1 ",
"  c #040203",
". c #171009",
"X c #0F1214",
"o c #171715",
"O c #23180E",
"+ c #2B1C10",
"@ c #37200E",
"# c #25231C",
"$ c #2C2820",
"% c #3F3420",
"& c #333229",
"* c #4B4330",
"= c #554835",
"- c #484843",
"; c #585643",
": c #695E4C",
"> c #746E5C",
", c #656965",
"< c #6C6F74",
"1 c #75777D",
"2 c #807E69",
"3 c #8B8773",
"4 c #80807C",
"5 c #978E7D",
"6 c #7D808B",
"7 c #878888",
"8 c #9A9782",
"9 c #8F9094",
"0 c #98999C",
"q c #ABA69A",
"w c #A8A8A7",
"e c #B3B4B6",
"r c #CCC6B9",
"t c #C1C2C7",
"y c #D3D0C8",
"u c #E2DED4",
"i c #DEDEE1",
"p c #E4F2F4",
"a c #F2FAFB",
/* pixels */
",,,,,,,,,,,,,,,,,,,,,<<<,%%%%%====%%%%%%%%%%==%&",
"1tww0ewe,teetttteweee0wt,522222333322283382228>&",
"<t99900e,i0000909999090e,88888888888888888888>2&",
"<t99999e,i9099990009990w,rrrrrrrrrrrrrrrrrrr>32&",
",y09707e,i0909900909900e,$$$$%%%$%%%%$%$$$$Or32&",
",i00970w,i09909799000000,$#OO##$$OO#$#$$O$OOr83&",
",i00990e,i09909900979000,#OO+O+O+O+OO+OO+OOOrq3%",
"<iittiiy,i0900709700970w,OoOoOOOOOOOoOoOoO. rq2%",
",,,,,,,,,i99976000000900,...................rq2%",
",tww0ewe,i9609099099000e,.....O.O.....O.O...rq3%",
",t99900e,i7977979979000w,OO.OOOOOOO OOoOOOO.r83%",
",t99999e,a9779077999999e,#O.$O#$$#O.$O#$$#O.r83%",
",y09707e,a0779997799909w,$O.%#$##$O.%#$##$O.rq3%",
",i00970w,a6797679977900w,$O.%O#$#$O.%O#$#$O.rq2%",
",i00990e,a0700070099990e,#O.%OO$O#O.%OO$O#O.rq2%",
",iittiiy,aiiipiiiipiiiii,Oo.%OOOOOo.%OOOOOO.rq2%",
",,,,,,,,,,,,,,,,,,,,<,,,,O..$O.OOo..$O.O.O..rq2%",
",teeeeewwwww0eeweewe00ee,...#.......#.......rq2;",
",t070999990999909990900w,......... .........r82%",
",i976706000999779990900w,*%*;$.. X X . X X .r83%",
",i790677979770079079090w,===:$..  . . X     r83%",
",i977077999009999000079w,;:::$  X  . .  . . rq3%",
",i997w97700000900090097w,&&&&O  . X  X .    %q3%",
",iiiiiiittitetiittttettt<++$OO .   .  .  . .=%3&",
",,,,<,,,,,,,,,,,,,,,,,,,,&&&%O  . . X  .  X ==%&",
"eewe00ee,tww0ewe,te0e0ee,%***.. X X . . X . >r2&",
"9990900w,t99900e,tw0009e,**=*....O+#$$+$&O  rq2&",
"9990900w,t99999e,tw9099e,=*=*...OO+$$&&&%O  rq2&",
"9079090w,y09707e,e00000e,*-==..OO$$&&&%%&O  r83%",
"9000079w,i00970w,e097000,=**;.....OO+++++.  r83%",
"0090097w,i00990e,tw0900e,===;.  . ..OO....  r83%",
"ttttettt<iittiiy,tw0999e,=;=:.....OOO+++$   rq3%",
",,,,,,,,,,,,,<<,,t09999e,=;=;....O+#$+$$$...rq3%",
",teetttteweee0wt,t09000w,;;;:...OO+$$$$@$...rq2&",
",i0000909999090e,tw0000w,;;;:....O+$$@$&$...r82&",
",i9099990009990w,e90099w,;;;>...O+#$$&$&%.  r82&",
",i0909900909900e,tw0090e,:;:>...OO+$$$$$%.  rq2&",
",i09909799000000,tw0009e,;;;>...OO$$$&&&&.  r83%",
",i09909900979000,tw7000e,::;>...OO$$&&&&$. .r83%",
",i0900709700970w,t07099e,;;:>...O+$&&$&+$. .rq2%",
",i99976000000900,t77997e,::=>...O+$&&&&%+. .r83&",
",i9609099099000e,t09799w,::>>...O+$&&&&&%. .r83&",
",i7977979979000w,t07979e,=*%*...OO+$&$$&&.  r83&",
",a9779077999999e,tw9799w,&&&% ...OO+$$+$$.  r83&",
",a0779997799909w,i090990,rrrrrrrrrrrrrrrrrrr;r8%",
",a6797679977900w,ie9979e,88888888888888888888;r%",
",a0700070099990e,ie7679e,uuuuuuurrruuuuuuuruur;%",
"4aiiipiiiipiiiii,iiititt,%====%%%%%===%%%%%%&&&&"
};
