/* XPM */
static char *xpm_[] = {
/* columns rows colors chars-per-pixel */
"48 48 38 1 ",
"  c #040203",
". c #171009",
"X c #0F1214",
"o c #171715",
"O c #23180E",
"+ c #2B1C10",
"@ c #37200E",
"# c #25231C",
"$ c #2C2820",
"% c #3F3420",
"& c #333229",
"* c #4B4330",
"= c #554835",
"- c #484843",
"; c #585643",
": c #695E4C",
"> c #746E5C",
", c #656965",
"< c #6C6F74",
"1 c #807E69",
"2 c #8B8773",
"3 c #978E7D",
"4 c #7D808B",
"5 c #878888",
"6 c #9A9782",
"7 c #8F9094",
"8 c #98999C",
"9 c #AA9E88",
"0 c #ABA69A",
"q c #A8A8A7",
"w c #B3B4B6",
"e c #CCC6B9",
"r c #C1C2C7",
"t c #D3D0C8",
"y c #E2DED4",
"u c #DEDEE1",
"i c #E4F2F4",
"p c #F2FAFB",
/* pixels */
",,,,,,,,,,,,<<<,%%%%%%%%%%%%%%====%%%%%%%%%%==%&",
"rwwrrrrwqwww8qr,211223232311111222211162261116>&",
"u8888787777878w,66666666666666666666666666666>1&",
"u7877778887778q,eeeeeeeeeeeeeeeeeeeeeeeeeeee>21&",
"u8787788787788w,$$%%%%$%$$$$$%%%$%%%%$%$$$$Oe21&",
"u87787577888888,#$#$$#$$#$#OO##$$OO#$#$$O$OOe62&",
"u87787788757888,O$#$OO$#O#OO+O+O+O+OO+OO+OOOe02%",
"u8788587588758q,oOOOOoOOOOoOoOOOOOOOoOoOoO. e01%",
"u77754888888788,............................e01%",
"u7487877877888w,O.......O.....O.O.....O.O...e02%",
"u5755757757888q,OOO OOO+OOO.OOOOOOO OOoOOOO.e62%",
"p7557855777777w,.XO.$O#$$#O.$O#$$#O.$O#$$#O.e62%",
"p8557775577787q,1%O.%#$##$O.%#$##$O.%#$##$O.e02%",
"p4575457755788q,2%O.%O#+#$O.%O#$#$O.%O#$#$O.e01%",
"p8588858877778w,3%O.%OO$O#O.%OO$O#O.%OO$O#O.e01%",
"puuuiuuuuiuuuuu,*$O.%OOOOOo.%OOOOOo.%OOOOOO.e01%",
",,,,,,,,,,,<,,,,$$..$O.O.O..$O.OOo..$O.O.O..e01%",
"qqq8wwqwwqw88ww,;$..#.......#.......#.......e01;",
"78777787778788q,;.. .............. .........e61%",
"88777557778788q,;OOO+$&%**%*;$.. X X . X X .e62%",
"57558857857878q,:OOO$%**====:$..  . . X     e62%",
"77887777888857q,>O+$.O*;;;:::$  X  . .  . . e02%",
"88888788878875q,1...OO$&&&&&&O  . X  X .    %02%",
"rurwruurrrrwrrr<1.....OO+++$OO .   .  .  . .=%2&",
",,,,,,,,,,,,,,,,2...OO$$$&&&%O  . . X  .  X ==%&",
"rqq8wqw,rw8w8ww,1..O#$&%%%***.. X X . . X . >e1&",
"r77788w,rq8887w,2..O$&&****=*....O+#$$+$&O  e01&",
"r77777w,rq7877w,2..O#&&**=*=*...OO+$$&&&%O  e01&",
"t87585w,w88888w,2..O$&%***-==..OO$$&&&%%&O  e62%",
"u88758q,w875888,2..+$&&**=**;.....OO+++++.  e62%",
"u88778w,rq8788w,3..O$&%**===;.  . ..OO....  e62%",
"uurruut,rq8777w,2.O+$&%*==;=:.....OOO+++$   e02%",
",,,,<<,,r87777w,2.O+&&%=;=;=;....O+#$+$$$...e02%",
"qwww8qr,r87888q,2.O+&&*=;;;;:...OO+$$$$@$...e01&",
"777878w,rq8888q,2.O+&&*;;;;;:....O+$$@$&$...e61&",
"887778q,w78877q,2.O#&%*;:;;;>...O+#$$&$&%.  e61&",
"787788w,rq8878w,2..$&**;;:;:>...OO+$$$$$%.  e01&",
"7888888,rq8887w,2..#&%*;;;;;>...OO$$$&&&&.  e62%",
"8757888,rq5888w,1.O#&%*;;::;>...OO$$&&&&$. .e62%",
"588758q,r85877w,2.O+&&*;;;;:>...O+$&&$&+$. .e01%",
"8888788,r55775w,3.O#&%%;;::=>...O+$&&&&%+. .e62&",
"877888w,r87577q,9.O#&%*;:::>>...O+$&&&&&%. .e62&",
"757888q,r85757w,>..O#$$*==*%*...OO+$&$$&&.  e62&",
"777777w,rq7577q,%...O+$$&&&&% ...OO+$$+$$.  e62&",
"577787q,u878778,eeeeeeeeeeeeeeeeeeeeeeeeeeee;e6%",
"755788q,uw7757w,66666666666666666666666666666;e%",
"877778w,uw5457w,yyyyyyeeeyyyyyyyeeeyyyyyyyeyye;%",
"uiuuuuu,uuururr,==%%=%%%%%====%%%%%===%%%%%%&&&&"
};
