/* XPM */
static char *_3867e30ce164111a3f3eed017603d51byNfsK6b0tKhyfO8[] = {
/* columns rows colors chars-per-pixel */
"48 48 41 1 ",
"  c #20160F",
". c #5F1D0D",
"X c #46290E",
"o c #484B48",
"O c #4E5054",
"+ c #626363",
"@ c #656965",
"# c #68696C",
"$ c #6B6C6C",
"% c #6F6F72",
"& c #6C6F74",
"* c #767777",
"= c #75777D",
"- c #7B7B7A",
"; c #853A0C",
": c #A14B0F",
"> c #B75F14",
", c #C97318",
"< c #D38C1E",
"1 c #DBA42E",
"2 c #80807C",
"3 c #DFC543",
"4 c #E5D76D",
"5 c #7D7E81",
"6 c #7D808B",
"7 c #838485",
"8 c #878888",
"9 c #8D8E92",
"0 c #8F9094",
"q c #939392",
"w c #98999C",
"e c #A3A3A5",
"r c #A8A8A7",
"t c #A8B2B4",
"y c #B3B4B6",
"u c #C1C2C7",
"i c #D3D0C8",
"p c #EDE7D2",
"a c #DEDEE1",
"s c #E4F2F4",
"d c #F2FAFB",
/* pixels */
"@@@@@@@@@@@@@@@@@@@&@@@@@@@@@@@@@@@@@@@@@@@@&&&@",
"uyyyyyrrrrrwyyryyry         yry@uyyuuuuyryyywru@",
"uw8w00000w0000w000X:111<1<<; wy@awwww0w0000w0wy@",
"a0868w6www0008800X<1<<<<,,,<: y@a0w0000www000wr@",
"a80w68808088ww80X;3<<<<<<<<<,. @aw0w00ww0w00wwy@",
"a088w88000ww0000.:3<<<<<<<<<<. @aw00w0800wwwwww@",
"a008r088wwwww0wX;,3<<<<<<<<<<.. aw00w00ww080www@",
"aaaaaaauuauyuaa.:<3<131,333<1;. aw0ww8w08ww08wr@",
"@@@@@@@@@@@@@@@;,<3<.;;,.;;<1;. a00086wwwwww0ww@",
"uywywyy@uyyuuuu;<<3<11111<<<1;. a06w0w00w00wwwy@",
"urwww0y@aww    ;<<4<.31;13.<1;;      080080wwwr@",
"ur0w00y@a0X:111;<<41.;3;3.;<3;; :<<<; 88000000y@",
"ywwwwwy@aX<1<<<;<<41.1;1;1;13;;X:>,,<: 88000w0r@",
"yw08www@X;3<<<<:<<41.44333;13;>X:><<<,. #$*0wwr@",
"urw0wwy@.:3<<<<:<141..;;;;;13;>.:><<<<. %##50wy@",
"urw000yX;,3<<<<:<14<333443313;,.:><<<<.. teeaaa@",
"uw0000y.:<3<131:<14<1;1;1;113;,.:<33<1.. ooO@@@@",
"uw0wwwr;,<3<.;;><34<111111113;<.:.;;<1;. -7%wyy@",
"urwwwwr;<<3<111:<34<111111113;<.:><<<1;. #%#wwr@",
"y0ww00r;<<4<.31><34<111111113;<.X>3.<1;. #%#wwr@",
"urww0wy;<<41.;3>134<111111113;<.X:.;<3;; +#%0wr@",
"urwww0y;<<41.1;>134<111111113;<.:X1;13;; %%%80r@",
"ur8wwwy:<<41.44>1341311111113;,.::3;13;; #%%08r@",
"uw8w00y:<141..;>13p1431114433;<.XX;;13;; 997uuu&",
"u88008y:<14<333>33p3;;3;1;;;4;>X:>3313;; ooo@@@@",
"uw0800r:<14<1;1:34p4333311134;>XX:;113;; 7%7wyy@",
"uw8080y><34<111:34p4443333343;:X:>1113;; -%%w0y@",
"ur0800r:<34<111:443pppp4p443,.;X:>1113;; -#%00y@",
"aw0w00w><34<111:p4>;;;;:>::;;.;X:>1113;; %%%wwy@",
"ay0080y>134<111:p1;;;;>,,,,:;..X:>1113;; %#+www@",
"ay8680y>134<111;p>;;;>,<<,>;;.. :>1113;; -%#wwy@",
"aaauauu>1341311;3;;;>,<<,>:;;;. :>1113;; -%#00y@",
"=@@@@@@>13p1431;1;;>,<<,>:;;;;. :>4433;; %##00y@",
"uyyuuuu>33p3;;3;;;>,,,>:;;;;;;; X:X;;4;; %#%wwr@",
"awwww0w:34p4333.;:><1111111<>:; :11134;; -%%wwr@",
"a0w0000:34p44433               ;333343;; #%%00r@",
"aw0w00w:443pppp44443;   XXX.pppp44443,.; -%%0wy@",
"aw00w08:p4>;;;;:>::;;X  XXX.;;;;:>::;;.; -%%w0y@",
"aw00w00:p1;;;;>,,,,:;.  XXX;;;;>,,,,:;.. -+%wwy@",
"aw0ww8w;p>;;;>,<<,>;;;  XX.;;;>,<<,>;;.. %+%00y@",
"a00086w;3;;;>,<<,>:;;;X XX;;;>,<<,>:;;;. ++#08y@",
"a06w0w0;1;;>,<<,>:;;;;. X.;;>,<<,>:;;;;. %#*00r@",
"a808808;;;>,,,>:;;;;;;; X;;>,,,>:;;;;;;; %*080y@",
"d0880w8X;:><1111111<>:;  ;:><1111111<>:; q0800r@",
"dw880008X              @d               uw0w00w@",
"d68086800880wwr@ay00w0y@d68086800880wwr@ay0080y@",
"dw8www8ww0000wy&ay08w0y@dw8www8ww0000wy@ay8680y@",
"daaasaaaasaaaaa@aaaiiuu2daaasaaaasaaaaa@aaauauu@"
};
